<mxfile host="app.diagrams.net" agent="Mozilla/5.0 (Windows NT 10.0; Win64; x64) AppleWebKit/537.36 (KHTML, like Gecko) Chrome/134.0.0.0 Safari/537.36" version="26.1.1">
  <diagram name="PÃ¡gina-1" id="QSLg3xRNNOwVC49zCJME">
    <mxGraphModel dx="2181" dy="655" grid="1" gridSize="10" guides="1" tooltips="1" connect="1" arrows="1" fold="1" page="1" pageScale="1" pageWidth="827" pageHeight="1169" math="0" shadow="0">
      <root>
        <mxCell id="0" />
        <mxCell id="1" parent="0" />
        <mxCell id="29m1Z3NYBUcn7dENaPxr-1" value="" style="shape=image;verticalLabelPosition=bottom;labelBackgroundColor=default;verticalAlign=top;aspect=fixed;imageAspect=0;image=data:image/png,iVBORw0KGgoAAAANSUhEUgAAAsAAAAFnCAYAAACo3v8kAAAAAXNSR0IArs4c6QAAAARnQU1BAACxjwv8YQUAAAAJcEhZcwAADsMAAA7DAcdvqGQAAP+lSURBVHhe7J0JXJTV/v8/A8wGCgMI4sbigrtGErkkuSYlqWheFdefevurmWmp6C23RFwyywxTUsxES5FSc7tJitBVDAtkETVUJEFBRYlFtuH7P8/MsMM8A6iVnvd9TddnO+d7vtv5Ps88Z5AQAxwOh8PhcDgczjOCke7/ORwOh8PhcDicZwJeAHM4HA6Hw+Fwnil4AczhcDgcDofDeabgBTCHw+FwOBwO55mi5gK4+DbOfbsByxb5YOlHX+PnPwp0BxqO+sYhrJ7/IUKS1Lo95RT+ugM+8z9H+APdjmeYvLNbsWDJHt3WX0Eezm5dgCV7EnTbjwM1rh/0w4KNp3TbfxcKkBKXiHslus3HiCYe3luAjSczYFh3le2SFeGPBR/u1/z7L0F9HQf9mPyn7ul2cAzjyfh+nfOIOgVHVkzAEPeXMGDqNiQW6/b/Xck7i60LlmBPQlVB1bhxaDXeW7ARJzOeQCDrRY2UIyswYYg7XhowFdv+KqUWpCAu8Z6BeebZpVJOrdW/6suTm1seNZpcsuxbvTlB/ccRrH1vPj4+nqbbU1+yEOG/AB/uv6LbfjxUL4DVSdj+rxfg/uZmnLp0Bf8LnIsBrp745MKjKYLVt37G15u+Qtgf1bVYfPkw/Dftx29/8hAtTPkFx368oNv6KyhEyi/H8OOFdN3240CNtPCd8A8+r9v+O8AKky9GwHXSHqQ8djfMx5mNC+EXSuj2vK2BX8dUtEsJcmJC4L/jL7yBUKchfKc/gs/zu9a68WR8v655JO/wEkxd9TNMenthxOCusPu7f0dYmIJfjv2IC+lVHqjkn8HGhX4IpW543vYvHkTeYSyZugo/m/SG14jB6PpXKJXdqH4xwhWT9qTwAlgvVXJqbf5VL57k3PLoeRh/AP5fhuJ6rQVwIaL8feB7vBDd3Ox0++pJSQ5iQvyx49RN3Y7HQ7VILPx5E1YfaYSZP0Qj/MD3+Cn6Jyxu9TP81h1Gju4czuNHNWY74s+t1W39FagwZns8zq0doNt+ViDkZNxBzpNIUOqbyLAcgy1Bvuiv0u0T5Vm1C6c+1C2PlCA7LQ3ZzV7FvBXvYc64F2H5dy+AVWOwPf4c1g6Q63ZoUd/MgOWYLQjy7c8i5q+lJDsNadnN8Oq8FXhvzji8+FcolXKQcSeHF791pRb/qh9PcG75K1CnIt1iFDbvWYPBVn/3xKGlmpQlmfdwX9IC7ZzNtDsU7dCpjQI5d+4g90kaLut7vN13AtbvXoPRz9nBVCqHVXsPLDqUwu6j6kBxCo6uHAM3BxXkUiVsOr+ODw6XtlGI64eWwsulORpJTaC07QiPeXtwMU9zkInwNvpOWI/da0bjOTtTSOVWaO+xCIdSyiUoTjmKlWPc4KCSQ6q0QefXP8Dh0uMl6Qhb5w23VuaQmShg02EI5n2TiHztUWSd+xyT+7SDjZkMMgt7uI72RehtrZKFvnsPXq75t0Dh9UNY6uWC5o2kMFHaoqPHPOwpF1RUVyUZp/Hx5JfR3tYMUmMTKKydMeCtICRqHuxnYv+svvBevASjOlrBzMoFC0/dwvdv98bg5eGa68V0ZRh5iN81BwOdraCQWaDNoMU4kVH5Z6hL0sOwztsNrcxlMFHYoMOQefgmsVRjhlCCjNMfY/LL7WFrJoUx07u18wC8FZQIzVBLMrB3Rh8MWxvFRqSjOBafjOyDaV/fQFrQDEz68hIKknZgQp/JCExmGiy8jkNLveDSvBGkJkrYdvTAvD0X2Wi0aP1kDXYsH4HOTRSQmbVEr5nfIDE+CDP7OqCxTAZL56FYFX5fd4VOl67umPzhKkwf6FJBlw9weH4/uM87hNKzBXL+uwgD+r2LQ/ezqtilIiVID1sHb7dWMJcxG9t0wJB5TI4y9WXh3OeT0aedDcyYTBb2rhjtGwqdyxlGXjx2zRkIZys2Tos2GLT4BCqZUMTnmdPj88l90M7GDDLmA/auo+EbertsYtZvfxHbGgobw9ezB2jH0IjZaro/1s94CaM/ixfxjz+02+yc0x9PxsvtbWEmNWZyWsN5wFsI0gYTMvfPQl/vxVgyqiOszKzgslB4miTi+yJtskYxq683Fi8ZhY5WZrByWYhTBsRepTyiN08U48KGN/DaOjbu9O8xu3cvvP19lojv15Y3+mLCmh1YPqIzmihkMGvZCzOZD8QHzURfh8bM7pZwHroK4fd1VhcbO5Mt5ehKjHFzgEouhdKmM17/4DA0aVYYU+/BWB6us5ZOXlf3yfhw1XQMdKkorxA7TLb1u7Fm9HOwM5VCbtUeHosOadsygBptq8fniy9swBuvrUNUYTq+n90bvd7+nkmhP05r9h+R2NZn25I0BM2YhC8vFSBpxwT0mRwIIa01NNfqn1PEqX3+Y3G+dwb6DFvL9KY9V/CB2E9Gos+0r3XbDcxleuuCClTxL/060+dfJTXPLaJ21Z8vDUdsXmEbYrlbgO4jcu0b6N5UCZlQDw2ej+8042CobyEuPBS/XC01Wu1xW5KxFzP6DMPacgOzNPsJRvaZhq//qGl0IvVHffUk/CGMiqjv/UD/z7kxOQ37kPb8GErfbZhAnc1b0MivkqlYd05DKDi7gDrInGj2yXzdnnJyd48kM9nL9MkNNdHdAPJQKKiR00BavCuMoiIPka9Hc5I2m0IHs3UXiFJA0SvdqJGFC03fcoKizp+kgKldyUw1hPyvFVNuhA91NbWg56ZtoiNnIik0cB71sZGR49QDlKERwYMUikbkNHAx7QqLoshDvuTRXErNphzUNR9NK90akYXLdNpyIorOnwygqV3NSDXEn64VF1HcOndSWfagNzcfpcjoM/TdquHkZNqWZhy9T1T0C/2HndthcgCdjI6n345/TF72Mmo5/SjlsKY1fdtO1vaTG0E+XU3J4rlptOnIGYoMDaR5fWxI5jiVDmgFFdHVXdrnbUeKdmPps+NRFBcXSYc+8iJHqYq8dt1jRr9NmwfJyMi0O725K4IigvdReEYGBXgoyHaydqxiujKEnJPvkLO8Cb303tcUdjaMgnz6kZ2JhKR91mlPKIqjde4qsuzxJm0+GknRZ76jVcOdyLTtDBJUZhB395G3nYLajf2MjkfFURzTxUdejiRVeZEwVFLfpM/6K8lx1k9U5oEFP9O7zkrqsy6JsmMPkK9wfqvhtCzgAMXcz6UIn65kavEcTdt0hM5EhlLgvD5kI3OkqQcySBi6YCuWRMlhyHIKORNN4ZtHk4PUnKztX6B/bw2lXyJDaGFvFSl6rdF0p1+Xarr91XCytGTy3tWczrhP+8bZkspzG91S361gFzXd/Kw/KR1nac4qiltH7ipL6vHmZjoaGU1nvltFw51Mqe2Mo6wFweX+Q13NOtDkgJMUHf8bHf/Yi+xlLWn6UcHjDCGHTr7jTPImL9F7X4fR2bAg8ulnRyYSqUZ3rAf9Ps+O//IfFn8dJlPAyWiK/+04fexlT7KW00kjgpj9xWxrENkU+rZuDDtPUWT4Xlrq0YpkRibUcWGkqH8I3N3nTXaKdjT2s+MUFRfH8sJH5OUoJZXXLrrHbHJ78yDWnil1f3MXRUQE077wDFHf19+mEKKbaZDMiEy7v0m7IiIoeF+4QXFXKY/ozRNM7rPf0ieTOpPMZhD5fLGdjiVm6vf9WvOGnKRKBxqyPITORIfT5tEOJDW3JvsX/k1bQ3+hyJCF1FuloF5rLmnFEhl7QfRKcmtkQS7Tt9CJqPN0MmAq82MVDfG/phuTLU0++JCdKRar2thRNHKigYt3UVgUy4O+HtRc2oymGDSp1GTbNL0+r759lr79ZBJ1ltnQIJ8vaPuxRMrRG6c1+49YbOu3bTbFHvDV6LTV8GUUcCCG7jc414rMKWLonf/K89pP5UFIP7/rTEpdvDQsl+mrCwor5dRK/iWqM/3+VX1uEZrUZ1eRfFknxOYVsdwtqILNcxJjatpvIQWdjqbzx9bT8FZSajrpgOY45R+l6S2UNGRLhmZTX9yqb35G/ZWONKvcwCzNvkvOyj60LolVmhXysID+ObP+eqpWABP9SRe2/IvaKCQkkQgfE2rmsY4iMw2sckSoUwEsl5H7huvMdFoKwuYwuV4g34sGluIFYTSnjZy6vX+eubyOnJ/Id/w0+vzcXQoeZ03KXqspsaw5NaUFDiOV6QDaxGTQGFzmThuul0lAYXPakOIFX+2WII+8G71/vqx11rwvjZ/2OZ3LCqWZDgrqufpShRuHuxQ0yorMh+2gjIch5G3VmPr6/kYPNM0XU/KPW8n/YDyborXOVjpxZQePI2tlL1pdLiip0wJpmMqUBmy6QWoxXanT6dyejbTjtLZg01AQTnPbKegF34tUrJnI5KQY5E+pZSdULLSyRXUlTjaFTLAhpfvHJPi3BnUqbX3VnGS6pJYfOpMcFD1p9aXycdLdIBplZU7DdmiDSgx1+jnas3EHna5QHRSEz6V2ZboQK3CKKHZ5D1J2+4B+K2Kb2cE0zlpJvVYnlttRnUaBw1RkOmATaV1V8BNd4Arkn6AZ9lJymHGChGlZo6vPB5Ki2TT2bwN0mbmXxtqqaFjgba297u2mN6yb0Bu7hcxVWwGcT6EzHUjRczVVVt8osjIfRoL6HoZ4k1XjvuT72wNtu8XJ9ONWfzoYb+AdZXYITbBRkvvHSWW6UKdupVfNZVrd5Yv4PNNGiLcVNe7rS79pnZ6J8CNt9T9Igghi9he1rSHc/4ZGs7gb7M/iRreL7u2lcbZSAwtgNaWf20Mbd5yuUIAWUPjcdpq8cLFYW8DIFYPIvyyYxHxfrE12hlAAyxU0yD+1XG4DqFYA682pWj9VOs0mTXoW8/2i2vKGXDOu8nCYQfZSB5pxQhsNQhufD1RQs2mHhQ2RsWtzrrzb+1SeZnPoJ9/xNO3zc9oxlRYoorGqk819A5WndGGO0OZBcWqwrajPCyJ8TgOVpXOeWJzW5D/isS1q26JYWt5DSd0++I1lOPFYE0VsTtHtqhW98594AdygXKa3LsirtQAW15mYf1WZW0Ttqj9f1hl984oBfqyd516ij8qSWAGdmd+eFK4rtZuVCmD9cVu3Alhszsytt56qvAJRgtRdUzBk3gX03HgWaTl5SP91B4al+2Lo2C9wpdr3A/VAIoGE9VNS0x9gFgpydpSdokWiQuu2dmXvaRipVGgsKUZhoWF/vbkkMwEXUy3wvFtnyHT7YDYA7wdtw1vPpyLuUi5a9eqL1sa6Y6wnW/c+6KS+jNiLRZo9ElVrtC1btGAElaoxJMXCY/sSZCZcRKrF83DrXNY6a/59BG17Cz3uxSDuVjEubRmJ7l26oIvm8zKWR+Th4ZUEJBn1x6SJ9vh1iSuat+yOwRMX4ftsN4we2hmNdG1pKca1uEvIbdULfcsFhZGtO/p0UuNy7EVoJNWnKyNbuI2ZCNesEKz2mYVJIwfBtdNw+CepUVJSwnQuIIGlgwNqfHWn+JpButJLcTLiE7PRwsUVrUrbYHL17tkOJpoNNdJi4nCr+BK2jOyu0xf7vLwcEXkPcSUhqfwraT0Y2bphzERXZIWshs+sSRg5yBWdhvsjSc18rkan00/xtThcym2FXn1bo3zotnDv0wnqy7EoHbrEvA2cW+jOkJiikdIEzRxaQarZYQRTUyUk6mLDdGn5GryHmuH0/h+QzuyT8cM+/CR7le2z1p1fA+o0xMTdQvGlLRjZvdTfuuDl5RHIe3gFCUmFUPSfhIn2v2KJa3O07D4YExd9j2y30RjaubLH1UZxcjwSs1vAxbVVmS6MbHujZzudBdNEfL5Qgf6TJsL+1yVwbd4S3QdPxKLvs+E2eig6NxK3f/EjsG3x77FIzHPAC27Ny2IFql7o2VlrKXGYrdzGYKJrFkJW+2DWpJEY5NoJw/2ToGa2KhVDYukAh9JgEvV9w9pkjcLBwapc7vpQh5xqmO/XlDckMG/jjPJwaASlSTM4tNLp2MgUpkoJ1MXChCIydnUmEi6mwuJ5N5SnWTMMeD8I295y021rMVReVeu25Yv7jFRQNZaguNCQ7KKlom3FfV5zWjkGxKlAJf8x8BrDbfsIci3Tq/icogeFofNfzTQkl+mtC9xqe9fXUJ3Vwb9E7WqkJ1/q2qgLeuYVQ/1YoqowzzFPMzdvBElBpZcktJQYHreiiM6ZxvXWkzb/lvEAx/ceR+4rm/HZmy/CStjlMgEb/MJxZEQQvrs6A4ucyySoF0asEFAiF9l/Vg2REvyZ9SeKJUqYmjHvEQ5LjGFcpbvS2tggioqZ25rAWFrTVYUsATMFSCurQGJswq4QEq9WPgkToLII5W0VCQncxBg1Nl9QwHowRw/vBZjcsXILRo07oI2JJWw/PYvoV7/F7pAj+PHkNizcvRHrR2xBePBUWOjOFSjUClrZWEw3JmxHSYlam2z06aokDcFT+2Li3ofo5O6OHl3dMWXU6zj7vg8u604RzjZmY69Zv4bpSj/MFkxdRoLQZUigUMjL+iwoYFFm3gPeCyajssqM0LhDm6rOWiMlacGY2nci9j7sBHf3HujqPgWjXj+L933KRypQWWKhyKhlDIXC25EmqDx0piut8lE6dIlUqit2y5Ewm1THEF02wuDxw2E1cj8Opr4K432n0djzG7xS0SmqUQCt+ryxYHLHyj5r1Bgd2rD+LIfg07PRePXb3Qg58iNObluI3RvXY8SWcOYfFYqG2mD+rma2qGxCBRRynQVFfV4Q4VOcjX4V3+4OwZEfT2Lbwt3YuH4EtoR/i94i9jcy0LbikGaS1kft/lGCNBaffSfuxcNO7nDv0RXuU0bh9bPvo6IYQt4wKQsmMd83rE1NjJc3Wj/qklMN8v2a8oYEUhYPlZEIXdeA2NiLBLdjaVZapY8aMFheQxVQM5Vsa4DPV8aAOI2p0och1wjUwbYNzrUGzSn6sMSQWue/KdCUoZWDkJlQeECmoyG5TG9dUDuG6awu/iVuV0vb2vIly4UVHogZhp555ZZhfqydpwzBkLitZmDhGWgNiM+ZlkPrp6fS+5QyNMIKgmi2tBjLZazIYwmEDaihmLRqCwdFFmKi4tmwKvInzkQmgJq3QTvd+ruGYmTtCHvzTCRdrvAydHEits0cj2XHFXCyN8HN+HiUrsUQyIuNw+9oCUcnsSdCRrB2tId5ZhIuV3jzvjhxG2aOX4ZjEgfYm+Yiz6IXvCdOxETNZzyGuLRB+25tobofhW837sft56dhRcABnE1KReyGl5FzNAhHKr3JbwIHJ3uY3IxHfGVBEfc70NLRqVrhVZWSm8HYvPcuBmyMwvn/fosv1y/FbM+mKBJ+bk6kENBg4tBAXTFYG+2c5Lh1MQGZZW0U4PKVG2zSEjBGMzZO09w8WPTy1umLfcYPgUub9ujW1pAnXyW4GbwZe+8OwMao8/jvt19i/dLZ8GxahPKhCpMEobDgYbmPF97G7bvlAyv7BoJh4uAEe5ObiI+/X+5DyEOsVvkwZOiVMFCXir7jMbJ5JA7sDETwz00wYnx/dv+sB+NmrF1T5OZZoJd3qb9NxPghLmjTvhuY+nAv6lts3H8bz09bgYADZ5GUGosNL+fgaNARgxaPmDi0g5P8Fi4mZJbrouAyrtzQWbAZ05Uen7fCPUR9uxH7bz+PaSsCcOBsElJjN+DlnKMIOnJHxP4qViiJ2VYck3Zd0VF5A+ejKuSEP6MQlVj6LYaIf5TcRPDmvbg7YCOizv8X3365Hktne6Jp0Z+sPeF/NSDm+/Vp8wnwyH2/JsTGbmQNR3tzZCZdruCjxUjcNhPjlx3WbWt5IvJWQdTnqyYt0TitIcvV55pqCN+8ltLwXNvQOaXknv75TygiqbAAD8uDELdv39XZtaRBuUxvXXD4lm5HVR7F/FR5bhG1q+q+nnx5W9dI3ahtXqmzH4shFrfMvsZUiIJyA7M0exsVpuFyxOZMhz/rracqw7LAgNdfhknoevjsuYhs1ln+jeNYufxbpHd+Fa+1Y5V08WUcC9iK/eczddfUEfNXMHZoE1zcOBmTVn+Lk1EXEHP2OL76wBvv7r2PDv8ah56P4hdHBEz7Y+wIO0RuWoydCdksLrORsHM5Vn31K7ItWsNzwlCYhvphdkAUMtlMlHf1O/gsC0Zuz7F4o7343ZVp/7EYYReJTYt3IoEpqyQ7ATuXr8JXv2bDwuE1TPCywflP3oLfT6lsulPjTuQGTHmlH0b4RuCh5CoOrJqNOSuPIkVYNVv8J1L/uIdCK3vYW1Q2i7XnBAw1DYXf7ABEaQXFdz7LEJzbE2PfaM9CUwTh6bGkEHeSk/GA2VR971dsn7MCPzwQ7mpr+PqiGtYN1pVwx//alFGwPLkG7wReQJY6Hzd++ADL990qS0IWHhPgZXMen7zlh59SmVLUdxC5YQpe6TcCvhG5urP0I9wlSgrvIDn5AWtXjXu/bsecFT/ggXC3LQzVSAUHB0vcPbUPh5JZHwUpOL5yA45llQaiBDJ2w0c5D/BAqE6sPTFhqClC/WYjICqThXAern7ng2XBueg59g0YNPRKGKhLmRvGj3bCmfXr8b9Wo+DdSywoLOAxwQs25z/BW34/Qau+SGyY8gr6jfBFRK4RJFcPYNXsOVh5NIVpQ3C5VPxxrxBW9vao4nI1Y/kapoyyxMk17yDwQhbU+TfwwwfLse+WzoIWHnp9PtdIgqsHVmH2nJU4qnV6/Jn6B+4VWsHe3kLU/qK2NQSVJ2ZMaI6IFROw8KuTOHN6Hz6c+C72ppN2chL1D+EJowSFd5KRrA0m/Lp9DlZog6nyiukyxHy/Pm0+AR6579eE2NhN0X/sCNhFbsLinQlsTipBdsJOLF/1FX7NrvKVyBORtwpiPq87rRyxONWdVon6XFMFiQxyGSHnwQOmF0HsBubaBs4pRnrnPxOoHBxgefcU9h1KFqIbKcdXYsOxLN1NaQNzmd66wFJ3UnUaPj9VmVvE7PpQf74Ufkf+4uEABHwfgyyhOUOobV6psx+LoT9ujVQOcLC8i1P7DkGbZlmdueEYytJsJUTmzI4mInrSg+5d4HKKU+jge+7UXG5EUqWSpEYmZPncVPrqou5l5eyvaJhcSj2Wx2q364H67mla49WRVCYSYbiaj0TejHrP2k2Jpe9ECy+fK5vRtCO6hROMopil5KJ0oaUxmjfIDUKdGUGrhzqS0lhGpkopGSkdaeja/2lXzqpvU+iyV8heKSFjhSnJTRTUwn0uhVzXti+89K1sNo3KRSiimKUupHRZqttWU2bEahrqqCRjmSkppUakdBxKa/+nXTWpvhtOfp6tyczIiGQKOZlIFNRy0FIKTRde1C6ipN3TqJvKmPXdmMyZbFIbN5q9X/trG5UWr7B+bocuo1fslSQxVpCp3IQULdxpbsh1zYIGUV2p71Ho4hfJyoTJYdaIFDIr6j7ejxZ5qEg1fAelaxazKKnlm8fLF/5oXugv/xUIMV0ZhPouha0YTC0VzLdkbLzWPWmyVxcy1S1sEMZ5N9yPPFubkZGRjBRsnBJFSxq0NJQ0KjMA9b1QWvyiFZmw680aKUhm1Z3G+y0iD5WKhu9I17z8XxC/hUa2VpIRG4MpG4uj5xKa9ZJZ2Sr/h6fmkrPcmOSNu9L88AI29FBa9oo9KSXGpDBldlS0IPe5IVQ69Gp+UvA/mt9eSb3W/F62oOBBoCcpS+1poC6LL/rRi0KsLbugtbOG2hbBCZt3KdzPk1qbGZGRTMHalZCi5SBaGqodNxUl0e5p3UhlzMbR2Jz5q5Rs3GbT/uSylQWiqO+G0YrBLUlhJCUZu96652Ty6mJapjv9Pi+IsJumdVORMfPjxuYsv0htyG32ftKKoN/+htjWIHLj6KsZL1NrlZykjVqQ24Q5NNJZTl3fP685rN8/1HQvdDG9aGXCdGxGjRQysuo+nvwWeZBKNZx2pBdpFjEpW75Jx8uDSVCMHt8Xa1OtXQSnbElvVmpUnGqL4PTm1CqL4IQ9+nxfs3i2pryhpGbTjugWgArhMJ/aK3vRmt/LooECPZVlPiw2dpbEKWL1UHJUGpPMVJiTlOQ4dC1p0myFRUoC+mO1umxMAbTURUkuS2N0O/ShXaBW1bZiPl95EZywQ1+c1tyH/msYorZ9SKfmOpPcWE6Nu86n8IIG5lqxOUW0Df3zHwtC2jKyNSlZ/aEwZXHo6ElLZr1EZqVzRQNzWe11QZWcWsm/xHQm7l9V5xYxu+rPlxm0ZQjLYb3WUFloGUDN84ogin4/rqkeiv+wBym7vq/drPIrEHrjlgoofstIaq00YjFqymzsSJ5LZtFLZjX/CoTYnKlfT7UjEf6jqYSrUJBxCRcuZ0Bt2RbdOjWH8Fruoyaf9RF3+TZyjSzg0KkrnCwNe7uk7hQj82oMEtLUsO3ggvY25YvWBIozkxBzMR2w64Buba3LX4w3lOJMXI1JQJraFh1c2qNy82pkJcciPiUH8had0a2NVaX2S3JSkRB3FQ+MbODcvSOaKnQHaoL1kxRzEemwQ4dubWFdJ0HZHdiNC7hwIx+qtt3Rpbmpbn/daLCuGPnpibiQlAubzs+jtaoGx1JnITk2Hik5crTo3A1trOrYC7ujv3HhAm7kq9C2exfUONTCO7gcfRn3G7eDS6em2nfOymC6So7GhT9K0KJbDzhpHikwH0qKgXbo3dC2bsqvkUehy5pQZyUjNj4FOfIW6NytDSqrrwQ5qQmIu/oARjbO6N6xKfS5XM3kIz3xApJybdD5+daobkL9Pi/8lZ/UhDhcfWAEG+fu6FjV6fXZ3xDb6qMkHfGRt2DR7Tm0Kl0gUXASszsMRfw7lxE21167T69/CGLcwIULN5CvaovuXZrDUDH0+X5923z8PHrfr4ohYy/OvIqYhDSobTvApb2Nnnh5/PJWR8Tna0B/nNZMfa4pg8VOcvQF/FHSAt16OGmflDYo1zZ8TtE//xXizuVoXL7fGO1cOqFptS/BGprL9NcFtdJQnVWbW0TsqidflmRsxch/A1u//39oWi0P14e6+7EY+uK28M5lRF++j8btXNCpuoGroXfOFJtXaqDWApjD4XCeOoqjscS1F3Z3DcSJrd5oI7+HqM8mYdh/0vDvn6PwYY/HdRPO4XA4j5J8nF3ujR0dNmLL2FYGvYPMqQwvgDkczjNECdKPf4Cx0zcgPMMISqMiFCjb4w3fnfjyrR4G/QQTh8Ph/B0Qfs3GyIiXvvWFF8AcDufZo/g+ki/+jvQiczh27ICmf5/3DTgcDofzBOAFMIfD4XA4HA7nmYI/O+dwOBwOh8PhPFPwApjD4XA4HA6H80zBC2AOh8PhcDgczjMFL4A5HA6Hw+FwOM8UT38BrL6Og34LsPHUPbaRh7NbF2DJngTtsWqocf2gHxZsPKXbfoaopKf68AzrjsPhcDgczj+KZ6AATkP4Tn8En3/ANgqR8ssx/HghXXusGmqkhe+Ef/B53fYzRCU91YdnWHccDofD4XD+UTxjr0CoMGZ7PM6tHaDb5nA4HA6Hw+E8azzZAvjBYczv5455h+7rdgjk4L+LBqDfu4c0WyXpYVjn7YZW5jKYKGzQYcg8fJOYrzmGrO/xdt8JWL97DUY/ZwdTqRxW7T2w6FAK1NozgLx47JozEM5WCsgs2mDQ4hPIKPul4yx8/3ZvDF4ertvOQ/yuORjobAWFzAJtBi3GifKTGYW4fmgpvFyao5HUBErbjvCYtwcX83SHWXvnPp+MPu1sYCaTwcLeFaN9Q3G7RHe4ArknP8Cg3lOxM6XCwcJzWO3ZFzP3Vnki/ZfriVGSjrB13nBrZQ6ZiQI2HYZg3jeJ0PXAaJjuMvfPQl/vxVgyqiOszKzgslB4daIE6WHr4O3WCuYyEyhsOmDIvG9QOqy66JvD4XA4HA6nVoQ/hPHEUN+mr4ZbkqXXLrqr20X399E4WxV5brtFVBRH69xVZNnjTdp8NJKiz3xHq4Y7kWnbGXT0Pjv3bgB5KBTUyGkgLd4VRlGRh8jXozlJm02hg9lCYzl08h1nkjd5id77OozOhgWRTz87MpFIqc+6JKEBCvBQkO3kg8LJlHPyHXKWN6GX3vuaws6GUZBPP7IzkZC0zzrN8dwIH+pqakHPTdtER85EUmjgPOpjIyPHqQcoQ83E/eU/1NWsA00OOEnR8b/R8Y+9yF7WkqYfzdFcX4nMvTSmiZJ6r71Exbpd+afepjaN+tOn10r36PjL9VREcevcSWXZg97cfJQio8/Qd6uGk5NpW5qh6aChulPT7c2DSGZkSt3f3EUREcG0LzyDDWsduassqcebm+loZDSd+W4VDXcypbYzjpLQa530zeFwOBwOh1MLT7YAZmTuHUu2qmEUeJtVkIx7u98g6yZv0G5W6eWHziQHRU9afalCQXg3iEZZmdOwHRnawk4uI/cN10l7NVFB2Bxqo3iBfC+ya7JDaIKNktw/TiorMtWpW+lVc1kNBXA2hUywIaX7x5RUfjJtfdWcZJoiLpuCx1mTstdqSiwTR01pgcNIZTqANt1Q08MQb7Jq3Jd8f3uglac4mX7c6k8H4zVVZhX+pAOTm5G8x3KKLRK2c+nHGQ5k4bGFbpYOpgJ/qZ7yQ2mmg4J6ri4v1gXdBY2yIvNhOyijwbor0hTAcsUg8k8tlTCfQmc6kKLnaqo8rFFkZT6MhGHVTd8cDofD4XA4NfPE3wG2fM0bQ81OY/8P6SgpycAP+36C7FW2z1qNtJg43Cq+hC0ju6NLly7az8vLEZH3EFcSklAoNCBRoXVbu7J3N4xUKjSWFKOwkFCcHI/E7BZwcW0F49Ljtr3Rs52JbqsCxcmIT8xGCxdXtCo/Gb17toPm7OJriLuUi1a9+qJ16XHWq617H3RSX0bsxSIo+k/CRPtfscS1OVp2H4yJi75HtttoDO3cSHd+RRpj8FhP2MbtxzfRxUBuGPYe/hP9xoxAsxqs8FfqSZ0Wg7hbxbi0ZSS6l7bf5WUsj8jDwysJSMpruO4EJJYOcLDSSahOQ0zcLRRf2oKR3Uv77IKXl0cg7+EVJCQV1lHfHA6Hw+FwODXzxAtgNBqM8cOt8PP+g0i9dRD7TjeGp/crsGCHCgpY6WbeA94LfODjU/pZivUBO7D6X220xZXEGMZlRZUWie7/UayGmg3JpGK9K1FAIS87owLFUKuZAiqfDIVCrmuvEGpWp5pIKx4XujdhcpSgRE2sSh2CT89G49iW+fB0ysHZbQvxhpsLRgdeK3/XtgKm/b0xotUVhHwbiczQfThWMBhjhzWt2Qh/pZ4KCtjozdHDe0GF9n2wdH0Adqz+F9qYPALdabaNYVImVAG0w/LGggp9+ixdj4Adq/GvNqytOuqbw+FwOBwOpyaefAEMBfqOH4nmkQewMzAYPzcZgfH9zdh+YzRzsodpbh4senlj4sSJ2s/4IXBp0x7d2lqJCmvi0A5O8lu4mJDJyiwdBZdx5Qarxqpi4oB2TnLcupiAzPKTcfnKDVYaM9hxJ3sT3IyPx/0Ki6zyYuPwO1rC0ckY96K+xcb9t/H8tBUIOHAWSamx2PByDo4GHal5YZa8N8aNbI0bR4KwPug48Oo4DLXSHavGX6cn42ZOsDfNRZ5FL3iXtj9xPIa4tEH7bm1hJWuo7qS6PRUwbsauMUVungV6eZf2ORHjh7igTftuYMOqu745HA6Hw+FwauAvKIABmdt4jHY6g/Xr/4dWo7zRS67db+ExAV425/HJW374KbUAUN9B5IYpeKXfCPhG5GpP0ofla5gyyhIn17yDwAtZUOffwA8fLMe+WzVVR5Z4bcooWJ5cg3cCLyBLnY8bP3yA5ftu6YpCa3hOGArTUD/MDohCJqvs8q5+B59lwcjtORZvtJdCcvUAVs2eg5VHU1j5BxT/mYo/7hXCyt4eFjVqVoYXxr2BDtcCsf4HGV4bOxiNdUdq4i/Tk4UHJnjZ4Pwnb8Hvp1Q2NjXuRG7AlFf6YYRvBHIbrLsqj6Y1WMBjghdszn+Ct/x+gnZYkdgw5RX0G+GLiFwjEX0X4/KxAGzdf75CUc7hcDgcDodTA7p3gZ8wxXTR70WSS3vQsguaFWE61HQ33I88W5uRkZGMFHITkiha0qCloZQurHoSFncpm9G0Iw+1pzOKYpaSi9KFlsZo21HfDaMVg1uSwkhKMqmUrHtOJq8upjX+CgQ7mcJWDKaWCiOSyqQkte5Jk726kKnulwyEX2MIXfYK2SslZKwwJbmJglq4z6WQ6zqZi5Jo97RupDI2JkVjc1Ky/mzcZtP+5AqruKpSFE8rX5CRSevZdLJ8GLXwV+lJOB5Ofp6tyczIiGQKOZlIFNRy0FIK1XSgOaEButP+CoSy5Zt0PF97ugbWZrifJ7U2MyIjmYJdIyFFy0G0NDRdu+hNr76z6athcpKWLTLkcDgcDofDqRmJ8B9dLfz3QZ2F5Nh4pOTI0aJzN7SxkukOGEo+0hMvICnXBp2fbw2VyHPu/PREXEjKhU3n59G6hpOLM5MQczEdsOuAbm2tUVmaEuSkJiDu6gMY2Tije8emUOiO1EhJBr4a2REftT+C6LU9q7RVRx67ntTISo5FfEoO5C06o1sbq2ryNkx3NaPOSkZsfApy5C3QuVsbVB5WHfXN4XA4HA6HU4W/ZwH8lCJ8M/8w2hdDBh/B0PCfsbhTTa8CcDgcDofD4XAeJyLPRjmPjOIoLO1hDiu3j5D/79WYxYtfDofD4XA4nL8E/gSYw+FwOBwOh/NMwZ8AczgcDofD4XCeKXgBzOFwOBwOh8N5puAFMIfD4XA4HA7nmYIXwBwOh8PhcDicZwpeAHM4HA6Hw+Fwnil4AczhcDgcDofDeabgBTCHw+FwOBwO55mCF8AcDofD4XA4nGcKXgBzOBwOh8PhcJ4peAHM4XA4HA6Hw3mm4AUwh8PhcDgcDueZghfAHA6Hw+FwOJxnCl4AczgcDofD4XCeKXgBzOFwOBwOh8N5puAFMIfD4XA4HA7nmYIXwBwOh8PhcDicZwpeAHM4HA6Hw+Fwnil4AVxH1DcOYfW7czF3bk2f+fgsLJOdlYUI/wX4cP8V7UVPC3lnsXXBEuxJKNbtePLknd2KBUv26LYajvr6Qfgt2IhT90rYVh7Obl2AJXsStAf/6aiv46DfAmw8dU+34+lFff0AVr23EJvC7kCwpEBWhD8WfLhft/V3QI3rB/2wYOMp3faTROvby75NhL7oVf9xBGvfm4+Pj6fp9tSTrAj4L/gQ+6+odTs4TyV1zDFPLiYr5/JK/TZ0HnscefUpz9WPet5+VPACuI6ob/2Mrz8PxI+X7uDevXvVPn8+ZAm/JAcxIf7Yceqm7qqnhMIU/HLsR1xI/+smtcKUX3Dsxwu6rYajTgvHTv9gnH9AbKsQKb8cw48X0rUH/+mo0xC+0x/B5x/odvyzUV//Aq/aumBJdNWJKw8RnyzEujBjuPSw0SW1EuTEhMB/x19RbNaGGmnhO+EffF63/SR5iPgD/vgy9LqeArgQUf4+8D1eiG5udrp99aMkJwYh/jtw6uZfd7PMeQLUKcc8yZismMur9NvQeexx5NWnLFdX5VHP248KXgDXB0kTDPQJxK5du6p8duCDV210Jz2FqMZge/w5rB0g1+148qjGbEf8ubW6rUeNCmO2x+Pc2gG6bc7fCcrJwJ2c0ue7FVD/gTvW47E1aAVeaqzbx6k76lSkW4zC5j1rMNiKTw2cfzJ6cvnfYB571ni883b9efqyXEkGTn88GS+3t4WZ1BgmCms4D3gLQYkFuhP+DhQj5ehKjHFzgEouhdKmM17/4DBSdDekhdcPYamXC5o3ksJEaYuOHvOw52Ke9mDW93i77wSs370Go5+zg6lUDqv2Hlh0KAVl97PFKTi6cgzcHFSQS5Ww6fw6PjhcerwE6WHr4O3WCuYyEyhsOmDIvG+QmK85yNo/h88n90E7GzPIZBawdx0N39Db2q+Vhb57D8by8ELNqUxQHFrqBZfmjSA1UcK2owfm7bkIraRZ+P7tvpiwfjfWjH4OdqZSyK3aw2PRobJxitkqc/8s9PVejCWjOsLKzAouC08xEd5G78HLNceFu/zrh5bCy6U5GklNoLTtCI95e1CqqprIi9+FOQOdYaWQwaLNICw+kQHh2a8WQebeGLw8XLt17nNM7tMONmYyyCzs4TraF6G3tQWYIEffcauxfdlQOFvKIVc5oe/0AJzP0hzW0GA7lqQjbJ033FqZQ2aigE2HIZj3TSJKTVWNvHjsmjMQzlYKJm8bDFp8Ahnlg2OI2L4SJcjYOwN9hq1FlM7cgt/GfjISfaZ9rd00ZAxVKE45ipVj3OCgkkOqtEHn1z/AYZ1DlGScxseTX0Z7WzNIjZl81s4Y8FYQBHcoSQvCjElf4lJBEnZM6IPJgcnCBVr/6dQXU3w/xASXZnpjXa89BJj+vp49QKu/Ri3Ra7o/1s94CaM/i9ce1+vvNZGH+F1zMNDZCgoWS20GLcaJSgapiz0e4PD8fnCfdwj3dXsEcv67CAP6vYtDwk4D/IXuR2LtG93RVCnTxOPg+d8hudRY6luICw/FL1dLDV57nirJ2IsZfYZhbblzoDj2E4zsMw1f/1HDTYqI7vTFWjU0fjcOq7cvw1BnS8jlKjj1nY6ACsGn19aZ+zGrrzcWLxmFjlZmsHJZiFNVjajz7TU7lmNE5ybMfmZo2WsmvkmMR9DMvnBozOS0dMbQVeG4rxNTn/+yTrF/Vl94L16CUR2tYGblgoVCp/pydUPnsnqMwZAY0Ztj6pSz6p6/q1J7Pqmcyysh6KV0HjMkh+kdc8121e8LDFE91sH2uSfxwaDemLozRTtPayjEudWe6Dtzr267Itq5edzq7Vg21BmWcjlUTn0xPeA8OyJQi6+K2VaPL1eetw3wsycFPWXc3edNdop2NPaz4xQVF0eRhz4iL0cpqbx20T3dOQ2h4OwC6iBzotkn83V7akB9kz7rryTHWT/pdlSmIHoluTWyIJfpW+hE1Hk6GTCVupqpaIj/NaLcCPLpakoWz02jTUfOUGRoIM3rY0Myx6l0IEPNBhhAHgoFNXIaSIt3hVFU5CHy9WhO0mZT6GC2pnWKXulGjSxcaPqWExR1/iQFTO1KZqoh5H+tmIri1pG7ypJ6vLmZjkZG05nvVtFwJ1NqO+Mo3aci+uU/7NwOkyngZDTF/3acPvayJ1nL6XQ0hzWt6duWJh98yDZyKcKnK5laPEfTNh2hM5GhFDivD9nIHGnqgQxS010K8FCQopETDVy8i8KiIumQrwc1lzajKVpBRWylptubB5HMyJS6v7mLIiKCaV94BhPBgxS2kzXX50b4UFdTC3pu2iY6ciaSQgPnUR8bGTlOPUCCqqqRc5LecZZTk5feo6/DzlJYkA/1szMhibQPrUsqZidoZbadfJCo6Bf6T1cz6jA5gE5Gx9Nvxz8mL3sZtZx+lLSq8CC5TEFNmJ2+OHGGTu9ZTP3tpGT/fwe0ftZgOxZR3Dp3Uln2oDc3H6XI6DP03arh5GTalmYcvS+cUIUcOvmOM8mbvETvfR1GZ8OCyKefHZlIpNRnXZLmDP22r4qabn7Wn5SOs+inMlcvoJ/fdSZln3XaTdExVKEgmla6NSILl+m05UQUnT8ZQFOZjlVD/Ola8V3a521HinZj6bPjURQXx/zlIy9ylKrIaxfTaHYsHfAVtlvR8GUBdCDmvqj/lMqvQcwelE2hb+v0t/MURYbvpaUerZj/mVDHhZFCAyL+Xp2ck++Qs7wJvfTe1xR2NoyCfPqRnYmEpDr91dUet78aTpaWXrTrrm4XO2vfOFtSeW6jW2oxfxF8W04S46bUb2EQnY4+T8fWD6dW0qY06YDOWPlHaXoLJQ3ZkqHZ1Jen1Dc/o/5KR5pV7hxU8PO75KzUxlLl4yK6E4m1agh+J5eRoglr74sTdOb0Hlrc346k9v9HB4TgE7G1+vZmGiQzItPub9KuiAgK3hdePV9o+pCS0mEILQ85Q9Hhm2m0g5TMre3phX9vpdBfIilkYW9SKXrRmkva3KHXf9W3afMgGRmZdqc3d0VQRPA+Cs94qDdXN3guq+sYRGNELMeI+WDlmKxz/q6KSD4py+VVc4Emb+nmMdEcJjLmGu2aod8XDMjVdbN9Ju0d04SUvdeSxhUF8k/R220aUf9PWU1RDW0ukCmaMN1/QSfOnKY9i/uTndSe/k8IoBrHVCBiW/11R8V5W9zPnhxPWQGspvRze2jjjtMVAqiAwue2I8ULvnSx1DkagKYANjEiqcKUTE2rfCxH0S4haPQWwAUUNqcNybu9T+cLdLtYQPzkO56mfX6OsoPHkbWyF61OLBdWnRZIw1SmNGDTDVLrkr/7hutlk25B2Bxqo3iBfIUBFoTRnDZy6vb+edaTjpyfyHf8NPr8XBaFznQgRc/V5YHCuBs0iqzMh9EOlpBDvK2ocV9f+u2BtvXi5B9pq/9BihfGVTFxZAfTOGsl9VqdSGVNqdMocJiKTAdsohtqXZC5b6Dr5YIy2RT0gu9FtiFmK20BLFcMIv/UshMqBFI2BY+zJmWv1VSuKjWlBQ4jlekA2nSj/JpSskMmkI3SnT7WFLsCakrd+iqZy2oogB+GkLdVY+rr+xtpVVFMyT9uJf+D8axnrRxy+Yvkl1DeVto2T1KZv07b09UNt2N+KM10UFDP1ZfK9cvkCxplRebDdpC2RKlAdghNsFGS+8dJZeerU7fSq+YyXVLNF7G9bkcZBhbA+sZQBc0xeTd6v9zxmWv60vhpn9O5vHQ6t2cj7ThdoZgsCKe57bT+IrRWFLuceii70Qe/FbEtcf+pOOmJ2uP+NzSa2XuwP/u37jjd20vjbKXaAljU33X7ysimkAk2pHT/mMrdLZW2vmpOMo3+6moPRuZeGmuromGBt7Uy3ttNb1g3oTd2s4pY1F908fjSR+XyFJyh+e0V5LoyQbtdqQDWn6fqVACL6S5Xf6xVQ+N3cnrRL6GsPXXaNvJUmdPr29MpS8TWRUIBLFfQIP/UcltXRefbQuxoW8mnEzPsSeowg04I9/8MddrnNFDRjKYdZjvUIv6rKSrkpBjkT2XpTG+uzmv4XFbHMYjGiFiOEfXBijFZ9/xdFb35JL8OBbC+HCY25prsKuYLorm67nXMnwcmUzN5D1oeK+RGVmP+OIMcLDxoy82a9KjNBfIX/ah8+kqjbZ4qMn99O6UX1TAmMdvq9eV8pubyAljUz3T7ngRP2SsQRrB1G4OJrlkIWe2DWZNGYpBrJwz3T4K6pAQllb4ObgBGzTDy0//ip59+qvw5vgpDTHXn1EZJJhIupsLieTd0lun2wQwD3g/Ctreex7W4S8ht1Qt9WxvrjrHubN3Rp5Mal2MvokjYIVGhdVs7NlotRioVGkuKUVhIrPkEXEy1wPNunVHe/AC8H7QNb/W4h5i4Wyi+tAUju3dBly7az8vLI5D38AoSkozQf9JE2P+6BK7NW6L74IlY9H023EYPRedGurZ0FF+Lw6XcVujVtzXKJDWyhXufTlBfjsVFraBQtW4Lu3JBoWosQXGh8LWpYbaSWDrAoab3EYuvIe5SLlr16otyVbE23fugk/oyYrUCVKAYyfGJyG7hAtdWpRew83v3RDsT3WZFFP0xaaI9fl3iiuYtu2PwxEX4PtsNo4d2RqkqjJ3c0a9thbZ6uqFt4SXEX8lvsB3VaTGIu1WMS1tGorvOTl26vIzlEXl4eCUBSeXfPGsoTo5HYnYLuLi2KrOHkW1v9CwdnDpNxPZVGjQUPWOoTAkyEy4i1eJ5uJU7PnPN9xG07S24KW3hNmYiXLNCsNpnFiaNHATXTsPhn6RGCfOH6qFbl1gvFrXHw99jkZjngBfcmpeNBape6NlZqvmnYf5egeJkxCdmo4WLK8rdzRa9e7aDxiL1sYfla/AeaobT+39AOhtjxg/78JPsVbbP2kB/YfHYxhktyuQxh3kjCQryH+p2VEBvnnLTbRuGqO6MxWOtGsZOcO/XtoKv94Rb20Jcir+I3w2KPUs4OFiV27omJOZo49xC14cEpo2UMGnmgFZal4CRqSmUEjWKhe942XjE/VcCSwcHlKYzvbnaTflo5jKDx2BAjIjkmDrlrDrn76qI5JO6vN6rJ4eJ5lUNle0q5gtFom3WJbdpaTx4LDxt47D/m2iW7XIRtvcw/uw3BiOa1ebhxnBy74fy6csWPd3aovBSPK5o1q1WHpOYba/c1ufLFY0h7mdiln+U1KadfyglSAueClfXf+HDkBhkylvDfcoKLBtt/4gHKoON8wvo2bNn5Y9be9iIdlSkSZgmxlLmYtUpZIkIJlLtJFmKxBgmbEdJiVqbSNm2cbnvaChrq6gYana1sbSm1gtQwJKQeQ9vLPDxgU/pZ+l6BOxYjX+1MYHlkE9xNvoYtsz3hFPOWWxb+AbcXEYj8FrZG1FaClnSZP1IKwsKY62gUGsFZXLWJqhhtpKw601qGgoKoVVVJQHY+SZMKpYktAJUoljNxmAkHC9HolBAXmP7lhjy6VlEH9uC+Z5OyDm7DQvfcIPL6ECUqkKiUEJZUVjWtzGzEBt+w+1YUMBGaI4e3gvK7cQ+S9cHYMfqf4GZqjLMqdRMc0L7ZUgUUJQNTtz2NVJFjSUs+1bapW8MVSjSOj5qdM2SNARPdYXrvz5ESEwm5K3dMWXFMoy2ry2g6hbrBtlDY7ta3js1yN8rwuJQ424VL5BAoZDr9FMfezTC4PHDYfXzfhxMvYWD+06jsac3XrFghwzyF5281agmPEN/ntJSzTlANTUlqjvxWKsG821l5eATXAvE2jM49mpOLOVIpJDqCsUyJExu3T8rYZD/CvnQpFyfenP1I5rL6jAGUb2J5Zg65ay65++q6M0ndUFfDhPNqwJV7CrmC6Jt1sP2pv3hPaIVroR8i8jMUOw7VoDBY4ehaa0XsFykVFZqz1gbQKx3gSpjErMt6fPlyhiWi58MdYqlvz0lNxG8eS/uDtiIqPP/xbdfrsfS2Z5oWvSnEFI6w/7FGFnD0d4cmUmXUb7GoxiJ22Zi/LLjcHCyh8nNeMSXrkoQyItF3O9AS0cnVM1lVTGydoS9eSaSLusWrgkUJ2LbzPFYdkwCJ3tT5OZZoJf3REycqP2MH+KCNu27oa3qPqK+3Yj9t5/HtBUBOHA2CamxG/ByzlEEHbmta0yLiYMT7E1uIj7+fgW95iFWKyicxARtqK1MHNhYTHAzPr5sAYdAXmwcfkdLOFYTwAQO7Zwgv3URCZnlFxRcvoIbLB6rUnIvCt9u3I/bz0/DioADOJuUitgNLyPnaBCO6AynTrmESzmaf2rIYbJcM26N9u0UDbajcTOmX9Nc5Fn0grfOThMnjscQlzZo361t+dMGHSYO7eAkv4WLCZnluiu4jCulgzNupt/2NTxlF25eqLAAD8syUiFu374rbpsaMYK1oz3MM5NwucLipuLEbZg5fhkO/boXm/fexYCNUTj/32/x5fqlmO3ZFEV/snNLi1I2cZdRJ/9hthexh7JdV3RU3sD5qApx82cUohK1zyPq7O/MP9s5yXHrYgLK3a0Al6/cYNHOqIc9BBR9x2Nk80gc2BmI4J+bYMT4/jBj++vqL6LozVOHBeeAMRWioNw5UHj7Nu5WUG8pYrpzYHoWi7VqqFNwqXLwIf6aMVq374jWDYy9+lByM1jcf6ugN1cf+vUJz2UGxIhIjqmTD9Y5f1dFfz45fOvRaEg0r9aAmC+ItlmvuVGO3uNGovWNIwhaH4TjeBXjhlrpjtWEGimXLqE8gnJYfF6Dcev2NX4jKmbbJjZ6fPnwLd0OAXE/exzxWRt1TYt/c4SnDBIU3klG8gOmXPU9/Lp9Dlb88IA5WIF2tWLxZRwL2Ir954U/WFFfipB18xISEhKqfC4i8Y8KPwNQI6boP3YE7CI3YfHOBGSzgMhO2Inlq77Cr9kWsPacgKGmofCbHYCoTBYQeVfxnc8yBOf2xNg32tf89KEi7E5w7Ag7RG5ajJ0J2SzespGwczlWffUrsi0c4DHBCzbnP8Fbfj8htYCp6E4kNkx5Bf1G+CLioQRXD6zC7DkrcTRFWG1ajD9T/8C9QivY2wuPmSpg7YkJQ00R6jcbAVGZ7Mw8XP3OB8uCc9Fz7BtoLyqoAbbSizU8JwyFaagfZgdEQauq7+CzLBi5PcfijRoEsHxtCkZZnsSadwJxIUuN/Bs/4IPl+1BTrjSSXMWBVbMxZ+VRaFXxJ1L/uIdCK3vYW2jDhu4fhp9PMK7kqZF7eS/mrzgIicdEjGC33Q22o4UHJnjZ4Pwnb8Hvp1RWOqlxJ3IDprzSDyN8I5CrO60My9cwZZQlTq55B4EXsqDOv4EfPliOfWWDs9Bv+2oNGkHl4ADLu6ew71Cy8LwSKcdXYsOxrHrfoZv2H4sRdpHYtHgnErJZIs9OwM7lq/DVr9mwsJbDRFKIO8nJ0LrDr9g+ZwW07qD1BolMDhnl4MEDYaKom/+I2kPliRkTmiNixQQs/Ookzpzehw8nvou96aStu+vs75Z4bcooWJ5cg3cCLyBLnY8bP3yA5ftu6SaIutpDh8wN40c74cz69fhfq1Hw7qX7erGu/iKK/jxlpHKAg+VdnNp3CMlM9oKU41i54RiyanIOEd11NBGPtWrQfRz280HwlTyocy9j7/wVOCjxwMQRTWHT0NirD8ITLRH/rYbeXG0t7t/5F3E4IADfx4jNOYYhGiNiOaZOPmhI/s7HxcMBCPg+RvfrBJXRm08sH1FpI5pXa0DMF0TbrN/cKHthHN7ocA2B63+A7LWxGKz3JyEJ9w/7wSf4CvLUubi8dz5WHJTAY+KImp8ai9lWry9b6hrRIj43FuPysQBs3X++wsODx4TuXeCnBDXdC11ML1qZkJHMjBopZGTVfTz5LfIglWo47UhXE2V/RcPkUuqxPFZ3Td3QLoLT1AA1fCRkNnI3E0P/r0CQOpMiVg8lR6UxyUyVJDVi5w5dS//TLP1W0+3QZfSKvZIkxgoylZuQooU7zQ25TprX24WX9pXNaNoR3SoGRlHMUnJRutDSGO0L8OrMCFo91JGUxjIyVUrJSOlIQ9f+T7uyXH2Xwv08qbWZEdORguQmElK0HERLQ9M1L58XJe2mad1UZMz6bmzOZJPakNvs/ZQsvK9ecfGA0NTtUFr2ij0pJcakMJWTiaIFuc8NoetaQSnAQ0nNph2hMkmLYmipi5JclsawDTFbFWkWwSlbvknHy9fZVHqZXliAELrsFbJXSshYYcrGoqAW7nMpRCtADajpbtgKGtxSQUZSGRubNfWc7EVdTGtYBMe0nbR7GnVTGbO2G5M506PUxo1m70/WLALQyGH5Ir3m3oxkQltGcmrRbxEdSSt9hf8R2PFuOPl5tiYzIyOSKZh+JQpqOWgphQp+XAPqu2G0YnBLUhhJmUxSsu45mby6mOoWVmhO0Gv7ahTE05aRrUlpxGQ3ZWNw9KQls14is4qL4ETGUBk1ZUaspqGOSjKWmZJSakRKx6G0VnB89T0KXfwiWZmwsZo1IoXMirqP96NFHipSDd9BmiE/PEVzneVkLG9MXeeHifpPpYUvYvYQyI2jr2a8TK1VcpI2akFuE+bQSNZf1/fPaw7r9/caYPoOWzGYWiqMSCpj/mPdkyZ7dSHTUv3V1R46ii/60YtCDlt2oVx2hn5/qSke4+nDHko2vijtdpVfgdCfpwoofstIaq00YnowZfpwJM8ls+gls5p+BUJMd/pjrRqaPGRJL77mTs2YXmXMj+Qt+tGiI2k6vem3teZXIJQt6c2KiaUq1Xy7gP43vz0pe62h30uFehBInkpdPhTzX83CIiW1fPM4Vey19lxtwFyWsYWGMD/oteZ3XWtVqOsYDIgRsRyj3werLEYTzd8ZtGUIi8WK8lZCTz6plMtFFsGJ5mE9Y9YsgqtiVwNymX49GmD7Gimi+JUvkMykNc0+WT6e6mh1Y/nia+TejM1dLIaM5C2o36IjpJm+ahoTQ2w+0ld3VJq3Rf0sm74axuzeYznFlrrCY0Ii/IcVb08VJdk3cOHCDeSr2qJ7l+YQW5f2V1GceRUxCWlQ23aAS3ub8pfHBYozkRRzEemwQ4dubWFd6aAhFCPzagwS0tSw7eCC9jaVG1BnJSM2PgU58hbo3K0NrCoeLslBakIcrj4wgo1zd3RsqtAdqAnWT1IMLqYDdh26oW0dBX0UtirOTEKMVgB0a2tdWY81kZ+OxAtJyLXpjOdbq/R+DVKSk4qEuKt4YGQD5+4dUaqKe1++ilbLWmB/0qfocjkWt+St0b2THappqsF2VCMrORbxKTmQt+iMbm2sRMaXj/TEC0jKtUHn51tDVcPg9Nq+GoW4czkal+83RjuXTmj6KH47nunkakwC0tS26ODSHuWuWYLsGxdw4UY+VG27o0vz6t5Qkp2M6At/oKRFN7zgZFF3/6nNHiXpiI+8BYtuz6FV6cqrgpOY3WEo4t+5jLC59rqddff3/PREXEjKhU3n59G6BoPUzR5i1NVfxNGXpwrvXEb05fto3M4FnUSdQ7/uaou1atz7Eq+2WoYW+5PwaZfLiL0lR+vunWBX9fwGx15dEfffmqk9V+v37xJkbB2Jf2MrDv6/prp9jwBRvYnlmLr5oL78XZKxFSP/DWz9/v/V/j5rrfnkUSKeVytjiC/ob7PucyPzh69GouNH7XEkei161qqHe/jy1VZY1mI/kj7tgsuxtyBv3R2dqgVQTYjZVn/dUYknHp/VeSoLYA7ncVNWAF/bhtcMyRucvzfF0Vji2gu7uwbixFZvtJHfQ9RnkzDsP2n4989R+LBHDS/Gcf4aygrga9j2LAdf/lks996BDhu3YGwr0YrsH0g+zi73xo4OG7FlbKun7X3NR4vwqsDDaPgOGYwjQ8Px8+JOel71KS+Ar217rfpDm2cI7lMcTj2QSIxgbCTRvh/K+edj0h2z17wLh1NT4awyRSMzO/T+8Ab6rd+Ghbz4/XvBgs7I2Ij93zMefIoXsXR/wFNa/Aoo8OLS/Qjgxa8IxYha2gPmVm74KP/fWD1LX/ErwOYtI2MYsfh51qcv/gSYw+FwSim+j+SLvyO9yByOHTugqaHfYnM4HM5fhDrrBi5ez4ddp8f1CsjTCS+AORwOh8PhcDjPFPybBQ6Hw+FwOBzOMwUvgDkcDofD4XA4zxS8AOZwOBwOh8PhPFPwApjD4XA4HA6H80zBC2AOh8PhcDgczjMFL4A5HA6Hw+FwOM8UvADmcDgcDofD4TxT8AKYw+FwOBwOh/NMwQtgDofD4XA4HM4zBS+AORwOh8PhcDjPFLwA5nA4HA6Hw+E8U/ACmMPhcDgcDofzTMELYA6Hw+FwOBzOMwUvgDkcDofD4XA4zxS8AOZwOBwOh8PhPFPwApjD4XA4HA6H80zBC2AOh8PhcDgczjPFU1cA5/zvCyxY9i0Si3U7HhMlWYk4/NkCTBk5BP3dB8BzwnvY+N9ryNcdrxfq6zjotwAbT93T7Xj6UF8/CL8FG3HqXoluT0PIQoT/Any4/4pu+5+OGtcP+mHBxlO6bRGyIuC/4EPsv6LW7XiSVJY17+xWLFiyR/Pvvx9106v6+gGsem8hNoXdQX299NH6+WMk7yy2LliCPQmPOWH+FVTKp3k4u3UBluxJ0B7TxxPWSVaEPxZ8uF+39bgpQcbJTVh38DqLCoECpMQl4lG56WPNA8/A/PjPpw5xpqMgJQ6Jf1GefMoK4BLkxn6Hz78MxfXHmLsK4gPwr+d7YLx/PBRdB8Nr1CvopD6NVa+/gEErfmZlWT1RpyF8pz+Czz/Q7Xj6UKeFY6d/MM4/IN2eBlCSg5gQf+w4dVO345+OGmnhO+EffF63rZ+SnBiE+O/AqZt/RfFSWdbClF9w7McLmn///aiLXvMQ8clCrAszhksPm3onyEfq54+TwhT8cuxHXEj/K26iHjOV8mkhUn45hh8vpGuP6eOJ6qQEOTEh8N9h4E1vAym5HYL3Zn0HI2d7GAs3hl+MgOukPUh5RPXHY80Dz8D8+M+nDnHGUF//AiNcJ2HPo3LAOsJfgagrhefhN3kefmr5Pk6cP4YtK+ZjzjuLsO6bn3Hiw86I85uJNecKdSdzOM8GqjHbEX9urW7rH4z6D9yxHo+tQSvwUmPdvqcZ1Rhsjz+HtQPkuh1PKyqM2R6Pc2sH6Lb18NTqJBdhq5bg7Ms+mNHRmG0TcjLuIOcR1h5PTR7g1JM6xBmDcjJw51E6YB15OgtgysT/fD3R3lIGmbkjXpoegOhs3bEGkvvfzfgyrgWm+M6HW6UJUoHub6/GmnfHoru8gG2XIOP0x5j8cnvYmklhbKKAtfMAvBWUCOGohrx47JozEM5WCsgs2mDQ4hPIqPDAqCTjND6e/DLa25pBamwChbUzBrwVhMSyBvTB+t87A32GrUVUWT1ejNhPRqLPtK81W1nfv42+E9Zj95rReM7OFFK5Fdp7LMKhlPInH4XXD2GplwuaN5LCRGmLjh7zsOdinu6oOHnxuzBnoDOsFDJYtBmExScyWNqtQEk6wtZ5w62VOWRMRzYdhmDeN4n1fJWkENcPLYWXS3M0kppAadsRHvP2oFzcLJz7fDL6tLOBmYzJY++K0b6huG1Q/GXh+7f7YsKaHVg+ojOasPGYteyFmUzW+KCZ6OvQGDKZJZyHrkL4fV2DhddxaKkXXJo3gtRECduOHpi35yLKtZeH+F1zMNDZCgqZBdoMWowTFR2A2TA9bB283VrBXMbsb9MBQ+Z9g8RalCNmq6xzn2Nyn3awMWNxYWEP19G+CDVs8Az9sgq+1Hvw8tItPXrW6nHc6u1YNtQZlnI5VE59MT3gfIVvTvTbUdxvRfSauR+z+npj8ZJR6GhlBiuXhTjFEvHpjyfj5U59WWx/iAkuzeA84C0EGRZsj9fPRfxIo49xq7F92VA4W8ohVzmhL8t558sUWoyUoysxxs0BKrkUSpvOeP2Dw9CoK+t7vN17MJaH65KE3r50MbB+N9aMfg52plLIrdrDY9EhbVsaRHw26xw+n9wH7WzMWLxYwN51NHxDb7OrxGhoPhVk743By8N1209OJ3XN4yXpYVjn7YZW5jKYKGzQYcg8fFOuwHrnsJK0b7BhjzFG/d8ANGL6TAuagUlfXkJB0g5M6DMZgclqEVnFY7c8D5Qgddd09HR1hWuVT8/JgWBdietFZH4Uza/19jVxG4jHgR6KU3B05Ri4Oagglyph0/l1fHA4BUz7onO2gF7ZasptTCENncfLEGKj7zis3r4MQ50tIZer4NR3OgLKkk3lONOXq0vSgjBj0pe4VJCEHRP6YHLgNfHx68vd7W1hJjVmOrE2PHfTU4Wabm8eRDKJMVm6zqIvQ89S+J7F1L+plBynH6ZM3Vn1p4AifTqR1GYifZ+r21Ubd/eRt52C2o39jI5HxVFc5CH6yMuRpCov2nVPOCGHTr7jTPImL9F7X4fR2bAg8ulnRyYSKfVZlyQ0QPu87UjRbix9djyK4uIi6dBHXuQoVZGXtgER1HTzs/6kdJxFP+XrdjH5f37XmZR91mm27gZ4kELRiJwGLqZdYVEUeciXPJpLqdmUg5rjlBtBPl1NyeK5abTpyBmKDA2keX1sSOY4lQ5kqLXn6CPnJL3jLKcmL71HX4edpbAgH+pnZ0ISaR9al1TMTiiiuHXupLLsQW9uPkqR0Wfou1XDycm0Lc04el/bhj7UN+mz/kpynPWTZjM3woe6mlrQc9M20ZEzkRQaOI/62MjIceoBEsQt+uU/1NWsA00OOEnR8b/R8Y+9yF7WkqYfzdFcr5+7FOAhJ6nSgYYsD6Ez0eG0ebQDSc2tyf6Ff9PW0F8oMmQh9VYpqNeaS+z8XIrw6UqmFs/RtE1H6ExkKAXO60M2MkeaeiCDWUdQzzvkLG9CL733NYWdDaMgn35kZyIhqc4+RXHryF1lST3e3ExHI6PpzHeraLiTKbWdcZQE7ahvfkb9lY40SzCwmK2KfqH/dDWjDpMD6GR0PP12/GPyspdRy+lHmSeKIyarxpdsJ2v+rV/PWj3KFE2Ynb6gE2dO057F/clOak//d0Dr12J2FPNbMVnVtzfTIJkRmXZ/k3ZFRFDwvnC69K032Sna0djPjlNUXBxr8yPycpSSymsXiUbbY/VzcT8S9CGXKagJs/0XJ87QaSHn2UnJ/v8OaGQviF5Jbo0syGX6FjoRdZ5OBkxl9lHREP9rwsXkobClyQcfGtCXYDsFKRo50cDFuygsiuUkXw9qLm1GUw5mC8KK+GwR/fKfrmTWYTIFnIym+N+O08de9iRrOZ1EQ/AR5FNBdtvJWh95cjoRy+PleVpDURytc1eRZY83afPRSIo+8x2tGu5Epm1nkOAq9c9hrB//wdTY6S06qZsPsmMPkK+gw1bDaVnAAYq5LyareOxWzAN/xh6i7QEBFKD7fLF0GNlLzcjF5zT9KaoXMXuK2aUBviZig1Jf0hcHtVNA0SvdqJGFC03fcoKizp+kgKlMTtUQ8r9WKDpni8lWU27LyG7gPF4RITbkMlI0YXr/4gSdOb2HFve3I6n9/5HWBSrHmd5cnR1LB3wFm7ei4csC6EDMPdHxP+rc/VQWwHLFS/TRZWHi0e5L3foqmbNE+bWYNkR5SIenNSNpx4UUWaDbVQvq9HO0Z+MOOl3BwQrC51I7xQvke5HJlh1CE2yU5P5xEpVJmrqVXjWXaQNcnU7n9mykHae1k5yGgnCa205BL/heLLumdgwrgOUyd9pwvbSHAgqb04YUL/hqtrKDx5G1shetTizvTZ0WSMNUpjRg041yuWohO2QC2Sjd6WNNESCgs4VMVxjkh9JMBwX1XH2pwnjuUtAoKzIftoMydHtqpVIBnE3B46xJ2Ws1lYurprTAYaQyHUCbbqjpYYg3WTXuS76/PdDKXpxMP271p4PxYklLQJf8me5Kh5N/YgZL6A4044QwUTLUafT5QAU1m3ZYUB6Ns1ZSr9WJ5WNjxwOHqch0wCa6oc6mkAk2pHT/uKw95gC09VVzTR+sdQqd6UCKnqvpUrly6G7QKLIyH0Y7mHIqFsCitnoYQt5Wjamv72/0QDt4Sv5xK/kfjGeaE0NMVl2i0018+vWs1aP8RT9KKGsrjbZ5qsj89e2UzvQiZkf9fisuqyaJyhU0yD9VKx/7b/q5PbRxx2lNga2lgMLnttO0KYSrPh6rn4v6kVb3cvmL5FeuUErb5kkq89dpe/pDjW7k3d6n82U5K4d+8h1P0z4/J1xcXuyJ9qWLAfcNVK76MJrTRpuTxH32IYV4W1Hjvr70m9YJmWv8SFv9D5JYCDY4n1aamLX+8kR0IprHKxfA+aEzyUHRk1ZXViCNsjKnYSzo65/DcilkvDWZvvol00QpRRS7vAcpu31AvxWxTVFZxWJXUF15HqiIOuM4ze1uTi1HBlKSIX2J2VPULvX3NTEbaH1JXxzoQXOenLq9f555oY6cn8h3/DT6/Fye6JwtJlv13CaoqmHzeCU0BbCcXvRLKLdL2jbyVJnT69vTWVsV40zrD/pqjKLY5dRD2Y0+0DqgYQXwI8zdT+UrEMYOPdHHUXjHScAIti++gDb5iYi7UvZcvZ5IYGaqBArzRb+6NLJ1w5iJrsgKWQ2fWZMwcpArOg33R5K6BCUlhOLkeCRmt4CLayuUSWrbGz3bmZRuwG3MRLhmhWC1zyxMGjkIrp2Gwz9Jza4vqfz1agOQqFqjrV2pGxhBpWoMSbGgp2Jci7uE3Fa90Ld1qYSCWO7o00mNy7EXUaTbVzPFSI5PRHYLF7i2qmCL3j1ROkR1WgzibhXj0paR6N6lC7poPi9jeUQeHl5JQFJdzFV8DXGXctGqV1+Ui8v6c++DTurLiL1YBEX/SZho/yuWuDZHy+6DMXHR98h2G42hnRvpzhdDAvM2zmiha19i2ghKk2ZwaCXV7jAyhalSAnWxmokTh0u5rdCrb+sy+wo2de/TCerLsbj4MBnxidlo4eKKcvXYonfPdtCoR52GmLhbKL60BSO7l+qmC15eHoG8h1eQUEk5BthK0R+TJtrj1yWuaN6yOwZPXITvs90wemhniI6+WETWKojr2RhO7v3QtkJbPd3aovBSPK7ki9tRoFa/NVRWiSUcHKzYlQKsfbcxmOiahZDVPpg1aSQGuXbCcP8kqFmssXDVw+P1c1E/0gWhsZM7+pUrFLY93dC28BLiL2Ug4WIqLJ53Q2eZ7jDMMOD9IGx7y023rcWwviRQtW6LctWroGosQXEhG4Sozxqh/6SJsP91CVybt0T3wROx6PtsuI0eCrEQbHA+rUhJ5pPTCTvX8DyuRlpMHG4VX8KWkd3L9Nfl5eWIyHuIKwlJMKpvDiu5i5SbOTC3s2MjrQWDZNUTu7Wtxc27gE+9J+Er+Tv4JvD/0EYwiUhfRSL2FLeLop6+Jm4DbbjqsbkeSjITcDHVAs+7dUa56w3A+0Hb8Jab2DvnBspWKbc1dB6vAWMnuPdrW8EuPeHWthCX4q+w3qpTe41RTx5Z7haufhqRyiCtODITE81AqcFVoxQduzhDmpqA+Ds1vEmkTkbIysX49L83UJIWjKmurvjXhyGIyZSjtfsUrFg2GvalcrEiSc2kYqKVI1FAIZdo/12ShuCprnD914cIicmEvLU7pqxYhtFlDRhIlTELk0XFXRJj4/IEokHXP6NQzdzZRFqlcDDWyFxSohYtwovVauZhJpWulygUKB0iCgpYwJqjh/cC+Pj4lH2Wrg/AjtX/0iZKgylkhacgbuWLJMZC/ywQ1ExayyH49Gw0jm2ZD0+nHJzdthBvuLlgdOA1ZgtDkEAq1RW7ZUgElVSnkBXBrOfK4khgrFUe1FQMrXoqaQcKhVxngQIUsBxh3sMbCyroxmfpegTsWI1/VVGOuK0sMeTTs4g+tgXzPZ2Qc3YbFr7hBpfRgbgmOngxWasgqmd2rVJZKfkYmzAlErOTIXbUbNfmtwbKynRjbFK6pwRpwVPh6vovfBgSg0x5a7hPWYFlo+0NSpCP1c9F/Ui3R6GEsrJCmX6InVIkpBqYGEsrj78mDOqLbTPdV6KsYXGftRzyKc5GH8OW+Z5wyjmLbQvfgJvLaASKOGGD82klnqBO6pjHC7QKhPeCCvrzWYr1ATuw+l9tYFLfHEZFKCpm+UtWS8wKGCSrvtitgZI/EDzrDSy9Ogib9y3DSxal+0X6ErOnAXapr6+J2kBzlr440EMRy0+sBWOpnpN1MV1KxTnbINkq5TZBVQ2bx6vB7KCsnGxYLAkuUPPb1fpqjBrRM34NjzB3G3LOPw516hX8nqPbYGTHxSHZxAnOdauoasAINq964WX5WQTtTNDebVWgIGYH/FZ9jsO/q3EzeDP23h2AjVHn8d9vv8T6pbPh2bQIfzIfEfzExKEdnOS3cDEhszxxFFzGlRvMWRklN4Oxee9dDNgYhfP//RZfrl+K2Z5NUVTagAEIAUqFBXhY5j2FuH37bs2JqhomcHCyh8nNeMSXLuoSyItF3O9AS0cnVC0FK8Oub+cE+a2LSMgsv77g8hXohgjjZk6wN81FnkUveE+ciImaz3gMcWmD9t3awqou3mniACd7E9yMj0dlcePwO1rC0ckY96K+xcb9t/H8tBUIOHAWSamx2PByDo4GHTFwIZzhmDiwsZncRHz8/Qr6zkOsVnlwUjqgnZMcty4moFw9Bbh85QZL7AzjZmw8psjNs0Av71LdTMT4IS5o074b2lZSjritjO9F4duN+3H7+WlYEXAAZ5NSEbvhZeQcDcIRscEz3eqVtRIlBuhZjZRLl1AeojlMT9dg3Lo92inE7Kjf6+omq46SmwjevBd3B2xE1Pn/4tsv12PpbE80LfqTjaaWib2Mx+vnon6kU4c65RIuVch5OUx/14xbo337pnC0N0dm0uUKPl6MxG0zMX7ZYd22FkP7qhUxn1XdR9S3G7H/9vOYtiIAB84mITV2A17OOYqgI7d1jdRESYPzaSWMrJ+YTuqWx43RjMWxaW4eLHp5l+lv4vghcGnTHt3aqnC/vjnM2ApNmKNl379fqVCWVKhFDJNVT+xWm16z8PPy0XjzUDMs/jYA4xzKyyCxvsTsKWoX43v19DUxG5Q+eawfRtaOsDfPRNLlCovxihOxbeZ4LDt8S2TOro9sDZ3Ha0CdgkuVkw3irxmjdfuavxHUS0UHZNS5ZmlQ7n5KC2B6cASr/3MAyfklyLkYhHdXHIb0tYkY1oQNt/gyjgVsxf7zmbqz64ZRqwlYNrcLEla9gQnrj+NKtqDiAqT+/Dn+b/x6XOowC0unOGqeYEkK7yA5+QEzghr3ft2OOSt+wAPhKYnw/oTla5gyyhIn17yDwAtZUOffwA8fLMe+WzqTCXdskkLcSU7GA7ZLfe9XbJ+zAj88YL1pGhDDCCoHB1jePYV9h5KFXpFyfCU2HMsy+I7P2nMChpqGwm92AKIyWeLJu4rvfJYhOLcnxr7RvspdXXUsX5uCUZYnseadQFzIUiP/xg/4YPk+lA4RFh6Y4GWD85+8Bb+fUpmEatyJ3IApr/TDCN8I5OpOMwxreE4YCtNQP8wOiIJW3O/gsywYuT3H4o32UkiuHsCq2XOw8mgK64u5wp+p+ONeIazs7WHxqCPB2hMThpoi1G82AqIy2fSah6vf+WBZcC56jn0D7Y0t8dqUUbA8uQbvBF5AljofN374AMv33dIFrQU8JnjB5vwneMvvJ6QygdV3IrFhyivoN8IXEVWUI2YrqeQqDqyajTkrjyJFO3ik/nEPhVb2sBcdvJisFTEyQM+E+4f94BN8BXnqXFzeOx8rDkrgMXEEmrLiRL8dRb2uDrKWIjxJkqDwTjKStcGGX7fPwQptsIm+7vRY/VzUj7Sn0f3D8PMJxpU8NXIv78X8FQch8ZiIEU0bof/YEbCL3ITF7KY9mxUX2Qk7sXzVV/g1u/RxnA4D+6odEZ99KMHVA6swe85KHNU6If5M/QP3Cq1gb19Flio0OJ9WwvTJ6aSOedzCYwK8bM7jk7f88JNWgYjcMAWv9BsB34iHDchhjdGN3WwVJF3EVW0NyZBAJpeBch7ggbDPIFn1xa7uFA3FuPzlZIxdl4p+y1ZiuFkyEhIStJ/EFDwwEulLzJ5idpHW39f026Bus1I1TPtj7Ag7RG5ajJ0J2azWz0bCzuVY9dWvyLawFp2z6yOb+Dyej4uHAxDwfQzKf4lHD3Qfh/18EHwlD+rcy9g7fwUOSjwwcUTTOheUEpkcMsrBA40D1qdmaVjufioXwZm2G0aT+zcjuUJBUiMp2bn/h47f0r0hnf0VDZNLqcfyWO12fVCnUehKL+qkkpLEWE6NzGRkbNyY2rz6Pv1wQ/vWtfpeKC1+0YpMjGRk1khBMqvuNN5vEXmoVDR8h/CyODvnbhitGNySFExGmVRK1j0nk1cXU90iuHsUuvhFsjIxIplZI1LIrKj7eD9a5KEi1fAdmgUHohTE05aRrUlpZEIKUwWZOnrSklkvkVmFhUvKZtPoiG4Nl7AoImapCyldluq2mT5Dl9Er9ko2Tna9nLXTwp3mhlxnZxqCmu6GraDBLRVkJJWRVGpNPSd7URfT0tXxgg7Cyc+zNZkZsXEq5GQiUVDLQUsp1JABVvkVCFLfptBlr5C9UkLGClOSmyiohftcCrmuk7YoiXZP60YqY2NSNDYnJdO5jdts2p8s8qa8BuHlfiU1m3aEStVV8L/51F7Zi9b8Xnr9Awr0VJYtAFDfDqVlr9iTUsL6M2VjU7Qg97khVCoOGzyFrRhMLRVGJJVJSWrdkyZ7dSFTnX2E4+F+ntTazIiMZAo2HgkpWg6ipaE6/6n4KxCitiqipN3TqJvKmOmmMZkrWX82bjR7f3L5IhJ9iMhaafGLXj1rF0lYvvgauTdjPsHaMpK3oH6LjlBaqclF7CjqtyKyahZSKFvSm8dLV1qo6V7oYnrRyoTp2YwaKWRk1X08+S3yIJVqOO0Q9cXH6+difqTRveWL9Jp7M5ZHWP9GcmrRbxEdKVWoOpMiVg8lR6UxyUyV7DiLmaFr6X/CivZKv3gg1lf1GKCiGFrqoiSXpTHabRGfLUraTdO6qVi+VFBjcyaL1IbcZu8nsRBscD7V+V1pbD4xnYjm8Sq/AiH4UrgfebY2IyM2VgWLY4miJQ1aGqrN+Q3IYQVn5lOHRgPoM2HlpI6Hp+aSs9yY5I270vywWyKyisduWR5gc+TnA2VC3VL9I/ekwEzx+U2/PcXsUn9fE7WBIXGgB3VmBK0e6khKYxmZsjxsxHL40LX/0/yyj9icLSZb9dwmIDY3ZNCWIXKS9lpDZVNZbWhiw5JefM2dmjH7y6RGJG/RjxYdSdPEoFY3lRfB6c3VD0/RXGc5GcsbU9f54aLjf9S5WyL8hznl00dJDm5ExyBV2hrPdWvO7vkfAwV3cCXuMm7lGcO6TVd0atGo8h0Qu7u7ceECbuSr0LZ7FzSvUYh8pCdeQFKuDTo/3xqqyg0g+8YFXLiRD1Xb7uhScwMisLvsy9G4fL8x2rl0QtP6/LZ7cSaSYi4iHXbo0K0trMve3jeQ/HQkXkhCrk1nPN9aVcNdohpZybGIT8mBvEVndGtjVb5AoB4UZyYh5mI6YNcB3dpaV2mrBDmpCYi7+gBGNs7o3rEpFLojj4diZCbFQCtON7StQXn56Ym4kJQLm87Po3VlB9CgzkpGbHwKcuQt0LlbG1jpU46IrUpyUpEQdxUPjGzg3L0jmtZx8GKyllObnu/hy1dbYVmL/Uj6tAsux96CvHV3dLKrLoh+O4pjuKxaSrJv4MKFG8hXtUX3LvXIGY/Vz2v3o3tfvopWy1pgf9Kn6HI5FrfkrdG9k101vy7OvIqYhDSobTvApb2Nnr7FfVYMvT7LcnNqQhyuPjCCjXN3dDTUCRucT6vzZHRSjzyuzkJybDxScuRo0bkb2lRWYP1ymPoKPhnUB4eGRSJ0XhvdN3hMtuRoXPijBC269YCTBfTIanjsGoYhehGzp4hd6utrAnpt0FCY3FdjkJCmhm0HF7S3qdi2AXN2fWTTMzeUZGzFyH8DW7//f1We5Ffh3pd4tdUytNifhE+7XEbsLTlad++EersAoyQ7GdEX/kBJi254QXDAetQs9c3dT28BzOFw/oaUT6LXtr32mG8+ng3KCuBr2/AaVyhHD9n/nQnX+WYIjFqPPnX2FR67Tyf5OLvcGzs6bMSWsa30v8ZQVgBfw7anINmI3B9zOBzOo0QCiZExjCTs/3V7OA1DIjGCsRHTJ1coR4TGg32x4aXTWB14FRUXwxkGj92nEwVeXLofAWLFrwCzvZGxEfu/p8MD+BNgDofD4XA4HM4zBX8CzOFwOBwOh8N5puAFMIfD4XA4HA7nmYIXwBwOh8PhcDicZwpeAHM4HA6Hw+Fwnil4AczhcDgcDofDeabgBfDfgYIUxCXeg+6PPOonKwL+Cz7E/ivCj9jk4ezWBViyJ0F77BGjvn4Qfgs24tQ9gyR75BSkxCGxPn0XxCJo1Q5EVfhz5QZTfBHfLJ2P9cf1/encfxqP10+eBHlnt2LBkj26rX8Salw/6IcFG0/ptsVRpxzBiglD4P7SAEz1/wabFyzBnoSyv1+rBzE7110WzpMiB//7YgGWfZsIQyzN+St9+RHm07yz2FpjfKtx49BqvMfm35MZj3gmKvwVgQvnYe7cuTV/5i1E4K+FupOfbngB/Fejvo4vRrhi0p4UgwqukpwYhPjvwKmbQsAUIuWXY/jxQrr24CNGnRaOnf7BOP/gyf9Snvr6FxjhOgl7UuoR/PK2cMrahDeXnWbTSh0pvo7QLzfhm8g7T1EB/Hj95ElQmPILjv14Qbf1T0KNtPCd8A8+r9sWIw+Hl0zFqp9N0NtrBAa3z8P5Yz/iQrohv9oqZue6ysJ5YpTkIva7z/Fl6HVeABvEX+nLjzCfFqbgl5riO/8MNi70Qyh1w/O2j7pMK0B25j3cuyd87uLyiR34fOdP+P1u6b5MZBfoTn3K4QXwXw3lIONOTj2LLRXGbI/HubUDdNtPD5STgTs59S1BTdHr3XfgtHcRNsbx6eRp8BPVmO2IP7dWt/UUU5KNtLRsNHt1Hla8NwfjBk1DYPw5rB1gyN8wf3rzAYfz9+ERxplqDLbXEN/qmxmwHLMFQb79WW+PGFlvvLPta+zatYt9ArF4kA2MbV/BfwKFbfb5ehve6f0o/+zz3xdeANeRrO/fRt8Ja7Bj+Qh0bqKAzKwles38BonxQZjZ1wGNZTJYOg/FqvD7uitKkB62Dt5urWAuM4HCpgOGzGPn5wuH0hA0YxK+vFSApB0T0GdyIJLVJcg4/TEmv9wetmZSGJsoYO08AG8FJbL7tqpk4fu3e2Pw8nDWVip2Te8JV1fXKp+emByYzM4VbzcvfhfmDHSGlUIGizaDsPhEBio++y3JOI2PJ7+M9rZmkBqzsVg7Y8BbQUisz91iSTrC1nnDrZU5ZEwWmw5DMO+bRGjVEoQZk77EpYIk7JjQRyd/MVKOrsQYNweo5FIobTrj9Q8OI6WWB2NGdiMxaUAKtm48jmzdvkeFmB6yzn2OyX3awcZMBpmFPVxH+yL0tlgxX4jrh5bCy6U5GklNoLTtCI95e3AxT3c463u83XccVm9fhqHOlpDLVXDqOx0B57N0JzANpRzFyjFucFDJIVXaoPPrH+CwRkEV/ESD/r60Pr4eu9eMxnN2ppDKrdDeYxEOVVB2SXoY1nm7oZW5DCYKG3QYMg/faJxaIAvnPp+MPu1sYMbiwcLeFaN9Q6FPBQ8Oz0c/93k4VBo2Ajn/xaIB/fAu2ynI1Hvwct0Bkf41upqA9bvXYPRzdjCVymHV3gOLDqWgbAR6/E+rr76YsH431ox+DnamUsit2sNj0aFa/a2cPMTvmoOBzlZQyCzQZtBinMioFEW154PiC9jwxmtYF1WI9O9no3evt/F9ChtL78FYHi58JSkmV1U7i8hSkoHTH0/Gy+1tYSY1Znq0hvOAtxBUFtB1t2OpjONWb8eyoc6wlMuhcuqL6QHn2REdhddxaKkXXJo3gtRECduOHpi35yKTVkvm/lno670YS0Z1hJWZFVwW1vY1N8tpe2egz7C1YCrTUYzYT0aiz7SvNVuG+HKNGOBDhdcPYamXC5o3ksJEaYuOHvOwpzxgtbZaswPLR3RGE5ZTzVr2wkzmY/FBM9HXoTFkMks4D12F8PvlCqXM/8HXsz0smb7NHV9ieosuy1816kWvH9dC7kl8MKg3pu6s+K1jIc6t9kTfmXt129UpydiLGX2GYW25slEc+wlG9pmGr/8QWhKPm/rPIQ2IKw36fbn23JmJ/bP6wnvxEozqaAUzKxcsPHWrUpxpfGzcamxfNhTOlnLIVU7oOz0A5alZz9wl+FlZfDN0seHqPhkfrpqOgS4VY0Ncv48KsfwuKoeIXxoe4wyRtuod4wLCX4LjGM7dAA+SS5XkMGQ5hZyJpvDNo8lBak7W9i/Qv7eG0i+RIbSwt4oUvdZozi+KW0fuKkvq8eZmOhoZTWe+W0XDnUyp7YyjdJ+yKfaAL3k5SqnV8GUUcCCG7t/dR952Cmo39jM6HhVHcZGH6CMvR5KqvGjXPSL1zc+ov9KRZv2UL0hDAR4Ksp18kP37T4o9tJ0CAgJ0ny9o6TB7kpq5kM/pP9mp+tulnJP0jrOcmrz0Hn0ddpbCgnyon50JSaR9aF1Ssaavfd52pGg3lj47HkVxcZF06CMvcpSqyEvTQF0oorh17qSy7EFvbj5KkdFn6LtVw8nJtC3NOHqfKDuWDvgKbbei4csC6EDMfSqIXklujSzIZfoWOhF1nk4GTKWuZioa4n9N12Z17u8eRZZNJ9B32bodhvDwME21k9Hzyy4wKWtCRA9Fv9B/uppRh8kBdDI6nn47/jF52cuo5fSjlKNroSZyI3yoq6kFPTdtEx05E0mhgfOoj42MHKceoAw1O+FuAHnIZaRo8hxN++IEnTm9hxb3tyOp/f/RAUH9BdG00q0RWbhMpy0nouj8yQCayuRQDfGna8UV/US8L8HHFYpG5DRwMe0Ki6LIQ77k0VxKzaZor2dOTevcVWTZ403afDSSos98R6uGO5Fp2xkkmK/ol/8w23SgyQEnKTr+Nzr+sRfZy1rS9KO1a0B9+ysabmnJdHhXt4fZb984slV50rZbaq1MtpO1B0T61+hKoaBGTgNp8a4wimK+7uvRnKTNptBBjS+I+J8urhSNnGjg4l0UFsVs7OtBzaXNaIq2gVrJOfkOOcub0EvvfU1hZ8MoyKcf2ZlISNpnnea43nygvk1nv/2EJnWWkc0gH/pi+zFKTBXGYkuTDz5kV4vJVdnOYrLc3edNdop2NPaz4xQVF8fs/JEmF6m8dpHgUvWxo1YGOckUTZh/fUEnzpymPYv7k53Unv5P46i5FOHTlUwtmB9vOkJnIkMpcF4fspE50tQDGaRm/7u9eRDJjEyp+5u7KCIimPaFZ2ibroaabn7Wn5SOs0iTDjUU0M/vOpOydIxivlwbYj6UG0E+XU3J4rlptOnIGYoMDaR5fWxI5jiVDmgDVqMHqdKBhiwPoTPR4bR5tANJza3J/oV/09bQXygyZCH1Vimo15pLQgDQ5kEykhhbkuusLyn0bLhGb02ljjT9cCZrrya9pIn4cW1k0t4xTUjZey1dElK7QP4pertNI+r/ae35tPLco6Xg53fJWVk+R4j5Z33nkAbFlXBcny/ry52FWrsYmXanN3dFUETwPgrPyKgUZ5qaQKagJswXvjhxhk7vWUz97aRk/38HNHGkd+7S+FlpfIvFhph+60MBnZ7ThmTO79LPBbpdYvlVVA6x/FqXGBdrS6v/esU4gxfAdUTr7KUBz8g/QTPspeQw4wQJLiwYN+3zgaRoNk04SKEzHUjRc3V5omHcDRpFVubDaIdg86JYWt5DSd0++E1TcKnTz9GejTvotCaJaikIn0vtFC+Q78ViPQVwRdSUcXwudTdvSSMDkwxqNztkAtko3enj0nGxNlK3vkrmpWNVp9O5PRtpx2khEHUUhNPcdgp6wfciVRieOPmhNNNBQT1XX6pw3V0KGmVF5sN2kFYty6mHsht98JsgfQGFsSCVd3ufzpcGKSsnf/IdT9M+P6fbrk5xwkpyVbSn+WfKLhJHrAAW08PDEPK2akx9fX+jB5oTiin5x63kfzCe3e7URjYFj7MmZa/VlFimEOZHgcNIZTqANt1gDWkKYDm96JdQpjN12jbyVJnT69vT6WHYHGoj70bvlyuIcn7ypfHTPqdz+RX9RLwvrY+704brpSPU6l/xgq9mKz90JjkoetLqyk5No6zMaRhz6och3mTVuC/5/vZAq6PiZPpxqz8djNeXpNmkPNaWVMMC6bbmonu0+w1ravLGbuYZwvDLC2Cx/rW6kpH7hutlNioQ9KPzdXH/E/TFijj3DVSugjCa00Zr49rJppAJNqR0/5jKwyiVtr5qTjLNRG1APlCn0ecDleQ0+yQ7WzhYtQDWJ1dlO+uXRU3p5/bQxh2ntTdYGgoofG47jZ0FNdXPjloZ5S/6UUJZv2m0zVNF5q9vp/SsYBpnraReqxPLdc+OBw5TkemATXRDrZ0c5YpB5J9aJlgtGFYA6/PlWhHxoezgcWSt7EWry4OIDSOQhqlMacCmG+wana2YHOVTxQyylzrQjBPamUJrawU1m3aY/VsotOSkeOkjulymN629VF5fs2ioQS8G5NHa+PPAZGom70HLY7VZLvfHGeRg4UFbbtauc8MKYD3+We85pOFxpc+XNXatLXfm6ewyyJ/K3bFinAmuwnxM/iL5lTs8pW3zJJX567Q9/aH+uatifGeLxYaIfutF9QJYNL+K2VnUL+sQ4wb4eL1jnMFfgagHEvM2cG5hrNswRSOlCZo5tIJUs8MIpqZKSNTFgDoNMXG3UHxpC0Z274IuXbSfl5dHIO/hFSQkVV9paWTrhjETXZEVsho+syZh5CBXdBrujyR1CUpKDFuMlnfhU3hP+gryd75B4P+1gQnbp7/dIiTHJyK7hQtcW+nGxcZh27sn2gkXazZt4TZmIlyzQrDaZxYmjRwE107D4Z+kZteXVHpVQgx1WgzibhXj0paR6K7TSZcuL2N5RB4eXklANbWUZCLhYiosnndD57JXk8ww4P0gbHvLTbddHeMWLWCHW7iR8gjfAxbTg6I/Jk20x69LXNG8ZXcMnrgI32e7YfTQzmika6IaxdcQdykXrXr1RetS9Qv6d++DTurLiL1YpN1l7AT3fm1RZiHbnnBrW4hL8ZeQkXARqRbPw61cQTAb8D6Ctr0Ft4qvlxnYl0TVGm3tStODEVSqxpAUC4ZRIy0mDreKL2HLyO5lPt3l5eWIyHuIKwlJMOo/CRPtf8US1+Zo2X0wJi76HtluozG0c60aYFjiNe+hMDu9Hz+kM5/M+AH7fpLhVbbPWneGFvH+Ne4jUaF1WzsmuRYjlQqNJcUoLCQD/U8CVeu2KFeBCqrGEhQXVo/ZMoqTEZ+YjRYurigPI1v07tlOE4P1yQfVMVAuMVkEm7uNwUTXLISs9sGsSSMxyLUThvsnQc38WEg1inrZUcAYTu790LZCvz3d2qLwUjwu/h6HS7mt0Ktv6zI/Fo679+kE9eVYlLq6xNIBDlaPZnqq3ZdFqNWHinAt7hJyW/VC3/IgYsNwR59OalyOvQhdFMG8jTPKp4pGUJo0g0Mr7UwBI1OYKiVQF5d+VWsMh5594FhBby++0Ab5iXG4ohO3ol7qnEcr0HjwWHjaxmH/N9EoRi7C9h7Gn/3GYESzhupcj3+y8dRrDnkEcVW7L5siUzR3SmDp4AB97mjs5I5+5Q4P255uaFt4CfGXMgyeu4qvGRIb9chLdcLA/KpHDkP90pAYN7itesa4/t45NSKRSnXFbjkSSZnLVqAABcwG5j28scDHBz6ln6XrEbBjNf7VprS6LKckLRhTXV3xrw9DEJMpR2v3KVixbDTsDbRUyR/BmPXGUlwdtBn7lr0Ei9L9Iu0Wq1kSNjLRTY5aJAoF5BLdRkkagqe6wvVfHyIkJhPy1u6YsmIZRhsqWEUKClgQmaOH94JynbDP0vUB2LH6X6iuliImH2BiLGVhVwekTH6TYhQX1aU8F0FUD5YY8ulZRB/bgvmeTsg5uw0L33CDy+hAXKv1lSSWNFiNbiKtPHCJsWAPVoyodfJLFFAqK+rbmOkEIDZ5FGkVBKmoggzrS2JsXJ6ENZQ3XKB1angvqODTPkuxPmAHVv+L3XBZDsGnZ6NxbMt8eDrl4Oy2hXjDzQWjA6+Vv4NbA40Gj8dwq5+x/2Aqbh3ch9ONPeH9SqkHlyPav3ASi0c2hEqUjcAg/5Ow62troDaKoQ2jirqVQKGQ6y6tez6ojqFyiclSgrTgqXB1/Rc+DIlBprw13KeswLLR9uWTQj3tqOlHqaw0uRhrHRUlhWommQkqux8bkyAn8+MyV2djNBHVt44q4S08KKi4S58v60WPDxVqg6hSvhTO1w5DretfAimbKyojEU6rFalMWklvJibCVvl4Kumlznm0Aqb94T2iFa6EfIvIzFDsO1aAwWOHoWnFzmukmrJBlXbp8c96zyGPIK70+HK+aO4UxmRSNoyakCiUqJyaTZjPEVNPHeYug2LD0PivPwblV31yGOiXBsV4HdqqLI1hShF1d04DMG4GJ3tT5OZZoJf3REycqP2MH+KCNu27oa3m7oclRO3ZjBLcDN6MvXcHYGPUefz32y+xfulseDYtwp8lmhjQT9bPWD76TRxqthjfBoyDQ5lHiLVrAod2TpDfuoiEzPJOCi5fwQ3dw9OSm8HYvPcuBmyMwvn/fosv1y/FbM+mKDJIsMoYN3OCvWku8ix6wVunk4kTx2OISxu079ZWe6ctqeDARtZwtDdHZtLlCgtwipG4bSbGLzus265OSVYmHhRbwtq6UkZpEGJ6KLkXhW837sft56dhRcABnE1KReyGl5FzNAhHals9ZOLA/MQEN+PjUWE9DPJi4/A7WsLRSTeJqlNw6VKFH3bLiUf8NWO0bt8eTR3tYZ6ZhMsV+ihO3IaZ45fh8K0KjRraV60Yo5mTPUxz82DRy7vMpyeOHwKXNu3Rra0K96O+xcb9t/H8tBUIOHAWSamx2PByDo4GHdG/gErRF+NHNkfkgZ0IDP4ZTUaMR38z3bEyxPq3Ek1qBvlffWC6beckx62LCSgPowJcvnKDeSvDoHzwiBCTpeQmgjfvxd0BGxF1/r/49sv1WDrbE02L/hRugzT/u1dfO7LyOOXSpQo/QZiD+PhrMG7dHh1bM92b3GTb91kPpeQhNu53oKUjRN2vCsIkTIUFeFhWhBXi9u27Fdp+HLB8yXzQ5CaLv8pBBO0wnFDHYehQI/XK7xX0lo24uGSYODnXWMw2zI/l6D1uJFrfOIKg9UE4jlcxbqiV7lgtCEUGFaKgXNkovH0bdw1Udr3nkAbHFfT48jEU2xuYO/WgTrmEyqk5HteMW6N9+6YGz10mDo82NurH3yu/PrZcreMRZlxOdSzgMcELNuc/wVt+PyG1gAXKnUhsmPIK+o3wRUQuO0Uig1xGyHnwQBPMwpM5SeEdJCc/YEGgxr1ft2POih/wQLjLLV32WBPFl/Hl5LFYl9oPy1YOh1lyAhIStJ/ElAei7Vq+NgWjLE9izTuBuJClRv6NH/DB8n0oi3/haYekEHeSk/GA7VPf+xXb56zADw+EmzStYPkXDyMg4HvElP8wQc1YeGCClw3Of/IW/H5KZRKocSdyA6a80g8jfCOgVYscMsrBgweCVkzRf+wI2EVuwuKdCchmyTI7YSeWr/oKv2YLTwiLcflYALbuP18hQQJFFy8iybgDuncTMkfN59QMIT8zGYk6/Wk/F3EpNVtUD0aSqziwajbmrDyKFGFlc/GfSP3jHgqt7GFvUVu4WcNzwlCYhvphdkAUMtmQ865+B59lwcjtORZvtNfdydB9HPbzQfCVPKhzL2Pv/BU4KPHAxBFN0aj/WIywi8SmxTuRkM3Kl+wE7Fy+Cl/9mg0Ly4r9GtiXHiw8JsDL5jw+ecsPP2mdGpEbpuCVfiPgG/EQkqsHsGr2HKw8msJsK6ggFX/cK4QVm2hqVYEGGdzGj4bTmfVY/79WGOXdi03T1dHfv+A9Ihjgf/XDEq9NGQXLk2vwTuAFZKnzceOHD7B8X+kfVTEgHzwyxGQRnjRJUHgnGclaR8av2+dghdaRwTy5AXYk3D/sB5/gK8hT5+Ly3vlYcVACj4kj0NTGExOGmiLUbzYCojJZVObh6nc+WBaci55j34AB7lcBI6gcHGB59xT2HUoWMhlSjq/EhmNZVZ9TPnKsPSdgqGko/GYHIEobRPjOZxmCc3ti7BvtWRlRHwgPjqzGfw4kI78kBxeD3sWKw1K8NnEYmtSk7wb6seyFcXijwzUErv8BstfGYnBj3YFaMFI5wMHyLk7tO4Rk5hAFKcexcsMxZBmqbAPmkJppaFzp92W7gYbmztqh+4fh5xOMK3lq5F7ei/krDkLiMREjmjYSmbsqYP0IYoPVAccCtmL/+Uzdjrrzt8qvjy1X69C9C8wxEOGFa2WzaXREt46BCv5H89srqdea38te0n4Q6EnK0hXr6rsU7udJrc2MyEimILmJhBQtB9HS0HTdQoCHdGquM8mN5dS463wKuxVKi1+0IhMjGZk1UpDMqjuN91tEHioVDd+RTkW1LIJTp31OA2WavF/tI/cMJPU9/e0Kq6/vhq2gwS0VZCSVkVRqTT0ne1EX09JFcPcodPGLZGViRDKzRqSQWVH38X60yENFquE7KJ0NJmPLEJJLe9Ga3yu8PF8L6rvh5OfZmsyMWHsKOZlIFNRy0FIKFRoSeHiK5jrLyVjemLrOD2cXZFLE6qHkqDQmmamSpEZKchy6lv6nWQiaTV8Nk5O0x3LSrelgFFH0ku7U2H29buFETefUgGYRnFENepSQalww5YrqoYiSdk+jbipjMlY0JnOllKQ2bjR7f7KeRR4M9W0KXfYK2Ssl7DpT5icKauE+l0Ku64TVLJawpBdfc6dmMinJpEYkb9GPFh1J0/mRmjIjVtNQRyUZy0xJyY4rHYfSWo2CKi/aEOurmo8zXcYsdSGly1LdNvOVcD/ybG1GRsyfFHITkiha0qCloRo/oKIk2j2tG6mMjUnR2JzJIiUbt9m0P1ncL6j4Ivm9KNhpGV2oYCdBprJfgRDrX9CVshlNKx8AFcUsJRelCy2N0Taq3/8EfSmp2bQjuoWtjKIYWuqiJJelMbodtcDiPWzFYGqpMCIps5PUuidN9upCprpFWaL5QHQRnD65qtpZnyxquhe6mF60MmFymFEjhYysuo8nv0UepFINpx2CHuplR60Mli++Ru7NWB5h/RrJW1C/RUcoTTNA1vPtUFr2ij0pJaxdU6Z7RQtynxtCWvfTLpBRtnyTjpevtaqdgnjaMrI1KY1MWFsKMnX0pCWzXiKzCovg9PtyLYj6EJMzdBm9Yq8kiTHrl/mgooU7zQ25rls8W91WBf+bT+2VFfPjAwr0VGrtpVkEZ0rthk2m/s3kpFAwvUntyP0/x+mW1jFq1ItoHtVLEcWvfIFkJq1p9snycdZOAcVvGUmtlUbMZqZM347kuWQWvWRWcRGcHv80YA6plYbGlV5f1pM7NXZRUss3j2vjUUPlONPkJssX6TX3ZiwvM583klOLfovoSJnD65m7KsW30J2+2BDRr0D2VzRMLqUey2O126IUVP8VCKYPvfnVADn0+2XdYlzMx+sd4wyJ8B82wXMeM+qsZMTGpyBH3gKdu7WBVfn79hB+/D45+gL+KGmBbj2c2P1sNm5cuIAb+Sq07d4FzU115zUU1o9ou/npSLyQhFybzni+tarKVwTs7vXGBVy4kQ9V2+7oUrWBkgxsHflvYOv3+H/iL5Mx1MhKjkV8Sg7kLTqjWxsrVFZLMqIv/IGSFt3wgpP2brk48ypiEtKgtu0Al/Y2lc6vROEvWOzqhWuLo/HNONtH/FWHiB4YJTmpSIi7igdGNnDu3hFNFboDIhRnJiHmYjpg1wHd2lqXj+/el3i11TK02J+ET7tcRuwtOVp37wS7qu0WZ+JqTALS1Lbo4NIeNrUqSE9fhqLOQnJsPFJy5GjRuRvaVHZq5KQmIO7qAxjZOKN7x6YwUAWGo7d/Q9Dvfw0hPz0RF5JyYdP5ebRWVfc+vfngEaNPlpLsG7hw4QbyVW3RvUtz1ODJdbTjPXz5aissa7EfSZ92weXYW5C37o5O1R0VmUkx0LpfN7S1bogCCnHncjQu32+Mdi6d0NSQvxnyqGDxlhRzEemwQ4dubdGgYegoybmB6JhUSFs/h24GJf/6+nEJMr4aiY4ftceR6LXoaaDshXcuI/ryfTRu54JOdVa2eO7UR8PiSsSX65A7K3Lvy1fRalkL7E/6FF0ux+KWvDW6d7KrFicGz12PNDYawN8qvz6eXM0LYM4jI//scnjv6ICNW8ai1aOtOOtM5neT4La2DfZGLEOPvyh/PFLKCuBr2PbaIy8lOZxHRHkBfG3ba4/+pofzaBDeHXgYDd8hg3FkaDh+Xtypnq9tcMoK4GvbwFPzP4u/uEzhPE0oXlyK/QF/ffGLgihs/DQZ4z9b8HQUvwISCYyMjdj/Gba6lcP5a5BAYmQMI+an3FP/rhQjamkPmFu54aP8f2P1LF78NgSJxAjGRszfucP/4+BPgDkcDofDeYZQZ93Axev5sOtk+Ff9HM7TBi+AORwOh8PhcDjPFPwVCA6Hw+FwOBzOMwUvgDkcDofD4XA4zxS8AOZwOBwOh8PhPFPwAvgfRwFS4hJxT/sncDh/JXlnsXXBEuxJEP5aXUXUuHFoNd5bsBEnM/6BhlJfx0G/Bdh46p5uB6cqxQl7sPTd/2D7L9m6PZyq5J3digVL9ui2/pmorx+EH4vjU4Yk3KwI+C/4EPuvqHU7/u7k4ezWBViyJ0G3/ahR4/pBPyzYeEq3/TipOedmRfhjwYf7dVuPgyxE+C/Ah/uv6Lb/BtQ6Lz0lPML5iRfA/yhYQvliBFwn7UEKL4D/egpT8MuxH3EhvcqEl38GGxf6IZS64Xnbf2CIqdMQvtMfwecf6HZwKpOJA6sXwP9XFVy7i/z92GeYwpRfcOzHC7qtfybqtHDs9A/G+Qfia8VLcmIQ4r8Dp27+UwqPQqT8cgw/XkjXbT9q1EgL3wn/4PO67cdIjTm3BDkxIfDf8RgL8JIcxIT4Y8epm7odfwNqm5eeFh7h/MQL4H8UhJyMO8jhxe/fA9UYbI8/h7UDKv81JPXNDFiO2YIg3/5Q6fZxniLybyDH8W3s2Pkeuj/Jvzr2D0M1Zjviz63VbXH+fqgwZns8zq0doNv+58JzbgVqmZc41eEFcJ0pRsrRlRjj5gCVXAqlTWe8/sFhpLCbrZKMvZjRZxjWRhXqzmVnx36CkX2m4es/tFVrSXoY1nm7oZW5DCYKG3QYMg/fJOZrjiHre7zddwLW716D0c/ZwVQqh1V7Dyw6lMLupUuQFjQDk768hIKkHZjQZzICk9nejNP4ePLLaG9rBqmxCRTWzhjwVhASC7RN1kwe4r+ejQHtLKGQq9D2lUXY9dmb6Dvta3asBBl7Z6DPsLUoH0YxYj8ZiT6a41r0jqMGxHWThe/f7osJ63djzejnYGcqhdyqPTwWHdLoVqB+Yy3E9UNL4eXSHI2kJlDadoTHvD24mKc9mvX92+g7bjW2LxsKZ0s55Con9J0egPNZ2uMCxSlHsXKMGxxUckiVNuj8+gc4LAgl2Kv3YCwP142p8DoOLfWCq/tkfLhqOga6eGDenotM21o0fU1Yj91rRuM5O1NI5VZo77EIh0oHWANi8jXY5wTy4rFrzkA4Wykgs2iDQYtPIKPiA6+SdISt84ZbK3PITBSw6TAE875JRO3WZmSdw+eT+6CdjRlkMgvYu46Gb+htzR+gEtArU+Z+zOrrjcVLRqGjlRmsXBbiVKkSq1CrbQR09nBp3ghSEyVsO1a0h87f1uzA8hGd0UQhg1nLXpjJxhUfNBN9HRozuS3hPHQVwu8LUleICyMXTPFdhGGOVCku6mNfjQ/1HYfV25dhqLMl5CwenfpOR0CZA7J+T3+MyS+3h62ZFMZM/9bOA/BWUCK0bp+J/bP6wnvxEozqaAUzKxcsPJUjck11Hhyej37u83Dovm6HQM5/sWhAP7wr7CzJwOmPJ+Pl9rYwkxozm1nDecBbCCoNvhps9sO3b6P34OXa44zC64ew1MsFzRtJYaK0RUePedhTGojMHuc+n4w+7WxgJpPBwt4Vo31DcbvUYWpAq+812LF8BDo3Yb5r1hK9Zn6DxPggzOzrgMasHUvnoVgVXjoo/blAIC9+F+YMdIYV8weLNoOw+EQGKodCHfKeXv9jiMRIZR7g8Px+cJ93CJVNtAgD+r2rsZv+/FiTn9xiMdAbg5eHa9oSs7G4f7N5ZdccDHS2goKNp82gxThRKZGI+UBNiPiFSM6tSt37r6PNa0Ash2fun4W+3ouxZFRHWJlZwWWh8MS6BOlh6+Dt1grmMmZLmw4YMo/5dlm3tdchmpxSw7xUqx9WQ3/f9clz+vK06LwuMj/Vry7QIfwOMMdwCqJXklsjC3KZvoVORJ2nkwFTqauZiob4XyP1zc+ov9KRZv2Urzubnf/zu+Ss7EPrkoqJiuJonbuKLHu8SZuPRlL0me9o1XAnMm07g47eZyffDSAPhYIaOQ2kxbvCKCryEPl6NCdpsyl0MJsoO/YA+Xo5krTVcFoWcIBi7t+lfd52pGg3lj47HkVxcZF06CMvcpSqyGvXPa0ANZBzai61l1tRzzk76NTZU/TVvD7UwkxBsj7r2FE13fysPykdZ1H5MAro53edSak5zhAbRw2I6obuUoCHghSNnGjg4l0UFsXG4utBzaXNaIoweHa8PmPNjfChrqYW9Ny0TXTkTCSFBs6jPjYycpx6gDLUgso9SC5TUJPnptEXJ87Q6T2Lqb+dlOz/7wBpWi2IppVujcjCZTptORFF508G0NSuZqQa4k/X0gV72dLkgw+FnijCpyuZWjxH0zYdoTORoRTI9Gojc6SpBzKYVrV9KRSNyGngYtoVFkWRh3zJo7mUmk05KPRUI2LyNdjnKIdOvuNM8iYv0Xtfh9HZsCDy6WdHJhIp9VmXxI4XUdw6d1JZ9qA3Nx+lyOgz9N2q4eRk2pZm1GZsds0v/+lKZh0mU8DJaIr/7Th97GVPspbT6WiOcFi/TOrbm2mQzIhMu79JuyIiKHhfuMZW1dBnm2Ixewj+Jiep0oGGLA+hM9HhtHm0A0nNrcn+hX/T1tBfKDJkIfVWKajXmkusM/G4qI99NTEvl5GiCZPzixN05vQeWtzfjqT2/0cHBAPf3UfedgpqN/YzOh4VR3EsJ3wk5ACVF2ncXn2bNg+SkZFpd3pzVwRFBO+j8Evf6r+mBtS3v6LhlpYslu7q9hDd3zeObFWetO0W09Y+b7JTtKOxnx2nqLg4NraPyMtRSiqvXVo/rMFml7YwfdhO1jaWG0E+XU3JgvnxpiNnKDI0kOb1sSGZ41Q6wIxb9Mt/WB7tQJMDTlJ0/G90/GMvspe1pOkah6kZTWxIleQwZDmFnImm8M2jyUFqTtb2L9C/t4bSL5EhtLC3ihS91mjOF8sFlHOS3nGWU5OX3qOvw85SWJAP9bMzIYnUsFiqHIti/icSI9VQ0+2vhpOlJbNhmYnu075xtqTy3Ea31CL5sSY/ycjQ5FzbyVr/FLOxmH/nnHyHnOVN6KX3vqaws2EU5NOP7EwkJC2dN0R8oCb0+4WYjstjVkM9+hfNn+qb9Fl/JTnO+kl7fg3oz+HMrpsHkczIlLq/uYsiIoJpX3gG63Yduassqcebm+loZDSd+W4VDXcypbYzjjKrC6mv9jpEk1PqMC9VRazvOuc5vXlabF4Xm5/qVxeUwgvgOlFAYXPakLzb+3S+QLeLGegn3/E07fNzosVIfuhMclD0pNWXhIJPx90gGmVlTsN2ZGgdl02G7huulzlmQdgcaqN4gXwvCtcUUezyHqTs9gH9VsQ21el0bs9G2nG6giMXhNPcdgp6wfciVeilAjn03UQbNimspjIx1DfoiyGNDS6ARcdRA4YVwHKSuW+g6+WDpzlttGOp31izKXicNSnZWBPLTlBTWuAwUpkOoE032MQuJCf5i+SXUKYMStvmSSrz12l7ulqrf3k3er/c4JTzky+Nn/Y5nUutkGiyg2mctZJ6rU4sl0WdRoHDVGQ6YBOxrnSJ0J02lA9Q40+KF3x129URk6/BPpcdQhNslOT+cVKZ3OrUrfSquUybYPJDaaaDgnquvlRBx3cpaJQVmQ/bQTVb+yGFeFtR476+9NsD7ViLk3+krf4HKZ7dy4jJpCmm5Aoa5J9abusa0Gubu2L20Pkb82mN+zHyT8wge6kDzTghTBwMdv7nAxXUbNphYcOgAriu9tXGvJxe9Eso13/aNvJUmdPr29OpKP0c7dm4g05XmKALwudSu9KcoCls5KQY5E+pulPUYtfUSCbtHcuKqWGBdFtz2T3a/YY1NXljN7O2mtLP7aGNO05XuBEpoPC57TRj04pR3WaaiVJXAGcHjyNrZS9aXR6IbJyBNExlSgM23aDcEG+yatyXfH97oL2+OJl+3OpPBwWHqQWtvkvzByP/BM2wl5LDjBPMAwVYrHw+kBTNprF/i+eC7JAJZKN0p49L22PHU7e+Sua6PkT9tmIsiuYD/TFSI5l7aaytioYF3tbq6N5uesO6Cb2xm1XEYvmxBj9hwlcogMVtrN+/sylkgg0p3T8uiyeWSGjrq+b/n70zgYuyWv/4b4bZURggEDc2EcyNSCLNJDVNSq5bmYbr1W5/NTO9aegtURPRzCwrTckk0yy3UlPzFq6UYmggi6ihIilugBKLbDPP/8zMyw7zzqB1Lc63zxjvds5znu0878t7BmFeEfeBym6rccecX4jquGYB3Jj+RfOnpQVwgzm8zFgAK1X9aGWlYYopZrI7qbpXm6MZ2RufJUe7QRR9w3wdYswpVsxLNRHrWxiPFXnObJ4uEvFbsfmpUXVBFfwVCGvQ5yL19BXYPxyITpV/PtIWfd/YiLUvBwrbDaFDVmIyrpafwephfujcubPp88R8xBbdwbnUdBh/YSHRwsvbtfLdFKlWi+aScpSW1rMIQ+qCwBFjEJC3HYvDpmDssH4I6DgYK9N10Ov1NX51V4nuElLP/A7Xhx+FR8UfgJe2RtDjHSATNs1j4TgahQRaL2+4Vg0e2uYSlJeyFhsz1vILSD5TiLY9esGr8o/dS+ES1BMddWeRdLrMuMfGMwi9vSuVAZfugfAuPYOUc6XITT2NK/YPI7DK4LDt+wY2rn0ZgdVesSq/kIwzhW3Ro5dX1d/VZzIH9ewI3dkkCF0x83rBu2qA0GqbQ1JuXmMNyye22EbcVkUZKUjLbw3/gLaVcktdHkP39iZv0GUlIvlqOc6sHga/ius7P4H5sUW4cy4V6fWKrkKfsWPgdnIuAlq1gV//MZj9TT4Chw9Ep2aWxoED3N0dK+OgLnqztnn4iiX2kMCunQ9aCydINM2glrWEe1u5aYdUA41aAl25mVcYatEY+zIDI6i3dzX9d0egdynOpJyD3iUQI8YEIG/7YoRNGYth/QLQcfBKpOv0zO8rvF4CB3d3OArdSi26pjYOeCZ0IGwPb8O319l5N77Flv0KPM32ORl8LnAExgTkYfviMEwZOwz9Ajpi8Mp06FjsVYnRkM3KcSH5DArb9kCvqkBkcgahZ0cdziadhk2fsRjjdhJzA1qhjV9/jJn9DfIDh2Ngp2bC2fUjsWsHnyoDoplahpbubWGyoBQajRoSHYsT0VxwBxkpachv7Y+AtpWWgMtj3WEKBevynng+MBcjwvm1cXgGoQNtcXjbt7jO9H7j2y3Yr3ia7XMyti2eH2v6SU0ss3GD/l2egZS0fLT2D0CV+lzwWPf2wrwi7gNCiqyByoxfWJpzTTSm/3s314nlcImDO9wrDKPLQmLyVZSfWY1hfkKf7PPE/FgU3TmH1HPXLK5DrNMRQ6xvIeFbnufM5+lAtXm/LROZnwxjsbouqEa9ocBpiDIY5kKZjZylkoaopXKDEYRdJSXMQey6IXRWGMLCKj7hWBYVjcXPtzMlCokNbKri00iDfemzsHVCAAKefwvbE3Oh9ArC+AXzMNxNxKwkgUxmU61diWmiELaM1BkGVe6yaBz10rBuTEjY2BsYfKPGWsqKF2YveU2JJDYyJiNL6jpT5xKVGurqzbDjNkxWJh7KTAaHvGGDmyjVsRQrQ82u2HhkbAdrSOiK9c3sa/pRQKxh8/KZaFivorZi49OxNGAQsxKJCiqlIFdJCdOiHbqFzqp2fRjCl0UhevHzaNeAsR0GvI9jCd9h9cwQeBYcw9rXn0Og/3Csu6CzPA5k5nVj1jYW2UMCuVwodiuRGLpumDqqrooLA42xr0Hf6poGNgwLxOTUZ23FhIAAPP/WdiTmKuEVNB4L5g1HTbc3xI2ssifLrqlLs/6jMNjxR2zbeQVXd27B4eYhCH3Knh3RI2vrBAQEPI+3ticiV+mFoPELMG+4W80JxIzNSk2BWDM3sPNN5tCBHAbg/WMJ+G71TIR4FuDY2tfxXKA/hq+7wPyzYSTMfnUsWK8BxXNBuY71JDVsVyFRqVAVClbkPQv8z1yM1E8z9B81GI4/bsPOK1exc8thNA8JhclEluTHmn5SE8ts3LB/l8Okvhrag0qlrDxD1AeEXTUw5xcW5twKGtN/4+e6mojlcINeq0KnBKZuQzGrsk/2CV+GqOjFeL6dwVcNqc9cHSJgpY7E+zY1ZE2eM5unxfxWbH5qbA0kYNlZHBNSJ3i42SE3/Wy1xRnlSFs7GaPm7WZOzZyCSlFyp8qrSq9dQ7bxXBu09HSDprAI9j1CMWbMGNNn1AD4t/NFV29zT7uqkFRzIv3lrVi1ORt9V8TjxH+/wifLwjE1pAXKfmcdVkRWbWzawtdbg6unUwW5DBTjzNmqicZQhFJpCaqGUYpr17JZijTQyHGY1Y04jRqrzB2ebjJcTkmBcR2TQFFSMn5FG3h4mqZOXeYZnCkw/mikgJ1/wcYLvu0VcPJwg11uOs5WW41TnrYWk0fNw+5q+2TunnCTXUZKyi1BTwaKkJT8K9DGA0JXjaJh+VhWuEufU7i3h6fyKk6n5lbJXXIW5y6xyYJh05KNS1OIIvseCK24fswoDPBvB9+u3vU/TdLnIP6rFdh27WFMXBCFHcfScSVpOZ4o2IuNe27ekzgwpC5zttmncr/n9jAfF3eBLhNnahoYKRds4OXbDte2rsLm7L5YEX8C//3qEywLn4qQFmVo2O31uGz1NQKqXhg1rBXidqzHuq0/4oEho9DHlu3XX8bWVZuR3XcF4k/8F199sgzhU0PQoux31pvhPzFkcGc2l11m46oZiDCZwx2/x3+FFduu4eGJCxC14xjSryRh+RMF2Ltxj9mFcBYjmgvUcG/vCeXV00jNrTqh5Ow5mELBurwnmg9szMXINeH8uqh6jcKwVnHYsX4dtv74AIaM6gOTiRqRH6tztzZm+m3vqTTOK1XqK8HZc5fYDGlAzAc8UTck9cgx4xfZba3JuY3p/97M2QbM5vDa2LRkvqpBYZE9eoQKfbLPqAH+aOfbFd4POJuvQ6ph9bwk1nf9vz4wg/k8vevkZrN+KxOZn+7W760dTRNHgz4jh8A17kPMWZ+KfKbg/NT1mL/oM5zMt4dU6w53h2wc3LILGSXMTpn7sHD5d8gTJkz74NEY6nwC770cif1X2Am6m4hbPh5P9R6CiNhC00lmkUChVIAKbuO2wf6Gu1lJKW5mZOA2s7Uu5yQ+nbYA395mfZcUmy6pQ3MEjxsOl9h38OonCbitK0Hm3vmYvzlLKICl0Lq7wyH7ILbsyjDcDyJz30Is/y6v8g65MeMQ040ojRqrE0JGD4QmJhJTo+KRy3RWdP5rhM3bisLuI/Gcr+kelm7tRmTYVpwr0qHw7GbMXLATkuAxGNJCCk2fkRjiGocP56xHaj6bCPJTsX7+Inx2Mh/22mrh4xSC0QM1iImciqj4XJaOinD+6zDM21qI7iOfg9BVozAn3137nMMzGP+sAw4seRXrTuVBV3wJ3745H1uuCsnDPhijhzrjxHsvI3L/FeYNOtyMW47xT/XGkIhY1GttqQTndyzC1GkLsTeT9cm08fuV35BT6gg3N/t7EAcmzNrGa9A9tod4XDQauoXdkWHYeq4IusKz2DxzAXZKgjFmSAso5DJISm8iI+M2mwB0yDn5KaYt+Ba3DRI04PaGp5zWXmNCgcBRw+F5dBmW/dQWz4b2gOktH8MTJAlKb2YgwxR8OPnpNCwwBZ/5bwMRcAoZjYGaGEROjUK8KRDxddg8bC3sjpHPPQjZ+R1YNHUaFu7NZFIyj/n9Cn7LKYWjmxvs78ksJZ4LHJ4Zj2cdDmDJq+twKk+H4kvf4s35W1AVClb4rVg+kJuPkQZRBGLUcE8cXbYMP7V9FqE9hPewGpUfq3O3NnbAM+OfhcOBJXh13Snk6Ypx6ds3MX/L1crCxbwP+LJyszZSSMz5hbN1Odf6/u/FnG3CXA6viz2CRw+F84n38HLkfpi6jcPy8U+h95AIxBaar0NqYPW8JNa3cJoVmM3TTkrzfis2P92t3wvvAnMsRZdLsYsHkofahhQaNcmlavIY+Db9ZFgeSSWUsnoYeamlJFNpSKXxoJC5U+hx24qFGjrKPhJJIV62JJUqSKWUkUTVhvqFx9B1wxvchpfX1S1p4h5hEQ6jLDGc/NX+FJ5oWPVGdOfgdPJR2pCyeReaeegqxcx5lBxlUlLYNiOVwpH8RkXS7GAtaQdHm9qsl1t0dGkIeaikJFcoSO70CIX0ak0qYbEClaTQ6mFepJbK2BhUpPEIoblTHifbiuNi46gXMd0YFmSoqeXEPcICFkZZIoX7q8k/PJF1mdO4sequUcy8p8hNLSEb1q9SpqLWQdNp+0WTPo0LdRwepWeCWpJCznQhVVLr3rNpT1ZFgzrKjV1MAz3UZKPQkFouJbXHQHrbYPAaq20NXcXQvKfcSC2xYeNTsnG2pqDp20noytiXuuVEqjJvGSWG+5PaP1zYrou4fHfpc4Yzsg/Rgv5tSCWVsz7k5NR9HA3trBFW2RqOH6HIEC+ylTLdq9i4JCpq0y+cYho2NpWlf0ETu2rJxkZFze1YnMidKXDqNsowrkowL5NxQZW6Db20r2phX/2YsY3hqFl71PW3kp9mkq+6By35tWLpxG1aF6KuXCUvFheNsa/Jhxzo0WeCqKXCoH8pKVv3ptl7stjo2BhyYmjOo44kY3qybaYihaMfjYqcTcFaLQ2Ovk464+ImNbV5aR9VaEv0GuG8eik/TZGPKknebR6dEvzWoOecmDn0qKOMpApbaqZSkKPfKIqcHUxa7WCKZkarz2ZG3634FgjWxrWYefSUm5okzCc0zOaq1kE0fftFpiVGWTp9MbEraW2YrZrbMVvKyTlwKm0zOUy91NF3yU8001dNPZb8Wrn45fa6EFJXyCCSCwwyZh9aQP3bqEhqiDW5E3UfN5Q6ayyLpdoLUsXygfkYaZjy05H0qFJO3eadMunOgFh+LKvrJ6YYqFoEJ2ZjUf/WZdOhBf2pjXFekbN5pTuNG9qZNNXmDbM+UB8ifmFex7W+BaIx/YvY3NJFcA3ncNO3QKjbvEQ10h3T5ZHIEPKylTJ7qJivSkjVph+Fxwjxa64OsXJeqoNI39bnOTN52oJ53ez81Ni6QEBi+EeohTlWUJ57HompWdC5dIC/rzOqXu8Gu4s+i4Szt9C8vT86tqjny6h1echISkFmgRKtO3VFO8fqV4vB7vYyEnDqNz1ad+0GT3bDl3/pFE5dKobW2w+dW2mE88QpvXEGCb8WwKVzZ2S95Yf+x19E0Y+zKo7i5tkEnL3VHO39O6K+YTRmHKK6MQsbeyPHWp6bjsTT1wHXDujq7VRpr5xPnkbbea2xLf19dD6bhKtKL/h1dIVKOF5JeS7OJ6YiS+eCDv6+cG5wqOXITU+Eqauu8HayxrZ1sVS+u/e5YlxPO4X0Qmd0etgL1R9um9AhLyMJKZkFULbuhK7tHGv4fL3oC3AlNRnnb0vh7OOHB1vUkvqu4qAaZm1zb+1hUVxYQ84neLrtPLTelo73O59F0lUlvPw6wrW6qvT5uHTqFC4Va+Ht1xkWuX1jrhFBn38Jp05dQrHWG36dW6FRTTJbpSeexnW4okNXb9Q0hx4FV1KRfP42pM4+8HuwRd04vAc0lAsqKb6OtFPpKHTuhIe9tHV/TWqV34r4n1iMWEXj82MF98LGxdfTcCq9EM6dHoZX3UQi4gP1IeYXVsa41f0z7iJXWTzH1IMuLwNJKZkoULZGp67tULtbc3VITazPg2J9W02DedoSvzU3PzXe73kBzGGU4qfXutQqgJsGlcnpwlo880fMtnfJ/S4f5y6pLIAvYC03MIfzt4Pn8PuX+l5A4TRBJFIb2EhF15T+7ZBIpMZxV19ceD9xv8vHuUuYYaU2UvY/bmAO5+8Iz+H3L/wJMIfD4XA4HA6nScGfAHM4HA6Hw+FwmhS8AOZwOBwOh8PhNCl4AczhcDgcDofDaVLwApjD4XA4HA6H06TgBTCHw+FwOBwOp0nBC2AOh8PhcDgcTpOCF8AcDofD4XA4nCYFL4CtphyZexdiRKA7tEo51M6d8I83dyNTZzimx43D72LcE75wsZXDRqaCk09fvLwxDSXGa/Nw/KNx6NneGbYKBezdAjA8IgbX9MaDQOlF7AofCv9WzSCXqeHyYDBmbDqNIuEwh8PhcDgcDufu4QWwlZQmLsHwEe/iV7//YNtPcdgb2R2X3h+Dl9ZcBHK2Y8bIN3Gs1VRsOJyAUz9txZzOF/HJK29gay4rneOX4l+zf0b717fgp4Tj2DLdDT8v/Cfm/reQtVyEH8MH44UPMtDtP1tw5KfdePvpAnzxz4F4ZedNVlpzOBwOh8PhcO4F/C/BWUUpDr/aEQMOjcRP8RHopjDsK8SBRf+HTdppiBoObP7qNFq/MBZBzqZ7i9LYGej81E8Y98sxvJY2Fq3H/4Z/H/4Wc/ztIdVdwg+f7sGdnmMxyH0fQj3GImPmL4id3QE2hov1VxE9tCOmFixE2g9T4cZvVzgcDofD4XDuGl5SWYM+F6mnr8D+4UB0Mha/BmzR942NWPtyIKQugRgxJgB52xcjbMpYDOsXgI6DVyJdp4deT1D1GYsxbicxN6AV2vj1x5jZ3yA/cDgGdmqG8gvJOFPYFj16eZmKXwNSFwT17Ajd2SScLhP2cTgcDofD4XDuCl4AW0UZynWAzEYOibCnOvqsrZgQEIDn39qOxFwlvILGY8G84VVPbh0G4P1jCfhu9UyEeBbg2NrX8VygP4avuwBdqQ7lkEEuE841IoGNjO3Q66Hjz+k5HA6Hw+Fw7gm8ALYGqRM83OyQm362auEaK1vT1k7GqHm7cHnrKmzO7osV8Sfw368+wbLwqQhpUYbf2bl6VsTmxH+FFduu4eGJCxC14xjSryRh+RMF2LtxD7LbesJNdhkpKbeqve9bhKTkX4E2HvCUC7s4HA6Hw+FwOHcFL4CtQoM+I4fANe5DzFmfinxW1Oanrsf8RZ/hZL49ZHIZJKU3kZFxmxWxOuSc/BTTFnyL2yhBSbEUkvM7sGjqNCzcm2n8Vojy36/gt5xSOLq5wd45BKMHahATORVR8bmsrC7C+a/DMG9rIbqPfA6+Nuz8s98has02nMjlS+I4HA6Hw+FwGgtfBGct+lv4cekYjHlrH7IkClAx0Prp+fhi4+vort+PN595Hu/EF0CpkaJM4YvhM59GztLVUL53Fl+PzsdXk4bh5c9SUayxhaT4Dpr5/x8+3vI+nnW3gf76frw1dgKW/nAFpJahXP8AHpv0Ada/MwweMqBg/WA88K8rmHMyDvO61HhXgsPhcDgcDodjIbwAbiTlueeRmJoFnUsH+Ps6o3JNnD4fl06dwqViLbz9OqOVRthfiR4FV1KRfP42pM4+8HuwBVTCERPlyE1PxOnrgGuHrvB2qmyZw+FwOBwOh3MP4AUwh8PhcDgcDqdJwd8B5nA4HA6Hw+E0KXgBzOFwOBwOh8NpUvACmMPhcDgcDofTpOAFMIfD4XA4HA6nScELYA6Hw+FwOBxOk4IXwBwOh8PhcDicJgUvgDkcDofD4XA4TQpeAHM4HA6Hw+FwmhS8AOZwOBwOh8PhNCl4AczhcDgcDofDaVLwApjD4XA4HA6H06TgBTCHw+FwOBwOp0nBC2AOh8PhcDgcTpOCF8AcDofD4XA4nCYFL4A5HA6Hw+FwOE0KXgBzOBwOh8PhcJoUvADmcDgcDofD4TQpeAHM4XA4HA6Hw2lS8AKYw+FwOBwOh9Ok4AUwh8PhcDgcDqdJwQtgK9Fd2oXF/56O6dPr+8zEB4dyhTP/apQgMzkNOXph8w8mL3YlZr21Tdj6E8mLxcpZb2HbOR1QdAxrZs3FptRy4eDdU5KZjLQ/S4n3Eqt18ef6y98G3UXsjJyFFQdzhB1/PP+zWGuAgp8+xqx5XyHt3oWdKLrzX2NhZd6egRn/nomwuYvw0dbjyCoRTjKiw7ltC/Dv11fhx1vCrkrKkbThDcxafRQFwnbiZ7Mx84NDyG1sHNTwhyIcWzMLczelmo79qTTUtw6Xdi3Ga7NW4MCNPzPYrckveYhdOQtvbTsnbFdhnK9fY/o9cAPVm9Jl7sGC0QMQ9HhfTFibxiz5v6Rh+f8Q/oB5768KL4CtRHf1R3z+0Tp8f+YmcnJy6nx+v8MKq78cOlz8eAgCxm5C5p+S4/QoSNyOldEHhe0/D31BIravjMbByyz4SzPx83ff49T1e2Mz3cWPMSRgLDb9OUq8t1iliz/bX/5G6LJwZP1KbD1xW9jxR/O/i7X60aMw6Wt89EkMLv6J82/5b4fw2Ufrsf/XbJans5F9Iwvnf9mL9//1ODo++n/YklHh9+X47cA6fLBsOib8Zx9q1sDl+HXfx/jomyQUGf2+FGf3rsKH204ij4wnWE8NfyhF5s/f4ftT103H/lQa6Lv4KFa8HokY6oqHXf6scsHK/KIvQOL2lYg+eFnYUUExjq54HYv3A37dXKoVO0XYPXcCFv0ow2NDh6B/F9f/bSHUoPx/EPd43vsrwwvgxiB5AE+GrcOGDRtqfaLx5tPOwkl/JQgFN26ioKkVM9oR+DTlON7uqxR23B1UcAM3/6pKtEoXTdRfOH9tJC0Q/IaQtzduwrY9PyH1l88xqOAz/N+Lq5BerR6QyICMT6fhP/vqPAb+A9FixKcpOP52X2H7z6T+vnWXb8BhxGpsjOjDzvizuEf5RXcZNxxGYs0XEehtL+wzoM9HVlY+Wj49Awtem4YXHnVoWoXQPZ73/sr8De1ejsy9CzEi0B1apRxq5074x5u7kfmn3uzk4ZtXemH0si+wZPhDcNXIoXT0RfDsXQ3LUZ6JvQtHINBdC6VcDedO/8CbuzPZvbAeNzZPQs9BbyO+VDiXjTHpvWHoOfFzYZudc/hdjHvCFy62ctjIVHDy6YuXN6bB+Nu9vG/wSq/RWPbFEgx/yBUauRKOvsGYvcvUftbGSRj7yRmUpEdjdM9xWGd4GlJ6EbvCh8K/VTPIZWq4PBiMGZtOs3vnBtDfwOF3x+EJXxfYym0gUznBp+/L2JhW4/eLDVJ6cRfCh/qjVTM5ZGoXPBg8A5tOV/SWh+MfjUPP9s6wVShg7xaA4RExuNZggrTQBwx6eaw/5h8RFKu/jkNLQxHY1g4KpkPnDgMw48s0FJuOstNfQa/Ry/DFkuF4yFUDudIRvsGzsYs1rM/aiEljP8GZknREj+6Jcesy2BV6XD+0FKGBbWGnkEHl3AEDZnyJtIoGrR5XTfKOf4RxPdvD2VYBhb0bAoZHIKbyYrG+a1FdF43xF7O6y8W2Kb0QOmcunn3QEbaO/nj9ILOtmL7Nja8R/laU8jmm9vWBo0qBZm164MWVyzDp8eH4IKXc2N7mST0x6O14VIVZEt4b1hMTP//NuKm/cRjvjnsCvi62kNswnTr5oO/LG2HqsoExFqVgw7Qn4eOoYmNoh35zfsCNak8LzbfJWt02Bb1C52Dusw/C0dYR/q/X9yTXSltXx6ytBczmAiHXLYnG/CGd8ADTrS3T7WRmx5SNk9HLvTkUCgf4DFyEI7eqOTbl4qeIEPg6MNvaeeDxF6OQkG86VP+Y72KMZlB6vYD3IoZAfmQtPkuseiRt0/WfmNY7F+tefQP3tAY26w8GXT6G/vOPGLfq1YNIzIjlvvLMvVg4IhDuWiXkamd0+seb2G08WLPvCpsHBI3DW4texJP+NfO/uVxYl0IceLMfHpuwvsYT3dLjixHSazI2X6+e8BqTX2oj+EqPPvjnwgj8s7dfla+Un8Ly557BUjaZXv9mKh7r8Qq+yROZf+46RqylFBd3hWOofys0k8ugdnkQwTM2oXI6rI0g35Lo+RjS6QGoFLZo02MyvkxLwcbJveDenMWYgw8GLjoCYwhWz/WGTTN51mTnJYiePwSdHmA+a9sGPSYzXaZsxORe7mjO5i0Hn4FYdKQqSMzP5XUx5eX2cFApofV+CrM3fICXek3E578xGSzIy9b5Ri3ob0ZJwkIKbGZP/i+uph/iT9CBqAnUxVZLA1ZeEM64O0qOzaIOCk+aeqBY2FMf2RQVrCJVM096cs4GOhQfR7sigqmVvCWN35kvnFOdEkpYGEjN7P3pxdU/UPyJAxQ1oQvZagfQyguldPmDPqT2mEL7K7ssoR//7UPqnktNm9lbKNRVRe1HfkD74pMpOW4XvTPUg+TaobQhx3A8ioJVKmrm+STN2XCI4tnxiOBWJG85ngzi5CftoAjD+W0H07yoHZR4q5Biw7qQxv4hmvjhHjoaF0PrZvQkZ4UHTdhxg3SmXmuQvSWUXFXtaeQH+yg+OZnidr1DQz3kpB26gQwi1ERXOSYjhbEU1kVD9g9NpA/3HKW4mHU0o6czKTwm0I4bOir7+T/Mhh1oXNQBSkj5hfa9O5TcFG3oxb0FputrYc4HdJc/oD5qD5piUKZRLy40bucddlUZJS8NIq1DN3pp1V6KSzhKXy8aTJ4ab5q095ax3eyoYFKpmpHnk3Now6F4NsYICm4lp5bjdxqUSDsihpKHvC0NnhdFOxJvUVnyUgrSOlC3l1bR3rgEOvr1IhrsqSHvSXvJ0KK146pB2c/0ny621GFcFB1ISKFf9r1LQ90U1ObFvWS4WqzvOlTXhdX+IqI73TVa1U9BUo0fvbQhlmK3bqEjN0rMXyMyPuv8jZEfQ6/4KOmBx1+j9Qfj6MjmcApuy2SSPUivx5UwGS/TB33U5DFlP1WF2Y/0bx819VyazjayaUuoK6naj6QP9sVTcjKL6XcM9tbSUEOQ1TvG3+nAqz6kfOBxeu3zQ3Ts0EYK6+1KMoncsjZZnFxb1Y8UUg35vbSBYmO30pYjNwyS1cC8rWvFWm1EbM2CUyQXGHKdkuRqdxowfzsdTThCq4a7k9zOidwe+RetifmZ4ra/To9pVdRjyRnWnjAmiQ05BEyhT2KO0ZFNc6hPCzl5vLibchsYs9X+XIvig6+Ql8KXZv7EbF0L3bVV1F+ppKc+vsa2iilmshspAxZSUtoqCnZSkM/kfUwuA3doW6gDqZ76mK4bk2AhfTW8OSl6LaML5cYTRCgQ9QfDvOEyjuWTevWQJZqjzM5/JQm0MLAZ2fu/SKt/iKcTB6JoAosx7YCVTP7qfYvnf7O5sB5yN4+gB9SP0dtnKhRVTAdfaUfN+rxfR3fW55eq2DVg1ldYnB776j0a20lBzv3C6ONPv6O0XPPzz93HiAi15C+MDaMuGnt6aOKHtOdoHMWsm0E9nRXkMWEHGcSpg0E+pZzU7gNo/vajlHBkFQ13l5Odkxs98q81FPNzHG1//THSqnrQEoP+q+d6sTzL7KyUq8l9wHzafjSBjqwaTu5yO3Jye4T+tSaGfo7bTq8/piVVjyUmWUTm8joUHKTpvkpy7D6Nog8eo4OfsbG2tiWVoictTWeyiuZl8XnbHH+zAriEDk1rR8qub9CJyjxXQPsjRtHEj44L23eHsQCWSUmu0pBGU+vj8CxtMAaEaVJQBC2nixU2LzlE09qp6JGI08KOahiPKanrGyfYCAQK9lPEqIn00fEi0QJYd/04bVoRTYerOVjJkenUXvUIRZwWHF6poKDlFyuDseTQNGpXcZw5UdL8bqTu+ib9UsY287fSC05q6rE4jSpzky6L1g3Skqbvh3Spjh/r6PrxTbQi+nC1AC2hI9Pbk+qRCDJ2UYOak3L+1hfISd2DFqdVnajLWkeDtBrq++ElKtweSo7Ne1HEL7dN8pdn0PdrVtLOFKOya2HeBxosgItjaLK7irovPlM1ZmbHjc86kt2gaDKUHcZkoAii5VVGNfZlGKOBsqT51E3dld40KtEwkbqTqvtiqsz5jOyNz5Kj3SCKZg3esWpctbiznUIdm1OviF/otuliyvh+Da3cmUL5FvRdh+q6sNZfxHRnLA6VpOq3kq5UNCh2jdnxWetvRLe+HM503Z9WVnPenM0vkIvcwgJYd52Ob1pB0YerTWglR2h6e1NMl9c3xvztNNpZTUHvpleOUXdlDT1tp7CsTbbXUAQpVf1oZWWjtRGztQUFsDlbi+YCIdexXGSYrwwU/zCJ3OTuNOkHw40lg53/0ZMqajlxt2FDGNPj9M7ZSq3QlTVPkx27Yf88p74xN8Kfa2GuAKbCr2i4nZzpPJVtVBXAqeXl9OvKAeSk8KHJ+wwl8F0WwGL+UE8BXEMPojnKfO4z2lXZld6oOsimmQgaNfEjOl5crW8L8r9YLqzD7ztoXEsldZufxLIHo/B7muRuT8GrL1f6XRXW5pfqBaQFvmL0RzV5Tj1gjHWx+Ud31zEi7GuIGvLn09YXnEjdYzFViaOjrHWDSKvpSx/W15ggn8GHTJcU0w+T3EjuPomqQvAjelLVkibuFvJ7Ra43m2cr7CwUowaKf6BJbnJyn/QDiwYDTLaPniRVy4nGLVFdCvsqKPh6DDmzwnxxpbF0dOnjAdTc0gLYgnnbHH+vVyD0uUg9fQX2Dweik0LYB1v0fWMj1r4cKGzfA6QtMez9/2L//v01P/sWYYBGOAcSaL284VqhYakW2uYSlJdWPsivRJ+bitNX7PFwYCdUid0Xb2xci5cDxd/TkboEYsSYAORtX4ywKWMxrF8AOg5eiXSdHnq98Ps1iRZe3lUv+0u1WjSXlKO0tO7qjfILyThT2BY9ennBRtjHOkFQz47QnU3C6TJhXyVSuASOwJiAPGxfHIYpY4ehX0BHDF6ZDp2eyWB2gUg5LiSfQWHbHujlVdkb6y4IPTvqcDbpNGz6jMUYt5OYG9AKbfz6Y8zsb5AfOBwDOzUTzq5GI31Al5WI5KvlOLN6GPw6d0Zn4+cJzI8twp1zqUgXzCbResG7yqjQaptDUl7XpobFLYnJV1F+ZjWG+VW01xlPzI9F0Z1zSGUNqqwZV21UfTB2jBtOzg1AqzZ+6D9mNr7JD8TwgZ3QzIK+RbHCXyzTnQQO7u5wFBoUvUZqZnxW+1s5fk1KQ5H7IwhsVTEiQNujOzrJhQ0xmP8HjhiDgLztWBw2BWOH9UNAx8FYma5jMaaHqcuaYyzPSEFafmv4B7StjCOpy2Po3l5WsWFBm6xVB3e4VzRamz/Y1pblAgns2vmgtXCCRNMMallLuLcVlCvVQKOWQFde9etxG/fu6OlRqRW4PPoI2hWnIfmcSd4aY74XYzRHGfO5Ugk0GlthRwU28P6/j/BWnxx8Ou0N/Lf6KxyNQNQf6qG6HkRjpthc7gtAbuppXLF/GIFVB9k08wY2rn0Z1acZS/O/xbnQQPP+GBniguRtXyKhHCg8tBm7f++NEUNaVvpdQ1iam41Y7Svi84/Jxe82Riyk/AKSzxSibY9eqBKHxUdQT3TUnUVSQ41J7NDOp7XQP/PlZmrIWrqjKgQ1UEt0qBaCJszNI8IpErt28KkKbjRTy9DSvS1MTUtZ3Kgh0RleH7JQl5XocCn1DH53fRiPVssFrYMeR4eGQ6IGVvlGPYj53l+MMqOBZTZy5gJ/JAo4+zyC7t271/wE+sK5UqMS2NhUOYGRhoQqK2euIION3IzUtSZ1Q2FbsUuftRUTAgLw/FvbkZirhFfQeCyYNxxu1a0rsWHyCD8LNNhbKQsUJo+8hhOy8cjYDjYx6+oUGHpkbZ2AgIDn8db2ROQqvRA0fgHmDXezyMFKDcEjk7Meq8HkNXWnAzkMwPvHEvDd6pkI8SzAsbWv47lAfwxfd6HqHaxKGukDJSUohR26hc5CWFhY5Sd8WRSiFz+PdoJwEqbEmmpsqJcSlLDgs+sWilnV2gsLX4ao6MV43tCgVeOqjQMGvH8MCd+txswQTxQcW4vXnwuE//B1uKCzoG8xrPEXi3RniAdZVRui15gbXyP9jQw3hMLPDVDTtQ3FtLBHn4WtEwIQ8Pxb2J6YC6VXEMYvmIfhNYOs5hiZI+qYRAY/rkSigkopnGFRmwZTsFhoWPl/rK0tygUSyOXCTFuJxNBsw8gVkFcfJmvPsFmh7ppjvgdjNENpSgrO6R6At6+rsKcaNt74vw/eQp+cTzHtzRjk18l9ViDmD/VQQw+iMWM+95WZDsLcNGPEwvxveS40oEGf0CFoe247vorLRcyW71DSfyQGtTAbsSYszM0mrPcV0flH2L67GLGUUnajaBCnppwSlldkhnzUUGMSOYtB4ecKJEwG4ceGMZdnTWdIWMN1m66/ZYt0WQOChB20qeY6EmOxLmwI1LyuWl62yjfqYoH3/YWQOsHDzQ656WerLSQqR9rayRg1b7ewff8hdfKAm10u0s9eY6YVKE/D2smjMG/3VRZ4NqDSEtyp9IJSXLuWLZyrx+Wtq7A5uy9WxJ/Af7/6BMvCpyKkRRl+ZyeITfgVsFipRObuCTfZZaSk3KqSB0VISv4VaOMBz9rRoL+Mras2I7vvCsSf+C+++mQZwqeGoEXZ7wZXrdZGfcjg7ukG2eUUpFR/wlKUBFN37vg9/ius2HYND09cgKgdx5B+JQnLnyjA3o176i4Ya6QP2LRkY9YUosi+B0LHjMEY42cUBvi3g29X78qnemaprkSblvB006CwyB49QivaG4NRA/zRzrcrvB2BHGvGVQt9Tjy+WrEN1x6eiAVRO3As/QqSlj+Bgr0bsedmC5G+7z7saw7Vet2JXaO9ZWZ8WZlW+psM7bs8CPWlE4ivptjf4+ORVvlIwjDBEUpL7lQl29JruJZtOl9/eStWbc5G3xXxOPHfr/DJsnBMDWmBMjNBJnNvD0/lVZxOza2SqeQszl0yPC1pXJt1EPWzu7O11bnAQnRXzuFX05fpGslPTkaGzBM+9c1Yf+QY9Tfx3afbcbHF0xgaVP9v22x8/g8fLOiD7LWvYunJknomccsQ8wcxRONMZi737YWThxvsctNxtloMlKetxeRR87D7atW+P8rmysdewDCvS9izcRk27gOefmEgWBqsl0bnF6t9RWz+8axT/NXmnupL5s7kl+EyuymrKU4yfkUbeDRW+Q1gdh4Rm4TqYK0ubdDW1xuaq6eRKuRZA8VnzlYW34ZzzOXlu5237y473newu8yRQ+Aa9yHmrE9FPptE8lPXY/6iz3Ay3/A9KOU4+10U1mw70fgvLjdShrzLZ5Camlrrcxppv+UJ51iBpg9GDnFF3IdzsD41n819+UhdPx+LPjuJfHsnaN3d4ZB9EFt2ZRjub5G5byGWf5dX6RCGu0VJ6U1kZNxmAahDzslPMW3Bt7htONuipZASKJQKUMFt3DbkYqcQjB6oQUzkVETF5zKtFeH812GYt7UQ3Uc+B986N3+Gu18JSm9mIOM2U6wuByc/nYYF39423qGJieAUMhoDNTGInBqF+FwmQNF5fB02D1sLu2Pkcw9Cdn4HFk2dhoV7M9mImBV/v4Lfckrh6OYG+zoeLOYDDWAfjNFDnXHivZcRuf8K60eHm3HLMf6p3hgSEYtC4TRzSBRKKKgAt41KtEfw6KFwPvEeXo7cjytMcN3NOCwf/xR6D4lAbKEUEpFxFZ/ejaiob5BYj0tJJeexY9FUTFu4F5mmi3HltxyUOrrBzd5BpG9TG42nlr80Rnci19wxOz6F1f6mDZmE0a1isWD06/jswFEc3vIWxvx7M66TxPQkR6qFu7sDsg9uwa4M1mFJJvYtXI7vKr7g1fBUQ1KKmxkZMHV5Ep9OWwBTlw14uMMzGP+sAw4seRXrTuVBV3wJ3745H1sqio3GtFkHMT8TTmssVucCy6Dbe7D4PzuQUaxHwemN+PeC3ZA/MwaDHqhvSrJgjMWnsTsqCt/UFyyVlOHWbxV5Owk/H9yK5S+FYOLGcvxj4RsIbvDNIxv4TPoAb/X+HWfPFZkpgItxencUor5JRL1SiPmDGKJxZj73afqMxBDXOHw4Zz1S89mNYn4q1s9fhM9O5sPeoZre/yCbQ/EIXniuAy6sW4ZvFc9gZP/mwoHa3E1+sT4ezM8/vsz6IligL3O5vCZOCBk9EJqYSEyNiodJnK8RNm8rCruPxHONVn79mJ9HrC8PrdVl8+BxGO4Si3de/QQJt3Us7e7F/PmbkVVRAIvl5budt4V3gf8+6HIpdvFA8lDbkEKjJrlUTR4D36afjAsC8+mzQUqSd5tPScY38a3HtAjOmAPr+UjIdtgX7CzDggI1tZy4R3hRnFGWSOH+avIPTxR21ESXG0uLB3qQ2kZBGrWcpGoPGvj2T6YVziUptHqYF6mlMlJpVKTxCKG5Ux4n24pFcDkxNOdRR5JJFWTbTEUKRz8aFTmbgrVaGhx93fQSv7olTdxTKQ0TJ5z81f4UnmhSxJ2D08lHaUPK5l1o5pES0l2LoXlPuZFaYsP6VJJM1ZqCpm+ni/XqTUc5MXPoUUcZSRW21EylIEe/URQ5O5i02sEUbVoxUo3aC3N0dC1mHj3lpiaJDRufko2zdRBN337RtGCiLJ2+mNiVtOxWUNXcjtRyOTkHTqVtGVWvvdfAjA80/C0Q7Fj2EYoM8SJbqZQUKjZmiYra9AunGEF+w4IAdcuJVKXGMkoM9ye1f7hp885Bmu6jJBtlc+oy84ihQToSGUJetlKmFxUpZRJStelH4THMJobzRcZ1Y/UAUsp70JJf6xtnGaV/MZG6am3IRtWc7JjPyJ0Daeq2DNNiALG+a1NdF43xF3O6My4QU1Obl/ZVLWRgmNe3ufFZ628mCpM/o0lPeJFWKadmrQNp9LRhbAxd6I0TpjGVpKymYV5qksqYD6o05BEyl6Y8bissWMuhmDmPkqOMyWrbjFQKR/IbFUmzg7WkHRxN18saGuMhWtC/DamkclIw+zp1H0dDO2ssa1NnWgilbvMS7aveaG3M2tqCRXAitjafC+rmupKfZpKvurrf3qZ1Ieoai7s07QfRuD4tSalSsfiUk2vQf2jfVYPdGhizmD/fWE0DmF17LPnVeHptjIvgbKpytYSNRWHnSr69QmneN79W5WlmvapFcMIugfKzH9FTjsxWDS6Cu0GrB7D5pccSqjdkGWb9wajLmovgautBLEeZn/90lBu7mAZ6qMlGoWH5Rsr8YiC9bTxYvW92pkj+F82FDVCWspAeUcjIa+qBajqvi3X5pfoiMoaYr9RaBGfQi9n5565jRCSX15H/GsXMe4rc1BKW+zRMfhW1DppO2+uffOuRr4R+mulL6up+eHsdhair5ffKec/8PFLHziU/0UxftTHOqpoOIbXLOGFLRJf1cOvoUgrxUJFUrmAx4USPhPSi1qqqhXdm8zJDNCbMIDH8wxLC347y3PNITM2CzqUD/H2dqxaX3deUI/d8IlLZ7Y9LB3/4OleXuhQ3zybg7K3maO/fES1q/7ZOn49Lp07hUrEW3n6d0apyMZ6l6JGfkYBTv+nRums3eBrv/pg86Yk4fR1w7dAV3k7mtajPv4RTpy6hWOsNv86tYLUI5blITzyN63BFh67eqNmdHgVXUpF8/jakzj7we7AFVMKRhmicD+iQl5GElMwCKFt3Qtd2jlb5jj4/AwmnfoO+dVc84ml64qzLy0BSSiYKlK3RqWs7OFo6Lv0NrBn2L2DNN/i/Bt6V0xdcQWryedyWOsPH70G0qKUU833fDfX5S2N0Z/4ac+Ozxt/011MQd9UeXR9qW7m4o+TAVHQYmIJXzx7A9Ir3bktv4mzCWdxq3h7+HVugZpixMV86hVOXiqH19kNni4OsGNfTTiG90BmdHvaCtoYpG9tmXf44WxuwLhdYhL4AlxIScUXuhYe6WpYvGh6jHjfWDMO/sAY7/6+FsO/PR39jDUwh+39o+PVWc/5gCeJxZjb3sTx7PjEVWToXdPD3RY1ppgb33ub6G59h2IPvwHdPAt7ubq69u88vVseD2fnHEszoy4JcXpvy3HQkmhpDV28nC3Jp4xGbR6zGWl2W3sCZhF9R4NIZnbPegl//43gx+TBmtROeGZvNywYaN2//bQtgDuevTvGx+QiN7oAVq0eirdWTJKc65QlzEdDjC3RZ9wPWhLaDMiceH4wdhP9k/Qs/xr+FbiKLJTj3OcXHMD80Gh1WrMbI/1mwFOPY/FBEd1iB1SPb/t3eL7xLDK953EFCxAD03zMQR36cg4739rf59zU8l1tO6U+voUvtAvgPghfAHM79il4PvVTKJ9J7gf469r05Ei8uP4IbUjWkZSVQ+z6HiPWf4OVuFnztHOc+h8WKnsXK/zhYDF9fJ/1fC3EfUh7/Jh598h0kSbpg5s79WFzjbxM3AXgut5jSo7Pw0IDjmHDqIGZW+zq1PwJeAHM4nCZD+a0MnP71OsrsPPBghxbWv6bD4XCsR5eHS6cvoti1Y61X+zic/x28AOZwOBwOh8PhNCn4E3kOh8PhcDgcTpOCF8AcDofD4XA4nCYFL4A5HA6Hw+FwOE0KXgD/FcmLxcpZb2Hbucq/F/jXRXcROyNnYcXBHGGHtehwcWckZq04KGxzOBwOh8PhmIcXwH9B9AWJ2L4yGgcvG/5O5F8cXRaOrF+JrSduCzusRYesI+uxcusJYZvD4XA4HA7HPLwA5nA4HA6Hw+E0KXgBbCV537yCXi8sxqfzBsLHQQml1hO9XozCiTzhBP0NHH53HJ7wdYGt3AYylRN8+r6MjWklxsO526agV+gczH32QTjaOsL/9YOi14hRenEXwof6o1UzOWRqFzwYPAObThcJR5nMxz/CuJ7t4WyrgMLeDQHDIxBzzfCXeWpxezdm9g7CjF23hB0GCvDf2X3R+9+7jFv664ewNDQQbe0UTE5ndBgwA1+mFRuPMeXglV6jseyLJRj+kCs0ciUcfYMxe1cmKl/WKErBhmlPwsdRxWRph35zfsCN6l/Ep7+OQ0tDEdjWDgqZCs4dBmDGl2kQemAUIWXDNDzp4wiVwh7t+s3BDzUaKMXFXeEY6t8KzeQyqF0eRPCMTahUR+42TOkVijlzn8WDjrZw9H8dB4v0uH5oKUID28JOIYPKuQMGzPgSFcNiA8Pxj8ahZ3tn2CoUsHcLwPCIGNSnQg6Hw+FwOH8BDN8DzLGc7KhgUipU9MBDE+njH47S4U1zqI+rnNz+uYNyDMe3hJKrqj2N/GAfxScnU9yud2ioh5y0Qzew4zq6tqofKaQa8ntpA8XGbqUtR26IXFMX3eUPqI/ag6bsLyYqjKWwLhqyZ/J8uOcoxcWsoxk9nUnhMYF23NARlf1M/+liSx3GRdGBhBT6Zd+7NNRNQW1e3EsFQnuV6K7RZ4MdyIH1my3soltb6AUXLYWsvcraSqalQVpy6PYSrdobRwlHv6ZFgz1J4z2J9t5i52ZHUbBKRc08n6Q5Gw5RfNwuighuRfKW42lnvqGxAjrwqg8pH3icXvv8EB07tJHCeruSTCKnnkvT2fEySl4aRFqHbvTSqr0Ul3CUvl40mDw13jTJ2AFr4cCr5KN8gB5/7XM6dOwQbQzrTa4yCcl7LjUeL4wNoy4ae3po4oe052gcxaybQT2dFeQxYQcZ1KG7tor6KaSk8XuJNsTG0tYtRyjr1FIK0jpQt5dW0d64BDr69SIa7Kkh70l7ydBr2c//oS62HWhc1AFKSPmF9r07lNwUbejFvXU0yOFwOBwO5y8AL4CtxFgAKx+lyNRyYY+OstaGkNbuH/Tp9TK6fnwTrYg+bCy2TJTQkentSfVIBJ0uNxXASlU/Wnml4gSdyDXCrmpUL4Dzt75ATuoetDit6kRd1joapNVQ3w8vke7Odgp1bE69In6h28b2yynj+zW0cmcKGWvSWuRuHkku2kG07ppJmJwvniOnB56jL1hFXBwzmdxV3WnxmWpCZW+kZx3taFD0DVMBrFRQ0PKLbFQmSg5No3aqRyjCMJD87TTaWU1B76YzKUzorqyhp+0UpgK4OIYmu6uo++IzlcdZo7TxWUeyGxRNN5jE20c7kzroXUqvaoDWPG1HCmMBnE9bX3AidY/FVKUOZp91g0ir6UsfXtKZCmClivqtvCLIWEwxk91J1X0x1RzWs+RoN4gMw7qzPZQcm/eiiF9um64pz6Dv16yknSn1aZDD4XA4HM79Dn8FohHYeAaht3fF36iWwqV7ILxLzyDlnB4ugSMwJiAP2xeHYcrYYegX0BGDV6ZDZ/hb4MJv6iUO7nB3rFA9u96Ca+qnHBeSz6CwbQ/0qvY3s6UuQejZUYezSadRpuqDsWPccHJuAFq18UP/MbPxTX4ghg/shGbC+dVxeCYUA20PY9u316HX38C3W/ZD8TTb56RDVmIyrpafwephfujcubPp88R8xBbdwbnUdJQaGpBo4eXtWvlujVSrRXNJOUpLCeUZKUjLbw3/gLao1J7LY+jeXmb8WZeViOSr5Tizehj8Ktrv/ATmxxbhzrlUpBdlICUtH639A9C2qgE81r09jC2UX0DymUK07dELVepg+g3qiY66s0g6XWbaJXGAu7ujSUZdFhKTr6L8zGoM86voszOemB+LojvnkJpeClWfsRjjdhJzA1qhjV9/jJn9DfIDh2Ngp/o0yOFwOBwO536HF8CNQKJSQ11dczYyVtARKxj1yNo6AQEBz+Ot7YnIVXohaPwCzBvuVkPREhsbyCTCBiy7piFKdeWATG4qACuQsPbZDr1ex6RywID3jyHhu9WYGeKJgmNr8fpzgfAfvg4X6vsWtWb9MWqwI37cthNXru7ElsPNERL6FOzZoZISVuLadUPorDCEhVV8wrEsKhqLn29nkoH1zYZXg8qhluugY6MyyFaJRAWVUjijpIQV0XboFjqrWvthCF8WhejFz6OdrBw6JrO0ZgNQqZRCH6UwqaOGNphIMiYbu5nQVdyBMBkrDVAC07BCMatan2HhyxAVvRjPt2NtOQzA+8cS8N3qmQjxLMCxta/juUB/DF93oerdZg6Hw+FwOH8ZeAHcCHSZZ3CmQNhgFKSk4IKNF3zbXcPWVZuR3XcF4k/8F199sgzhU0PQoux3Q/nF/qsH/WXrr6lEBndPN8gupyDlVrUzi5KQ/CvQxsMTNjnx+GrFNlx7eCIWRO3AsfQrSFr+BAr2bsSeeldxqdBr1DC0ituB9eu24scHhmBUH1u23wYtWV+awiLY9wjFmDFjTJ9RA+DfzhddvYUnqmaQubeHp/IqTqfmVo2r5CzOXTJ9nZtNS0+4aQpRZN8DoRXtjxmFAf7t4NvVG44Kd7T3VOLq6VTkVjWAs+cuwdiCzB2ebjJcZvaoqY5k/Io28PCUC3uqYdOSXaNBYZE9eoRW9DkGowb4o51vV7BhISf+K6zYdg0PT1yAqB3HkH4lCcufKMDejXv4QjgOh8PhcP6C8AK4EdCt3YgM24pzRToUnt2MmQt2QhI8BkNaKCCXSVB6MwMZt1llpMvByU+nYcG3t41PN6u+yaA6skZcU4VTyGgM1MQgcmoU4nNZGVh0Hl+HzcPWwu4Y+Zwv5JLz2LFoKqYt3ItMw5dKlP+OK7/loNTRDW729ZtfETgKwz2PYtmyn9D22VD0UJr22wePxlDnE3jv5Ujsv8Ia091E3PLxeKr3EETEFppOMofDMxj/rAMOLHkV607lQVd8Cd++OR9brgpVpH0wRg91xon3Xkbk/iustNXhZtxyjH+qN4ZExKIQDnhm/LNwOLAEr647hTxdMS59+ybmb7kqFNROCBk9EJqYSEyNiodJHV8jbN5WFHYfied8az2aNmKP4NFD4XziPbwcuR+mYcVh+fin0HtIBGILpZCc34FFU6dh4d5MJpNBhVfwW04pHN3c0IAKORwOh8Ph3M8I7wJzLMSwCE7l8Cg9E9SSFHIFyaVKat17Nu3JMiyP0lFOzBx61FFGUoUtNVMpyNFvFEXODiatdjBFXy8zLoJTt3mJ9hWb2hO/pmI5WRU1vgWCXX8tZh495aYmiY2KNEoZqVoH0fTtF6nMeHYZpX8xkbpqbchG1Zzs1HKSOwfS1G0Z1Raa1aacTkc+Skp5N5p3ytSKCR1lH4mkEC9bkkoVpGJ9SVRtqF94DBnFNCyCU7ekiXvumE5nlCWGk7/an8ITTe3osg/Rgv5tSCWVM/3Jyan7OBraWSN8C4Th+BGKDPEiW6mUFColySQqatMvnGIq9KDLpkML+lMblZTkCjYWp+40bmhn0gjfAmH4JouYeU+Rm1rCxqshpUxFrYOm0/aLQv+GRXDqNvRSlQGMbR6JDCEvWymzgYpdIyFVm34UHnPdtOitLJ2+mNiVtDY2pGpuR2omt3PgVNqW0bAGORwOh8Ph3L9IDP8ItTDHAnI+eRpt57XGtvT30flsEq4qveDX0RUq4bgBff4lnDp1CcVab/h1bgWNsN8cjbmmBuW5SE88jetwRYeu3nBSCPsF9AVXkJp8HrelzvDxexAtqgtsLbo8ZCSlILNAidaduqKdY63ORCnG9bRTSC90RqeHvaCt8xRVh7yMJKRkFkDZuhO6tnNE7R6Kr6fhVHohnDs9DK+6DTB1pCPx9HXAtQO6ejvVub4+dHkZSErJRIGyNTp1bYeaw9Kj4Eoqks/fhtTZB34Ptqhhcw6Hw+FwOH8deAFsJZUF8IW1eIZXQBwOh8PhcDh/OfgbjFYikUhhI5Ww/ws7OBwOh8PhcDh/KfgTYA6Hw+FwOBxOk4I/AeZwOBwOh8PhNCl4AczhcDgcDofDaVLwApjD4XA4HA6H06TgBTCHw+FwOBwOp0nBC2AOh8PhcDgcTpOCF8AcDofD4XA4nCYFL4A5HA6Hw+FwOE0KXgBzOBwOh8PhcJoUvADmcDgcDofD4TQpeAHM4XA4HA6Hw2lS8AKYw+FwOBwOh9Ok4AUwh8PhcDgcDqdJwQtgDofD4XA4HE6TghfAHA6Hw+FwOJwmBS+AORwOh8PhcDhNCl4AczgcDofD4XCaFLwA5nA4HA6Hw+E0KXgBzOFwOBwOh8NpUjSBAliHizsjMWvFQWH77ig//SXCZy7Dvqt6Yc//lrzYlZj11jbjz0XH1mDW3E3Gn+8NJchMTkPO/THUe4PuInZGzsKKgznCjr8Af0WZG4HRf+d9hbRyYUc96H7bg7dfm4l392UJexpLHmJXzsJb284J2/c5fzUfyIvFyllvYds5nbDj78i9zo/3dq7i/DnwvPXnobu0C4v/PR3Tp9f3mYkPDuWysyzXUZMogLOOrMfKrSeE7buj/GIMPvnwS8TdvB+qQj0KErdjZbQpYZZm/ozvvj9l/PnuYcn44yEIGLsJmX+rAjgLR9avxNYTt4UdfwH+ijI3gjspO7DykxhcbHAiKUX8yjBE7CtF10BXYV8j0RcgcftKRB+8LOy4z/mL+YC+IBHbV0bj4GUzVcFfmj8iP97buYrz58Dz1p+H7uqP+Pyjdfj+zE3k5OTU+fx+h91wW6Ej/grE3wjtiE+RcvxtYetuIRTcuImCv1Pxy/lro7uC6/bPYtWmJejvyFMX538Jz48cC+F5694ieQBPhq3Dhg0ban2i8ebTzsJJlvE3tEYRUjZMw5M+jlAp7NGu3xz8cIOEY38Gpbi4KxxD/VuhmVwGtcuDCJ6xCaeLhMN5x/HRuJ5o72wLBZPPLWA4ImKuwWweLc/E3oUjEOiuhVKuhnOnf+DN3Zmo/cvFvG9ewWP95wtb7Ebo+iEsDQ1EWzsFZCpndBgwA1+mFQtH8/DNK70wetkXWDL8Ibhq5FA6+iJ49i5k6vTI2jgJYz85g5L0aIzuOQ7rMgx3VtdxaGkoAtvaQSFTwbnDAMz4Mg0VLVo9trxv8EqvF7D403kY6OMApVILz14vIupEnvGw/sZmTOo5CG/Hlxq3DZQnvYdhPSfi89+EVsVkKkrBhmlPwsdRBYV9O/Sb8wNquIPI9Qad9hq9DF8sGY6HXDWQKx3hGzwbuzLN/2q3PHMvFo4IhLtWCbnaGZ3+8SZ2V1zzB8ucu20KeoXOwdxnH4SjrSP8X2/gV6pm7GWR7mtwG7tn9kbQjF24JewxUPDf2ejb+9/YZdgpNm4DdAtxbz8HvxZqKAy67j8TXxt8z4DuKpKPxODn8xUylSNz70KMCHSHVimH2rkT/vHmbua/jZC/9CJ2hQ+Ff6tmkMvUcHkwGDM2nWbZpD70uLF5EnoOehtVzZcj6b1h6Dnxc2E7D8c/Goee7Z1hq1DA3i0AwyNicM3YNbv+8LsY94QvXGzlsGG6cPLpi5c3pqHEeC1DzAeskteAHtcPLUVoYFvYKWRQOXfAgBlfoiIdNMbPzecXcwi5Z0k05g/phAdUCti26YHJzBdSNk5GL/fmzB8d4DNwEY7cqrCV+bxqkn8JoucPQacHmM5s26DHZDa+lI2Y3MsdzZkNHHwGYtGRKu+85/nRapuIzVXmbVYfZvOOWfmst4lR5y8sxqfzBsLHQQml1hO9XoyCkL7rz0P6Gzj87jg84esCW7kN07sTfPq+jI1pJs8Xz10WxJ5xXhmNZV8swfCHXKGRK+HoG4zZu+rOmU0rb1XEScNxbkn/DceNBbq0Okb+YOhvRsGBV8lH+QA9/trndOjYIdoY1ptcZRKS91wqnHF33Nk9gVwVD9O8U2XCnpoUxoZRF409PTTxQ9pzNI5i1s2gns4K8piwg27oyujn/3Qh2w7jKOpAAqX8so/eHepGijYv0t4CoYE6lFDCwkBqZu9PL67+geJPHKCoCawN7QBaeaGULn/Qh9QeU4xnZkcFk8plnPFnKkumpUFacuj2Eq3aG0cJR7+mRYM9SeM9ifbeMpyQTVHBKlI186Qn52ygQ/FxtCsimFrJW9L4nfmUn7SDIoZ6kLztYJoXtYMSb5VR8tIg0jp0o5dW7aW4hKP09aLB5KnxpknGBhsxtuwoClYqSPXAQzTx4x/o6OFNNKePK8nd/kk7coh0lz+gPmoPmrK/WLiAaePHf5OPuictTS9nW2IyFdCBV31I+cDj9Nrnh+jYoY0U1tuVZBI59VyabsH1gk5VzcjzyTm04VA8xe2KoOBWcmo5fqfxeL2UJNDCwGZk7/8irf4hnk4ciKIJXWxJO2AlXSj/o2XW0bVV/Ugh1ZDfSxsoNnYrbTlywyBVLczbS1z3tWH9fjaYHByG0oZsYRfdoi0vuJA2ZC1dZb5via6VEhtq0ft12ng4gU58t4wGt5VTi7E7jMepeC+92FpNA1abxlOSsJACm9mT/4ur6Yf4E3QgagJ1sdXSgJUXxOXXXaYP+qjJY8p+dqSQYsO6kMae+eGHe+hoXAytm9GTnBUeNGHHDTay2ugq466q+RL68d8+pBbyTNnP/2GydKBxUQcoIeUX2vfuUHJTtKEXDcrN3kKhripqP/ID2hefTMlxu+gdQ6xpme6Y34v7gLXyMnmSl1KQ1oG6vbSK9sYl0NGvF9FgTw15T9rLrNQIPxfJL/XpvwpD7lGSXO1OA+Zvp6MJR2jVcHeS2zmR2yP/ojUxP1Pc9tfpMa2Keiw5Y7zCfF4VfEeuJvcB82n70QQ6smo4ucvtyMntEfrXmhj6OW47vf6YllQ9lhjbu/f50XqbiM1VYjarg9m8Iyaf9TYx6lyhogcemkgf/3CUDm+aQ31c5eT2zx2Uw1qsLw9lbwklV1V7GvnBPopPTmZ+9g4N9ZCTduiGBq+piXjsMcEoWKWiZp5P0pwNhyiexVdEcCuStxxPzHS1aEp5yySruTgX7d9s3Ijp0np5a1NybBZ1UHjS1AP15RWBGjoyz9+sAM6n7aOdSR30LlXO0bortOZpO1L8KQVwPm19wYnUPRZTWmWNoKOsdYNIq+lLH14qpO2hjtS8VwT9cttk7vKM72nNyp2UUicwBUoO0bR2Sur6xgkW5gIF+yli1ET66HhRgwVwccxkcld1p8VnKgVhJ2ykZx3taFC0IRBNCU8RtJwuVniesS8VPRJxmm2UUdL8bqTu+ib9YhhqcQxNdldR98VnqKrFbNr4rCPZDYqmG3TH+rEZC2AlPRqZWtmmLmsthWjt6B+fXqcysWAUkyl/O412VlPQu+lV7V9ZQ0/bKUyFhOiYDCIaknwQLa9SEh2a1o5Uj0QI23UpOTSN2im70hsnKi3GTBZBoyZ+RMfz/miZTZOIUtWPVl4xl1LM28v6ApiRu5lGumhp0LprpmSW8wU95/QAPfcFy4YW6/pxeqey/RI6OtOXVAELTZs1JhKTHZRd36AqNRfQ/ohRNPGj49ZNJPlb6QUnNfVYnFYlmy6L1g3Skqbvh3SpjhrFJ+E720PJsXkvivjltkkX5Rn0/ZqVtJMpV3f9OG1aEU2HDZWbQMmR6dRe9QhFnGYSiPmA1fIWU8xkd1J1X0w108Gz5Gg3iAzpwFo/F8svlhTAhpxcYeriHyaRm9ydJv1wx7SDjeejJ1XUcuJutiGWV1n5ZpS/mm8W/0CT3OTkPukH5ukG2PkfPUmqlhONW/c8P1ptE7G5StxmtTGbd7LF5LPWJkwWg86Vj1JkauUAKGttCGnt/kGfXi+rJw/p6PrxTbQi+rDxpsVECR2Z3t7oZ6fLLcldFhbASgUFLb/IzjZh1E1FfNWmyeStClkbjnOx/kXjxpwuGyFvbYwFsExKcpWGNJpaH4dnaYOh1rCiAP57vQJRnoGUtHy09g9AWxthn9QFj3VvD5mw+YdSfgHJZwrRtkcveFX0Dylcgnqio+4skk7boM/YMXA7ORcBrdrAr/8YzP4mH4HDB6JTM+H0WuhzU3H6ij0eDuwEhbAPtn3xxsa1eDlQKeyojQ5Zicm4Wn4Gq4f5oXPnzqbPE/MRW3QH51LTYfoFhwRaL2+4VniBVAttcwnKS6t+/VGBLisRyVfLcWb1MPhVtNf5CcyPLcKdc6lIL1VZPTYjNp4I6u2NKnN1R6B3Kc6knIPY8hkxmc78moK0/NbwD2hbrf3H0L29yRvEx2Q8DRKtF7yrlASttjkk5XV1ZEKP3NTTuGL/MAI7VVqMmewNbFz7Mrrl/EkyO7jD3ez7Zo20lzkcnkHoQFsc3vYtruv1uPHtFuxXPM32OVmh63bwaV05ctjZNYOkpJ7f+epzkXr6CuwfDkSVmm3R942NWPtyoLBtGeUXknGmsC169PKq1LkhbwT17Ajd2SScLhP2WYGqz1iMcTuJuQGt0MavP8bM/gb5gcMxkClX6hKIEWMCkLd9McKmjMWwfgHoOHgl0nV66PXE0ph5H7BaXl0WEpOvovzMagzzq9B9ZzwxPxZFd84hVVC+5X5uaX4xhwR27XxQYWqJphnUspZwbys37ZBqoFFLoCvXWZBXTQOW2FXzHYkGzdQytHRvC1OLUmg0akh0hqxy7/Oj1TYRm6sstFkV5vPOw1cskc8KmwjYeAaht3flAODSPRDepWeQcs6UvWvmIXY8cATGBORh++IwTBk7DP0COmLwynToWL5grm9EPHdZgEQLL29X1qMJqVaL5pJylJZWf8VEoInlLevms+pYEDdmdHnP8qy0JYa9/1/s37+/5mffIgzQCOdYyF162f1GOXQsNqWy6uWuBCqVkv37Z1DKkgMgk1fvn0lgI2NJjQW4juAw4H0cS/gOq2eGwLPgGNa+/hwC/Ydj3YWqpFKDMjYmdrWN3LoRlJQwh7brhtBZYQgLq/iEY1lUNBY/3064IZDAxqbSFU001E1JCRudHbqFzqrWXhjCl0UhevHzaMcatHpsBiQqqNXV3dAGMiYSseAxUSthsf1UsUtMJtIx3UlR0x1UUCmFQVowJgMSpqOaWjJvizLDBMEGUa/J/kSZZebFtMBeZnRfL83Qf9RgOP64DTuvXMXOLYfRPCQUT9mzQxbLbYgVSyiDSc1yM9awUP5SHcscMtQMWxYbBiOwa1jY1k+d5qlql8MAvH8sAd+tnokQzwIcW/s6ngv0x/B1F1CWtRUTAgLw/FvbkZirhFfQeCyYNxxuFWHABmbWB6yWtwSmdBCKWdV0Hxa+DFHRi/G8oHxr/Nyy/GIOCeRyobCqRMJkEH6sgXheNW6z9uq0WH+DFspvRX602iZic5VlNquO2bxjkXzW2MSERKVGzfTN5ioWBaxJIzXzkB5ZWycgIOB5vLU9EblKLwSNX4B5w91qFCKW5C6zsWeACW2p6Zpa3hKP84b7F48bM7psbJ6tgwLOPo+ge/fuNT+BvnC2sqK18vT7HJk72nsqcfV0KnIr3xcvwdlzl5ji/wRY/55uMlxOSUHl2g1GUVIyfkUbeLj/jvivVmDbtYcxcUEUdhxLx5Wk5XiiYC827rkmnF0TqZMH3OxykX622mKy8jSsnTwK83ZfFXbUxgYtPd2gKSyCfY9QjBkzxvQZNQD+7XzR1dvRIsNLqsWFTUtPuGkKUWTfA6EV7Y0ZhQH+7eDb1RuOyLF6bEZ0mThzpkDYYBSkIOWCDbx827MkwQKVSlFypyoySq9dQ7agCDGZXDzbw1N5FadTc6t0V3IW5y6ZvEF0TI2KDimcPNxgl5uOs6YVT0bK09Zi8qh5+E7ifn/IrBexl4juG0LVaxSGtYrDjvXrsPXHBzBkVB/Ysv33XNdSJ3i42SE3/aywsMxAOdLWTsaoebutkl/mzmSTXUZKyq0qnaMIScm/Am084Fm7JmAYCiMqLUFV86W4di1buF6PnPivsGLbNTw8cQGidhxD+pUkLH+iAHs3fouEzauwObsvVsSfwH+/+gTLwqcipEUZfmcXGwoHmbt5H7BaXpuWLC9pUFhkjx6hFbofg1ED/NHOtyu8rVb+vckvFiOWV+szkFnufX602iZic5XVNjOfd/apWN6x0sctQZd5BjXTdwou2HjBV/htRQ30l7F11WZk912B+BP/xVefLEP41BC0KPudyWT4zzLMx17jaCp5SxSz/VsWNw3p8g+R9y65p3nqf48Dnhn/LBwOLMGr604hT1eMS9++iflbrlYpvPwsvotag20nDF+Y3EioGLkZaUhNTa36nD6DK/lOCBk9EJqYSEyNikcuy2RF579G2LytKOw+Es89KMP5HYswddpC7M00rHotx+9XfkNOqSPc3Ay3SPWg6YORQ1wR9+EcrE/NZxNkPlLXz8eiz04i395BOKku9sGjMdT5BN57ORL7r7C+dDcRt3w8nuo9BBGxhcJZ5pBAoVSACm7jtiEj2wdj9FBnnHjvZUTuv8JStQ4345Zj/FO9MSQiFoVSifVjM0C3sDsyDFvPFUFXeBabZy7ATkkwxgxpAZnWHe4O2Ti4ZRcyWJMlmfuwcPl3yKuITTGZHJ7B+GcdcGDJq1h3Kg+64kv49s352FLxR0zErjedZTWaPiMxxDUOH85Zj9R8ltjzU7F+/iJ8djIf9u7P3B8yi9hLKqb7hlAEYtRwTxxdtgw/tX0WoT2E13Tuua416DNyCFzjPsSc9anIZ5Vjfup6zF/0GU7mWym/UwhGD9QgJnIqouJzmSaKcP7rMMzbWojuI5+Db50nYFJo3d3hkH0QW3ZlsLGUIHPfQiz/Lk94diKF5PwOLJo6DQv3ZrKjTLu/X8FvOaVwdHODg1IGSelNZGTcZnlJh5yTn2Lagm9x29CS4bemYj5gtbz2CB49FM4n3sPLkfthSgdxWD7+KfQeEgGL0kEt7j6/WINIXq07YFHueX602iZic5X1NjObd7wGWSmfZdCt3YgM24pzRToUnt2MmQt2QhI8BkNa1FdaGJ7+SVB6MwMZt9kodTk4+ek0LPj2NgvQkprfqtAgYrHXSJpE3hJHrH+L4qYhXVoir0X1WRnyLp+pWX8ZP6eR9pvwFSSWIrwL/PdBl02HFvSnNiopyRVykjt1p3FDO5Om4gX5/M9okFJO3eYnmbatxLgITmqMtZofiZZe2FrI+r9GMfOeIje1hGxUGlLKVNQ6aDptv2haNFeW/gVN7KolGxsVNbdTk1zuTIFTt1FGtXfKa6PLjaXFAz1IbaMgjVpOUrUHDXz7J7pVbUGAAcML7pXfAsGOZR+JpBAvW5JKFaRSykiiakP9wmPouvFlc8OiBzW1nLhHWCTCKEukcH81+YcnGjfvHJxOPkobUjbvQjOPlDDVHqHIEC+ylUpJoVKSTKKiNv3CKcbUoPVjM67WdaBHnwmilsxWCrmUlK170+w9WcLihRJKWT2MvNRSkjFdqjQeFDJ3Cj1uW7XYRUwmXfYhWtC/Damkhvbl5NR9HA3trBFW04tfb9CpuuVE2lOlJEoM9ye1f7iwXR86yo1dTAM91GSj0JCajUvtMZDe/sm0aviPldm0kETd5iXaV9/6o2qYt5e47hui/HQkPWqIsXmnmLaqaIyuU97qRuoub5g2a62mZoFBsYsHkofahhQaJr9UTR4D3yaTmkXkr7VQQncthuY95UZqiQ07l8mmak1B07eTELZ1KUmh1cO8SC2VsfNVpPEIoblTHifbijxTlk5fTOxKWhvWXnM75gNycg6cStuYcnU5MTTnUUeSsbi0baYihaMfjYqcTcFaLQ2Ovm70fVEfsFZelhePRIaQl62UpAoVy0sSUrXpR+Expv6s93Pz+UV8EVzN3FPy00zyVfegJb9W+NZtWheiJpdxwrdQiOTVOvKX/EQzfdXUY8mvlQtubq8LIfUfmR8bYROzc5WIzeoiknfMyme9TYzzjcOj9ExQS+ajChZ/SmrdezbtyTJ6cD15SEc5MXPoUUcZG48tNVMpyNFvFEXODiatdjBFCwvnRHOXWOwZ5hV1S5pY5czMdOHkr/an8MSGjNE08pZ4nIvlfbG4MdGgLsXkFanPTIvg6qm/jB8J2Q77oo6OzCEx/MMu/ttRfD0Np9IL4dzpYXhp//wH3eW56Ug8fR1w7YCu3k5VC9gM6AtwJTUZ529L4ezjhwdbqIQD5ihH7vlEpGbp4NLBH77ONVpsGF0eMpJSkFmgROtOXdHO0cLrjLC704wEnPpNj9Zdu8HT3qBHHfIykpCSWQBl607o2s6x8WPL+QRPt52H1tvS8X7ns0i6qoSXX0e41rqk9OZZJJy9hebt/dGxRX0L/0RkQjGup51CeqEzOj3shbruIHZ9IynPxfnEVGTpXNDB3xc1TXafyCxiL3HdW8u913V57nkkpmZB59IB/r7ONdqzTn4WY+mJMIVtV3g7iUlWiptnE3D2VnO09++Ius3rUXAlFcnnb0Pq7AO/B1ugUrv6fFw6dQqXirXw9uuMVvUu3hDzAWvlZdrPy0BSSiYKlK3RqWs7WJUO6uOu8ov1mM2rjeGe50frbSI2V1ltM7N5x3r5GiLnk6fRdl5rbEt/H53PJuGq0gt+HV2rfLwB9PmXcOrUJRRrveHXuRWsXLckIBZ795q/U94SR7T/u4qbey9vY/nbFsCcvwCVBfAFrH1GLG1yOBwO536hsgC+sBY8fXP+itS93eRw/iwkEkhtpOx/Da+H5XA4HM79h0QihY1UUmMxIIfzV4I/AeZwOBwOh8PhNCn4E2AOh8PhcDgcTpOCF8AcDofD4XA4nCYFL4A5HA6Hw+FwOE0KXgBzOBwOh8PhcJoUvADmcDgcDofD4TQpeAF8n6O7uBORs1bgYI7wZ1AbRQkyk9NQ0UTRsTWYNXeTaYNzf6O7iJ2Rs7DiYI6wwzx5sSsx661twtb9S0lmMtJEfFr32x68/dpMvLsvS9jTSPJisXLWW9h2Tifs+DtShGNrZmHuplRh+97wR+Sf/x0N60h3aRcWv8bi7MAN4U8R3yN0l7Br8b8xffr0ej8zPziE3MZ0WHQMa2bNxaZUw99hvn+wJK6toiQTyWk599YmfzPuNufrMvdgwegBCHq8LyasTcPdeJSxtpj3FdLuL7dsEF4A3+foso5g/cqtOHG7sd9Wp8PFj4cgYOwmZApZpDTzZ3z3/SnTBuf+RpeFI+tXYuuJ28IOc+hRkLgdK6MPCtv3J7qLH2NIwFhsqnDIeilF/MowROwrRddAV2Ff49AXJGL7ymgcvPwXycqNohSZP3+H709dF7bvDX9E/vnf0ZCOinF0xeuIjCF0fdjl3k6Kuqv48fOPsO77M7iZk4Oc2p/f7zANNYLSTPz83fc4df3+uamzLK6tgN38fzwkAGM3ZfICuEHuNucXYffcCVj0owyPDR2C/l1c78r/76TswMpPYnCRF8Cc+wNCwY2bKKiWQbQjPkXK8beFLQ7nz4UKbuBmdYesD90VXLd/Fqs2LUF/R56mxNFixKcpOP52X2H7fqFu/vnf0YCOdJdxw2EEVm+MQB+tsO+eIsEDT4Zh3YYN2FDrE/3m03BujHtrR+DTlON4u+8f/jeALcaiuLYGKsCNmwW8+P0j0ecjKysfLZ+egQWvTcMLjzo0qaKQzyxWoceNzZPQc9DbiC8VdqEcSe8NQ8+Jn5s2847jo3E90d7ZFgqFPdwChiMi5poQxOz6w+9i3BO+cLGVw0amgpNPX7y8MQ0lxuPsfixlA6Y96QNHlQL27fphzg832BRSjdKL2BU+FP6tmkEuU8PlwWDM2HSa3cfVhx5ZGydh7CdnUJIejdE9x2Fdhg5537yCx/rPrzzn+qGlCA1sCzuFDCrnDhgw40ukFQuH877BK71GY9kXSzD8IVdo5Eo4+gZj9q7MyicX+uuHsDQ0EG3tFJCpnNFhwAx8WdlAfeThm1d6YfSSaMwf0gkPsLHatumByV+mIWXjZPRyb8505wCfgYtw5JaQ/vQ3cPjdcXjC1wW2chvWjxN8+r6MjWkmzeVum4JeoXMw99kH4WjrCP/XDXfE5cjcuxAjAt2hVcqhdu6Ef7y5G5lGwcVtIYqgmyXR8zGk0wNQKWzRpsdkNvYUbJzcC+7NFVA4+GDgoiOoGIao/YpSsGHak/BxVEFh3w795vyAGzUcQMRetSi9uAvhQ/3RqpkcMrULHgyegU2n6/eW+rHeVvobh/HuuCfg62ILuQ2T0ckHfV/eCIOp9FkbMWnsJzhTko7o0T0xbl1G/bbTXUXykRj8fL4i0Bq2pf7GZkzqOQhvVwUlypPew7CeE/H5b3WnT3Py1UvhAbzZ7zFMWF/9SVQpji8OQa/Jm4XtWhh94wUs/nQeBvo4QKnUwrPXi4g6kWc6nrsNU3qFYs7cZ/Ggoy0c/V/HQWYWsVgqz9yLhSMC4a5VQq52Rqd/vIndRoc22Okx9J9/xHQik+/irnAM9W+FZnIZ1C4PInjGJoiZXiz/WBfr9ecfMf3nHf8I43q2h7Mtix97NwQMj0DMNcvygAGrdRQQhHFvLcKLT/rX0JEhT/YavQxfLBmOh1w1kCsd4Rs8G7tMCeTeYnbeqAeDfz3WH/OPGHze+hg1ju2Fxfh03kD4OCih1Hqi14tRqHBPUf+p5b8OnQdi0OiacS1qK3Nziz4LGyeNxSdnSpAePRo9x60Dc51GzDWM8kzsXTgCge5aKOVqOHf6B97cXTF/iYzTgvlPLMc27I8M/XUcWhqKwLZ2ULA5yLnDAMxgdqsYUf3zmhksiI9Kyk9h+XPPYCnLm9e/mYrHeryCb5j9RXVsVp8MuoW4t5+DXws1FIaY6T8TXxuMZ8Aa+QTMymOBfcxi+EtwHEvR0eUP+pDaYwrtLxZ2UQn9+G8fUvdcyn4uo5//04VsO4yjqAMJlPLLPnp3qBsp2rxIewvY4ewtFOqqovYjP6B98cmUHLeL3hnqQXLtUNqQw44XHKBXfZT0wOOv0eeHjtGhjWHU21VGEnlPWppezk4opNiwLqSxf4gmfriHjsbF0LoZPclZ4UETdtxg0tUlP2kHRRj6aDuY5kXtoMRbTIyoYFK5jDMeL0teSkFaB+r20iraG5dAR79eRIM9NeQ9aS+xUw0nU7BKRc08n6Q5Gw5RPJM5IrgVyVuOp535xgZoaZCWHLq9RKv2xlHC0a9p0WBP0nhPor3GBuojm6KClSRXu9OA+dvpaMIRWjXcneR2TuT2yL9oTczPFLf9dXpMq6IeS86YrtgSSq6q9jTyg30Un5xMcbveoaEectIO3UA5bOTXVvUjhVRDfi9toNjYrbTlyA0qSVhIgc3syf/F1fRD/Ak6EDWButhqacDKC+K2sASDbpRyUrsPoPnbj1LCkVU03F1Odk5u9Mi/1lDMz3G0/fXHSKvqQUvOWGK/Ajrwqg8pH3icXvv8EB07tJHCeruSTCKnnkvTjV2at1eVfxopjKWwLhqyf2gifbjnKMXFrKMZPZ1J4TGBdtyoz1vqw1pbZdOWUFdStR9JH+yLp+TkONr1zlDykGtpqEGx+Um0I8Kw3ZYGz4uiHYk59dqOivfSi63VNGA1+5lhzpa6yx9QH7UHTakKSir58d/kozbFTc3jIvLVSy5tHvEAqR97m4xmNFB8kF5p14z6vM98qT6MvqEg1QPM1h//QEcPb6I5fVxJ7vZP2sG60V1bRf0UUtL4vUQbYmNp65YjdKNEJJZKEmhhYDOy93+RVv8QTycORNGELrakHbCSLpQb7KQil3E7jd0XxoZRF409PTTxQ9pzNI5i1s2gns4K8piwgxo0vVj+aUSs180/Ivov+5n+w8bUYVwUHUhIoV/2vUtD3RTU5sW9LDqYWs3mAcY91JExT6qakeeTc2jDoXjWVwQFt5JTy/Gm6y2i5BjN6qAgz6kHqMo7ayMyb9SHMS+70Liddwwb1udTNjalQkUPsNzw8Q9H6fCmOdTHVU5u/9xh1KOYbur47+fRtP6t6nF9S9xWZueWfEraEWE8v+3geRS1I5FuNWquKaGEhYHUzN6fXlz9A8WfOEBRE5iutQNo5YVy8TgRm//EcqxZfyyj5KVBpHXoRi+t2ktxCUfp60WDyVPjTZOMA6p/XqtJzZwvqvPq6K7Rsa/eo7GdFOTcL4w+/vQ7SisQ07F5fRr9SmJDLXq/ThsPJ9CJ75bR4LZyajF2h7FLq+QzIGZzMfuIwAtgqxArgO/Q9lBHat4rgn65bZplyjO+pzUrd1IKM4bu+nHatCKaDlebgUqOTKf2qkco4nQ55W8fTc7qIHrXWOwa0NGVNU+TnUKYgPK30gtOauqxOI0qziBdFq0bpCVN3w/pUlWz1SijpPndSN31TfqlzLSnqgAuppjJ7qTqvrhqYmdkb3yWHO0GUbQh1oSJPGj5RSaNiZJD06idIHNxzGRyV3WnxTUboGcd7WiQsYH6MCVsBdNZxVCLf5hEbnJ3mvSDIaEz2Lg+elJFLSfuNmzQ9eObaEX04WqTdwkdmd6eVI9E0OlyU6JQqvrRyiuVUtKhae1I2fUNOlEi7GJT6P6IUTTxo+OitrAIQTeG4tR0RTH9MMmN5O6TqGoYH9GTqpY0cTfbIWa/vO002llNQe9WtMcOX1lDT9uZ+hC3V81kmL/1BXJS96DFaVUn67LW0SCthvp+eKnSnuax0la663R80wqKPlzthqzkCE1vr6JHIk4bx1WWNJ+6qbvSm0aHrM92jBoFsIgtrSmALZCvPn7fMY5aKrvR/CRTEBV+P4nc7YNp9eUGtGj0DSU9GplaZcustRSitaN/fHqdygwFhFJF/VZeqZRDLJaMcafsSm9UKYEK9kfQqIkf0fHi6sVdPm19wYnUPRZTlel1lLVuEGk1fenD+hOFaP5pXKzXyj9i+r+znUIdm1OviF/IlELLKeP7NbRyZwoblVgeYFv3UEemIjGIll+s6Mzkh4a+LMZYAMtIKleRRqOp9XGgZzcYZmnz80a9GCf+mgWw5fnUcDkbm/JRikytsnXW2hDS2v2DPr2eJ6obYwFcy39rx7WYrSryZ0NzC2uQ5ndTU9c3f2FeJB4f9VJyiKa1U1LXN06w3gUK9lPEqIn00fFs8TgRkVEsx94x5495MTTZXUXdF5+plneyaeOzjmQ3KJoMEVJvbqxB9Zxvgc5rY/QLdeUNmqiOzeqzWIiZx+mdyhxSQkdn+pIqYCH72Xr5ROUR8yER+CsQ9xQV+owdA7eTcxHQqg38+o/B7G/yETh8IDo1A6QugRgxJgB52xcjbMpYDOsXgI6DVyJdp4deX4aMlDTkt/ZHQFsboT0pXB7rjvYy01b5hWScKWyLHr28UHEGaxRBPTtCdzYJp8uEfZaiy0Ji8lWUn1mNYX6d0bmz6fPE/FgU3TmH1HThV8oSLby8q16Ol2q1aC4pR2lpObISk3G1/AxWD/OrvL7zE/MRW3QH51LTUfVL6dpIYNfOB62FgUg0zaCWtYR7W7lph1QDjVoCXbnhFxlMD4EjMCYgD9sXh2HK2GHoF9ARg1emQ6dnuhN+RytxcId7xfui+lyknr4C+4cD0Ulh2gXYou8bG7H25UARW1ix4Edih3Y+rQV7SKBppoaspTuqhqGBWqKDYRhi9ktOT0Fafmv4B7StPC51eQzdKxzAUnsZKceF5DMobNsDvbwqe2PtBaFnRx3OJp2G5e5iha3YeAJHjEFA3nYsDpuCscP6IaDjYKxM1zG96mu+zlONGrarjYgtraKR8jXvPxIhLsnY9mUC02whDm3ejd97j8CQlmZSqI0ngnp7V7NldwR6l+JMyjnWBkPiAHd3RyGudCKxdA7XUk/jiv3DCKxSAmz7voGNa19GYPVXQcsvIPlMIdr26IUq07MYCuqJjrqzSKo3UZSL5B8x+czFejXE9K/qg7Fj3HBybgBatfFD/zGz8U1+IIYP7IRmonlAj9x7rCOJ1gverpWZD1ptc0jKLRppNaRoOex9/Hf/fuyv8dmHRQM07Lj5ecMyrMmnJmw8g9Dbu5qtuwfCu/QMUk7/apn/1PDf2ojZSjitwbmldiQ2zv/0uak4fcUeDwd2QlXq6Is3Nq7Fyw9fsXCcDclYJpJjU3DdjD92y0lE8tVynFk9DH4V4+n8BObHFuHOuVRUTr/mcmMNLNR5g4jruNicPoUAk2jbwafCEZlMdnbNICkxvLJgrXwW2txiH6qLJVrl1KaWXg0FU8UuhwHv41jCd1g9MwSeBcew9vXnEOg/HOsusASftRUTAgLw/FvbkZirhFfQeCyYNxxughXKdYYCQgah3DEiUamglAgbpayQYkfl1U9gic9GxnYwB9KJ27sWJShhHmTXLRSzwsIQVvEJX4ao6MV4vp3QkcQGNlXxbaRCpBJTAwidVe36sHAsi4rG4ufb1RhLTSSQy4XkXInE0FU96JG1dQICAp7HW9sTkav0QtD4BZg33K2GA0uYkLIKwVh5Z8j1Mht5pazVEbOFxUjkbBzCzxVImE2EH2sgZr8yHQt5KQyblUhUUFU6gIX2EijVsTJLJq9pA6ZgU3e6Bou9ulhhK30Wtk4IQMDzb2F7Yi6UXkEYv2AehosotqbtamPelibqBCWovgE2Uj5o+iB0SFuc2/4V4nJjsOW7EvQfOQgtzF3GbKdWVz+BjZHpjJhsRgxxVW3QYrFEJiVA3rASBEpZoWMwfU1/kNgYcgubaBpIFGL5p/GxXg1R/TtgwPvHkPDdaswM8UTBsbV4/blA+A9fhwvs5lQsD5TdYx0Z/LKmm4s2XC8KZx880r07utf4BMJXWAFnbt6wDGvyqQmJSo2a7iljYyUWOhb6Ty3/rYllOdvYRi0ZG2qxUf5XVs5yKhtXvQ5hxTgbkFEsx5aa88eSEiaBHbqFzqo2njCEL4tC9OLnUTX9msuN1bFQ52YQ1bFZfZow6a8+rJfPIptb4UO1sVQvHAEbpmkqLcGdyjmkFNeuZTPTMvQ5iP9qBbZdexgTF0Rhx7F0XElajicK9mLjnixc3roKm7P7YkX8Cfz3q0+wLHwqQlqU4Xd2sV4vg3t7TyivnkZqtS+GLDl7DpdYjBmQuXvCTXYZKSm3TP0ZKUJS8q9AGw941s5/Aqweqx+blvB006CwyB49QsdgzBjTZ9QAf7Tz7Qpv0btOG7T0dIOmsAj2PUIrrx8zagD82/miq3dDTwesRH8ZW1dtRnbfFYg/8V989ckyhE8NQYuy3w1pqpouqiF1goebHXLTz6Ji/YzhKVfa2skYNW+XiC2E0+8xYvbzbtcensqrOJ2aW3W85CzOVTiAVfZi/sRsI7ucgpTKFXiMoiSYuvNEA+5yV+gvb8WqzUc4opEAAGfpSURBVNnouyIeJ/77FT5ZFo6pIS1QVl2xDTpkA5i15W5DUMKGSlFSFZQovXYN2dWGXYFF8tWLEo+9MAxel/Zg47KN2Ien8cJAR+FYA+gyceZMgbDBKGC2uGADL9/29UwQYrH0AJw93GCXm46zVUpAedpaTB41D7uvVpNd5s78RIbLKSlViy8ZRUnJ+BVt4FFvohDLP42P9ermFtO/PiceX63YhmsPT8SCqB04ln4FScufQMHejdiTlSmSB6Rw+kN19Adhdt64Jpx079FlnkFN90zBBRsv+D7o1Tjd1DS09Tm7DqyAF35qrP9JnTzgZpeL9LPVFhSWp2Ht5FGYt091lz4glmPbwdWMP34ncYebphBF9j0QWjGeMaMwwL8dfLt6w6KHvtW5a52L61hmTp+7rwo7GsBq+f74+uJur29iSKF1d4dD9kFs2ZVheB6HzH0Lsfy7PNPzJ6kE53cswtRpC7E307CqsRy/X/kNOaWOcHOzN95pSkpvIiPjNjO2DjknP8W0Bd/itqGlYsDhmfF41uEAlry6DqfydCi+9C3enL8FlXnbKQSjB2oQEzkVUfG5rPUinP86DPO2FqL7yOfgW+/dvgQKpQJUcBu3hTqqCnsEjx4K5xPv4eXI/bjCRNbdjMPy8U+h95AIxBYKp5nBPng0hjqfwHsvR2K/qQHELR+Pp3oPQYQlDViE4ampBKU3M5BxmylDl4OTn07Dgm9vG24RK1fM1kSDPiOHwDXuQ8xZn4p8Nrnmp67H/EWf4WS+uC0M3w16encUor5JROXC6LtFzH4PPIPxzzrgwJJXse5UHnTFl/Dtm/OxpdIBrLOXU8hoDNTEIHJqFOJzmfGLzuPrsHnYWtgdI5/zZenlDxij4WmIpBQ3MzJgMtVJfDptAUymMllKolBCQQW4XdchG8C8LaVad7g7ZOPgll3IYDopydyHhcu/Q15VPVyFBfI1hOKRF/BchwtYt+xbKJ4Zif7NhQMNQbewOzIMW88VQVd4FptnLsBOSTDGDGlRb+IViyVNn5EY4hqHD+esR2o+mzDyU7F+/iJ8djIf9g7VW3RCyOiB0MREYmpUPEym/xph87aisPtIPFd/ohDNP42L9Vr5R0T/Usl57Fg0FdMW7oUphf6OK7/loNTRDW72CtE88EfrqAblZ/Fd1BpsO5Er7GiYsrzLOJOaitRan9Npv7HYMz9v/FHQrd2IDNuKc0U6FJ7djJkLdkISPAZDWjg3Sjc147oxObsWEgWUCkLB7dtMI430P00fjBziirgP52B9aj67x8pH6vr5WPTZSeTbe921D4jl2Obm/NH9GYwe6owT772MyP1X2Myjw8245Rj/VG8MiYiF9bPn3etcVMdm9ekgtNIQ1sv3h9cXwrvAHEspSaHVw7xILZWRSqMijUcIzZ3yONkaF8ERlaV/QRO7asnGRkXN7dQklztT4NRtlFFOpMuJoTmPOpJMqiDbZipSOPrRqMjZFKzV0uDo66Rj/2UfWkD926hIKlewa52o+7ih1FkjLIJj6K7F0Lyn3EgtsWH9K0mmak1B07fTRdPanHq5c3A6+ShtSNm8C808UmJ8Ub3iWyBIl01HIkPIy1ZKUoWKlDIJqdr0o/AYgzwMw0vm6pY0cY+wmIJRlhhO/mp/Ck80LXbIPhJJIV62JGXjUillJFG1oX7hMXS9off2jYs21NRy4h6qaLXkp5nkq+5BS36teHH9Nq0LUQsLVnSUEzOHHnWUMRltqZlKQY5+oyhydjBptYMp+nqZcbGAus1LtK/6UmtdLsUuHkgeahtSaJgtpGryGPg2/XSLHRK1xQ1aPUBJ8h5LqFKk2tTRTQn9NNOX1NWvub2OQtQVi1VYvyL202UfogX925BKKieFXE5O3cfR0M6aym+BMG+vWt8Cwbavxcyjp9zUJGH+qGG2UbUOounbLxoXlZAlY7TWVrocipnzKDnKpKSwbUYqhSP5jYqk2cFa0g6ONvnEnYM03UdJNsrm1GXmofptV+tbIMzZ0qD3lNXDyEstZfrUML16UMjcKfS4bX2L4CyQr0HKKGXhI6SQedHUA1XxUC8G31A50KPPBFFLhcGWUlK27k2z92QxqzAxDIuI1G3opZoOKxJLOsqNXUwDPdRko9CQmrWp9hhIbxuVUH2Bl+HUaxQz7ylyU0vIhulEKVNR66DptN1cojD0bzb/NCbWa+WfQ1dF9F9G6V9MpK5aGyZ3c7JTy0nuHEhTt2UQs6RIHjBq9p7pyJAn1S0nUlXqK6PEcH9S+4ebNvM/o0FKOXWbn2Targ9hEZxhqq3vI7EdRl8Ump836sXoX9UXwVmTT01jUzk8Ss8EtWS+yWwtVVLr3rNpT5ZgSBHd1Ou/teJa1Faic8sdOjjdh5Q2SmreZSYdKWmc/+lyY2nxQA9S2yhIw/xJynLBwLd/Mn3LkVicWDD/mc+x5vyRHc0+QpEhXmQrZfGgYvOBREVt+oVTjODL9ebGGtRcBCceH7WotQjO0IaYjs3ps76YSXmrG6m7vMF+boR8YvKI2sc8EsM/LBA5VlGKm2cTcPZWc7T374gWtb+LXF+AK6nJOH9bCmcfPzzYQiUcYLA7pkunTuFSsRbefp3RyrAGojbF15F2Kh2Fzp3wsJe2nqdF5chNT8Tp64Brh67wdqp6wb5+9MjPSMCp3/Ro3bUbPO3rtqjLy0BSSiYKlK3RqWs7OIo1WRtdHjKSUpBZoETrTl3RzuoGxNHnX8KpU5dQrPWGX+dWqE919VGeex6JqVnQuXSAv69z1cv7IrbQ31iDYf8C1nzzf+bf9bQaMfsV43raKaQXOqPTw17Q1tO3VfYqz0V64mlchys6dPVG9e7+mDEyf7t0CqcuFUPr7YfO9Ti5Pj8DCad+g751VzziaflTrgZtySi9eRYJZ2+heXt/dKwTlNURl69+9Ljx2TA8+I4v9iS8je7mdJ7zCZ5uOw+tt6Xj/c5nkXRVCS+/jnCtlgoaRCyWmD3PJ6YiS+eCDv6+cDYjR3luOhJNjoau3k419NUgYvnH6livnX8g7h8FV5CafB63pc7w8XsQNVOoBXngj9bRH4G5eeMek/PJ02g7rzW2pb+PzmeTcFXpBb+Orqjdo7W6qR3Xjc3ZlbAcnZFwCr/pW6NrN08Yp65GzTUs555PRGqWDi4d/OFbyyHu2gfM5FgjZv1Rh7yMJKRkFkDZuhO6tnO8Kx+8a50bENWxeX2ao1Hy/UH1BS+AOZx6Kcax+aGI7rACq0e2/Zu+K9QUxniP0LPPnQREDOiPPQOP4Mc5HWH2F6SVBfAFrH3mjytkOJzGUFkAX1gL7p6cpgqf8zicelHh0fBtiPpbF4ZNYYz3gnLEh3eDnWMg3in+FxZPESl+DUgkkNpI2f+sXPDH4fwJSCRS2EglNdatcThNDf4EmMPhcETQ5V3C6YvFcO1o/tfpHA6Hw/lrwAtgDofD4XA4HE6Tgv/mk8PhcDgcDofTpOAFMIfD4XA4HA6nScELYA6Hw+FwOBxOk4IXwH918mKxctZb2HbO0r8ZX0Ve7ErMemubaaPoGNbMmotNqYa/uXNvKMlMRlqO4fuj7hNq6KoIx9bMwtxNqaZj9xn3ne4Eio6tway5m4StauguYdfi1zBrxQHcuP/E5nA4HA6nBrwA/oujL0jE9pXROHjZ2sJVj4LE7VgZfdC0WZqJn7/7HqeuW19I14fu4scYEjAWmzLvn2qopq5Kkfnzd/j+1HXTwfuI+1F3FZRm/ozvvj8lbFVRfHQFXo+MAXV9GC48q3A4HA7nPodPVRwT2hH4NOU43u5r7i9oWQ4V3MDNgvv5UaAWIz5NwfG3+wrb9w/3s+60Iz5FyvG3ha0KdLh8wwEjVm9ERB+tsI/D4XA4nPsXXgBbTRFSPp+Kvu0doFJq4f3UbGz44CX0mvg5O6bHjc2T0HPQ24gvNZ1t+BL9pPeGoafxuAE9rh9aitDAtrBTyKBy7oABM75EWrFwuB701w9haWgg2topIFM5o8OAGfjS3AXVKc/E3oUjEOiuhVKuhnOnf+DN3ZmsZKlF3jd45bH+mH9EEFx/HYeWhiKwrR0UMhWcOwzAjC/TYOo1D9+80gujl32BJcMfgqtGDqWjL4Jn70Ima1iftRGTxn6CMyXpiB7dE+PWZRgatG7cudswpVco5sx9Fg862sLR/3UcLBJrg+n/8LsY94QvXGzlsGFyO/n0xcsb01AinFGFYQyPof/8I+yyK9jwYncEBATU+nSvlN3ydk2I2Szv+EcY17M9nG0VUNi7IWB4BGKu6evXnf4GDr87Dk/4usBWbsPac4JP35exMa2h3g1m34uFIwLhrlVCrnZGp3+8id0G4zAaK5vx2Dev4LH+840/Gyi9uAvhQwMQNO4tLHrxSfgHz8Cm00Wmgwaf6jUay75YguEPuUIjV8LRNxizd9XjfxwOh8Ph/JkYvgeYYzkFB6eTr9KRuk+LpoPHDtJnM3pSa1sVKXouZUd1dPmDPqT2mEL7i03nE5XQj//2IbXxOFFZ8lIK0jpQt5dW0d64BDr69SIa7Kkh70l76ZbxjFqUJdPSIC05dHuJVu2No4SjX9OiwZ6k8Z5Ee9kFussfUB+1B02p6rAaJZSwMJCa2fvTi6t/oPgTByhqQhey1Q6glRdKK2U1kh1FwSoXGrfzDtsoo+SlQaR16EYvrdpLcQlH6etFg8lT402TDJ1SNkUFq0jVzJOenLOBDsXH0a6IYGolb0njd+YT5SfRjoih5CFvS4PnRdGOxFtWj1t3bRX1U0hJ4/cSbYiNpa1bjlDWKZE2srdQqKuK2o/8gPbFJ1Ny3C56Z6gHybVDaUNObV2ZxuAybif7+XdK2vUpRUVFCZ+PKXyQG8lt/Sns8O+i7dZBxGZU9jP9p4stdRgXRQcSUuiXfe/SUDcFtXlxLxXUo7vsLaHkqmpPIz/YR/HJyRS36x0a6iEn7dANVF/3VJJACwObkb3/i7T6h3g6cSCKJrD+tANW0oXiu5CNHc6OCiaVyzhjN1QYS2FdNGT/0ET6cM9RiotZRzN6OpPCYwLtuKEznMx8SkXNPJ+kORsOUTzTW0RwK5K3HE8GN+FwOBwO538FL4CtooC+HuNMqh6L6Uy5sEt3iT4e0NzCAriYYia7k6p7tesZ2RufJUe7QRR9Q9hRjeKYyeSu6k6La15Azzra0SB2gdkCuOQQTWunpK5vnGBSCBTsp4hRE+mj40UNF8DFMTTZXUXdF5+hql6zaeOzjmQ3KJpuGItHJSmCltNFVucYMfalokciThs3y5LmUzd1V3rzlzK2Zf24jQWwUkX9Vl5hWjUg3obu+nHatCKaDhuKL4GSI9OpveoRijhdbqYAro6ObuybTn52bWjYunR2KyDebm3EbEZ3tlOoY3PqFfEL3TY2WU4Z36+hlTtTyFAX1tSdjq4f30Qrog9TVfcldGR6e1I9EkH1dM9MMY3aKbvSGycqrc7MHkGjJn5EsXvvTrbqBXD+1hfISd2DFqdVtaXLWkeDtBrq++El0hl8SqmgoOUXBRsKsjWgNw6Hw+Fw/iz4KxDWoLuE1DO/w/XhR+FhI+yTtkbQ4x0gEzbNostCYvJVlJ9ZjWF+ndG5s+nzxPxYFN05h9T0yvcmBHTISkzG1fIzWD3Mr/L8zk/MR2zRHZxLTUftK6qjz03F6Sv2eDiwEyr/eqttX7yxcS1eDmz4XV9dViKSr5bjzOph8Kvos/MTmB9bhDvnUmESUwKtlzdcKzxIqoW2uQTlpfVIZPW4BSQOcHd3NL2nY0EbUpdAjBgTgLztixE2ZSyG9QtAx8Erka7TQ6+37A8eFp16H6FjP4Py1S+x7p/tjHa1rl0LbKbqg7Fj3HBybgBatfFD/zGz8U1+IIYP7IRmQitVSOESOAJjAvKwfXEYpowdhn4BHTF4ZTp0etZ/nWHpkZt6GlfsH0Zgp6q/2Wvb9w1sXDsJrU/fK9nKcSH5DArb9kAvr4pgMOgqCD076nA26TTKDDskWnh5u1a+ayXVatFcUo7SUv4HKDkcDofzv4MXwNZCEshkNqz8q0ACjUZdbZtRa243FEmmXSUoYbWeXbdQzAoLQ1jFJ3wZoqIX4/l2dcvoEtMFCJ1V7fywcCyLisbi500FWoOUlbNyTAYbeQ3pxCkpYYW1HbqFzqrWZxjCl0UhevHzMIkpgY1NVeFjpMFurB+3EYkNbGQVjYq3oc/aigkBAXj+re1IzFXCK2g8FswbDjcLvVz/21ZMeS4c5/utwpZ5j8O+Yr+V7YrbzAED3j+GhO9WY2aIJwqOrcXrzwXCf/g6XKjzcqweWVsnICDgeby1PRG5Si8EjV+AecPdGgzesnLWCPPR+sx+L2Ur1ZWzfuQ1fZDZTMZ26PU6k88bbGipm3A4HA6H8yfBC2BrsGkLX28Nrp5ORXblIv1inDl7oXJRj6EopNIS3Kksgktx7Vo2K2MYNi3h6aZBYZE9eoSOwZgxps+oAf5o59sV3o61zWGDlp5u0BQWwb5HaOX5Y0YNgH87X3T1Fp6ONoDUyQNudrlIP3vN1L+B8jSsnTwK83ZfFXbUxaalJ9w0hSiy74HQij7HjMIA/3bw7eqNOmLWh6RamWP1uOtBtA3g8tZV2JzdFyviT+C/X32CZeFTEdKiDL+zwesrFdAAeT9i/vCXsKvlHHwV9QLcK4s2vZXtitsMOfH4asU2XHt4IhZE7cCx9CtIWv4ECvZuxB7DYrPqutNfxtZVm5HddwXiT/wXX32yDOFTQ9Ci7HcmmeG/2kjh5OEGu9x0nBUWrhkoT1uLyaPewilt27uTrRIZ3Nk4ZZdTkHKr2v6iJCT/CrTx8IRc2MXhcDgczv0GL4CtojmCxw2HS+w7ePWTBNzWlSBz73zM35wlFMBSaN3d4ZB9EFt2ZRieWSJz30Is/y5PeAJsj+DRQ+F84j28HLkfV0oA3c04LB//FHoPiUBsofGkGtgHj8ZQ5xN47+VI7DddgLjl4/FU7yGIqO+C6mj6YOQQV8R9OAfrU/NZsZaP1PXzseizk8i3dxBOqgf7YIwe6owT772MyP1X2Ch0uBm3HOOf6o0hEbEQ6dWIRKGEggpw+7bhO3etH3ddxNuQyWWQlN5ERsZtVhjqkHPyU0xb8C1uGyzR0LdNGCg/i0/GjcTSK70xb+Fg2GakIjXV9EnLvG11u2I2k0rOY8eiqZi2cC8y2WGU/44rv+Wg1NENbvbSWrqTQS6ToPRmBjJus0JTl4OTn07Dgm9vG5/U1zcsTZ+RGOIahw/nrEdqPiuS81Oxfv4ifHYyH62Gjrkr2arjFDIaAzUxiJwahfhcJmvReXwdNg9bC7tj5HO+7FZAnPKz3yFqzTacyK1bynM4HA6H84chvAvMsZhbdHRpCHmopCRXKEju9AiF9GpNKuFbHqgkhVYP8yK1VEYqjYo0HiE0d8rjZFtxXJdNRyJDyMtWSlKFipQyCana9KPwmOuVC4VqoqPsI5EU4mVLUqmCVEoZSVRtqF94DF1nF5j/Fgh2PDeWFg/0ILWNgjRqOUnZuQPf/omNomrBnpEa3wJhEPMIRYZ4ka1USgqVkmQSFbXpF04xhk6NC8jU1HLiHjKdzShLpHB/NfmHJ5q27xyk6T5KslE2py4zj1g9buMiOHUbemlftXGJtKHLiaE5jzqSjOnJtpmKFI5+NCpyNgVrtTQ4+jqVNbAITpf1ET2pMN6j1PkoQ9aJtltXfvM2Y8qi9C8mUletDdmompMds4vcOZCmbsswLTqsobtDlBMzhx51lLEx21IzlYIc/UZR5Oxg0moHU7SpwVroKDd2MQ30UJONQkNquZTZeSC9/ZPhax7uTrYa3wLB2roWM4+eclOTxIb5OmtL1TqIpm+/aFw8aPQpdUuauKfSS5ibhJO/2p/CE41nUP5ng0gp70bzk0zbHA6Hw+H8GUgM/7CJnmMlpTfOIOHXArh07oyst/zQ//iLKPpxVsVR3DybgLO3mqO9f0e0qGe9mS4vA0kpmShQtkanru3gWLVeqX50echISkFmgRKtO3VFO9ELqlOO3POJSM3SwaWDP3ydLb1Wh7yMJKRkFkDZuhO6tnOsWkxnAfr8DCSc+g361l3xiKfpjVqrx10PZtvQ5+PSqVO4VKyFt19ntNII+++WxrQrYjN9wRWkJp/HbakzfPweRAuVcIBRW3f6/Es4deoSirXe8OvcChYNqzwX5xNTkaVzQQd/X9Qw+13IVgfWT3riaVyHKzp09YZTI2zK4XA4HM6fCS+A75pS/PRal1oFMIfD4XA4HA7nfoW/A3wPkEhtYCPla9s5HA6Hw+Fw/grwJ8AcDofD4XA4nCYFfwLM4XA4HA6Hw2lS8AKYw+FwOBwOh9Ok4AUwh8PhcDgcDqdJwQtgDofD4XA4HE6TghfAHA6Hw+FwOJwmBS+AORwOh8PhcDhNCl4AczgcDofD4XCaFLwA5nA4HA6Hw+E0KXgBzOFwOBwOh8NpUvACmMPhcDgcDofTpOAFMIfD4XA4HA6nScELYA6Hw+FwOBxOk4IXwBwOh8PhcDicJgUvgDkcDofD4XA4TQpeAHM4HA6Hw+FwmhS8AOZwOBwOh8PhNCl4AczhcDgcDofDaVLwApjD4XA4HA6H06TgBXBjKP0Nh6LewMRh/dE7qC+efn4SFqyPw3WdcPxeoruInZGzsOJgjrDjb0jBT/h41jx8lVYu7PiroMOlXYvx2qwVOHBDL+y7j7hr39Hh4s5IzFpxUNi+dxQdW4NZ877CX87kdailo6JjWDNrLjal1j8w3cWdiGT+cjDn/vEX3aVdWPwa85MDN3BfSGWl3+bFrsSst7YJW39t7pkt8mKxctZb2HbOMCkV4diaWZi7KdV07F5QkonktJx75i+lJ9fh9RnTMX16/Z8Zr6/DyVLh5HuB2JzTYBzfu5x/L/xWl7kHC0YPQNDjfTFhbRruJp3+WTn57nNgHmJXzsJb284J242HF8DWoruA6JE98MyCQ9B16Idhwwfh8TY3sG16b3Qf9yUy7/UMosvCkfUrsfXEbWHH3w99YRK+/ugTxFz8gyPvXlN8FCteX4z98EM3l/swlO7ad3TIOrIeK7eeELbvHXdSdmDlJzH4q5m8LrV0VJqJn7/7HqcauBvWZR3B+pVbceI2CXv+1xTj6IrXsXg/4NfN5f6YEKzyWz0KErdjZfS9v0n787l3ttAXJGL7ymgcvGwIsFJk/vwdvj913XTwbmE3KB8PCcDYTZn37oapJB+5OTnIMXyyz+KH6I+wfv+vyK7Yl5uPEuHUe4HonNNQHN+znH8v/LYIu+dOwKIfZXhs6BD07+J6Vz7zZ+Xku86B+gIkbl+J6IOXhR2N5z6cte9vSk9GYdleW/zfVz/gs8gwTHtlOt5Yvg2HokeifOtCfPTzvbxN5dzP6C7fgMPINfgiojfshX2cJo52BD5NOY63+yqFHfc5usu44TASa76IQG/uxP9b/jBbaDHi0xQcf7uvsH2XUAFu3Cy4d8UvQ/HYq1j7+QZs2MA+6+agn7MNXJ76D9YZttnn87Wv4jGFcPKfQQNxfF/lfH0+srLy0fLpGVjw2jS88KgDL+is5G+oLz2uH1qK0MC2sFPIoHLugAEzvkRasXD4LqG828gnG9jU0JwUTk+/hvciJuDR5sIB/XUcWhqKwLZ2UMhUcO4wADO+TGP3+CIUpWDDtCfh46iCwr4d+s35ATdq3CiJjC/vOD4a1xPtnW2hUNjDLWA4ImKuVSYr/fVDWBoaiLZ2CshUzugwYAa+rKYc/Y3DeHfcE/B1sYXchrXv5IO+L29Emsjtd97xjzCuZ3s42yqY3G4IGB6BmGtCr/obOPzuODzh6wJbuQ3r1wk+fV/GxhqNEnJ/ikCIrwOT2w4ej7+IqIR84ZiY3LnYNqUXQufMxbMPOsLW0R+vHywSjtWlKOVzTO3bHg4qJbTeT2H2hg/wUq+J+Pw3Ji+TdfOknhj0djwqb2XKk/DesJ6Y+Plvpm3Btj36/BMLI/6J3n4W2Pb2bszsHYQZu24JOwwU4L+z+6L3v3cZt8yOMe8bvNJrNJZ9sQTDH3KFRq6Eo28wZu/KROUzCjHfEfXJIqRsmIYnfRyhYr7Trt8c/FCjgVJc3BWOof6t0Ewug9rlQQTP2ITTFarO3YYpvUIxZ+6zeNDRFo7+r8OMGZjJbyHu7efg10INhdIRvv1n4uuMitHocePwuxj3hC9cbOWwYfI6+fTFyxvTzDwJuo3dM3sjaMYu1NDyf2ejb+9/w6h6ER3kffMKeo1ehi+WDMdDrhrIDXIFz8auzAq5RHRksNNj/TH/iMl7ilI2YNqTPnBUKWDfrh/m/HCDeXo1Si9iV/hQ+LdqBrlMDZcHgzFj02nWixhMjs+nom97B6iUWng/NRsbPngJvSZ+zo4x3W2ehJ6D3kZ8lRMj6b1h6Gk8bkDIIz364J8LI/DP3n6W5UnBD5dEz8eQTg8wHdiiTY/JzE9TsHFyL7g3Z/Hv4IOBi47gVkXSERvjXfttTUov7kL4UH+0aiaHTO2CB4NnYFOlkzZEY/xNgMn/+dS+aO+gglLrjadmb8AHL/Uy5QtL8kljbcFsmrl3IUYEukOrlEPt3An/eHM3Kl21kjx888pj6D//iLBtfg4xGwP6LGycNBafnClBevRo9By3DoaQFZtX7hqROcQk8xJEzx+CTg8wP7Jtgx6T2ZhSNmJyL3c0Vyjg4DMQi45Uzwxm5pxacVzhg/XnfIN+e2H0si+wZPhDcNXIoXT0RfDsXfXYoiGs9L/yU1j+3DNYygL8+jdT8ViPV/BNHtsvFivlmdi7cAQC3bVQytVw7vQPvLm72hxyz3OyBTnQyviug0X1RQPQ34yy5KUUpHWgbi+tor1xCXT060U02FND3pP20i3hnLvi9xia5qsk+QN+NPTVJfTZ3l/ocoFOOFhBGSUvDSKtQzd6adVeiks4Sl8vGkyeGm+atNecFAV04FUfUj7wOL32+SE6dmgjhfV2JZlETj2XphvPMD++Mvr5P13ItsM4ijqQQCm/7KN3h7qRos2LtLfAeDEtDdKSQ7eXaNXeOEo4+jUtGuxJGu9JZBIrm7aEupKq/Uj6YF88JSfH0a53hpKHXEtDN+QYTqifsp/pP11sqcO4KDqQkEK/7HuXhropqM2Le9mIWKtbQslV1Z5GfrCP4pOTKW7XOzTUQ07aoRvI0Kru2irqp5CQjUMATfkkho4d2URz+rQguceLtDvX0L6I3LprtKqfgqQaP3ppQyzFbt1CR27UtolAwUGazuzn2H0aRR88Rgc/m0E9W9uSStGTlqaXs7Yu0wd91OQxZT8VC5dQyY/0bx+1YING2pbJ+NlgB3JgY84WdtGtLfSCi5ZC1l4VH2N2FAWrVNTM80mas+EQxcftoojgViRvOZ525hsaE/MdcbkLDrxKPsoH6PHXPqdDxw7RxrDe5CqTkLznUuPxwtgw6qKxp4cmfkh7jsZRzDqmO2cFeUzYQQZ1m+woJY3fS7QhNpa2bjli3F8f2VHBpJT8f3tnAhdVuf7x3wzMisAAgiiyI5gLRCJiJqm5kHJd82a43uz2MTOzrqbeSjEJWsyywpRMKs2bC6aW5i3coBTTAtkEQwUSFEWUAGWAmef/nplhhzkzQP+6db59xjjnvOc9z/Y+73POzDtjQT1GvEDbT6TS2a/X0SRXCfWYs8/QYBdFOMupz4x36fCZDMpg+r45xYMkqinUfihq6NrHk8jOjrVpNDLtesyJVOFb6KqG3wacXHJ5N/J8aCVtO36GxWoUhfWSUM95+3XH+Wyk95MTzd1/l2tMz/rKqPsD/6JPj5+i49uX0whnSxJJDLFGVZS8fCApbe+l+e8dpJMpibT1uWHkKPWgx/ddZ9q0T+WxJeQns6eQxfF07NQx+pid52IlJ6lODg1deXckKTwW0pHGIKbvnvclhUHODudJTj+ZhBTu4ygy4SSlJm2k6e4SsnFwo8H/3EyJP6RQwgv3k0o+lF7LMUXHzsZto646qpJp+UAl2d47n947eJJSErfSc8McSerxOO1rLxg5OhRvHJV0bIkfyexDaHH8MTp17GN2PReykkv18vPmk477Qp26loK72VLgE5vo2zNn6Wjc4zTQSkXjYi+xy75LIxUetFAXAKUUFyYnp7n6GOa7nvExUEHp+6J0+dt10mqK25dGt3jnFTNRn6DF3lLyff47FrV6+OYQXT6RKMh9XCQlnEylpI3TyV1iQw5ug+mfmxPph5QEeuF+FcmHvqbrj3fOaTqOeWNQb195N096aOU2On6GzZtRYdRL0pPm6ZNzG7SIW3Pjj80npz5/m+b0l5Lj6OX0wUdf0/lqPjnVlLo2mLrZBtITm76lM2ePUtzjrF5QjaPYS3V6G3Z1TubNgfw5uRVNxhQHX2wY409WAFdT4lPuJA+JIV3uNVC6fRrZ20yk+OuGHZ1EffkgRc16gLxsmSMhIrHCmfzHP02x310j3WWrE+kpdzmFxOTot3WU0vZp9mQzMZ7aFaMigWY5Kij0rbyG8zRFm+lhG0My5dXvLiVE2JP18Cj66bY+2dflf0ObY/dTJhuH1YlPkbs8hGKan0zT7G1oImccTQmd3rGB4k80mXzVSbSkj5wGR2U30aUFdxMowt6ahkf9RPrL1lH+N5spdn8mS5caKjm9gzbEn2hSDKkpaUkfkg+OomzWqS4ZyeT0wJu5LfRmhfenN02QmyuAZSQfHUtFRuY4jsq9s8mRTc6NfWmo4INxZG1qAdxR3zLKds4gJ9VE2npNL+TNzx4hh+6P0GesWOPVUVd4SCl0/eUG36iPLyZv+WCK4ozIFzu8cldQwixHUoS+Rbq8xKEpos0P2xiKqgra/ZgDKYbG0PmGDjRUvHUiqZSj6L0CTYMfR8cWNcZPO+iSrfQBerPhYmo6udSP5EFrdVuaktO0Y0M8nWhStKiTllCfen3bo2wnzWA3FRO3XtPLcPMzesShOz2iNzKv7/RyhdL6yw1WpuOLvXWxytnAuI0YTSbOioRZ5KgIpbcaG1PR5ofJpj7WKnbTYw4KGhpzvlEeTTFtnagi5aj3iJm0HSpp72xHNpk3yQOaAvpgnLWJBXAn8qQhDrmY0p9aTd8ucCOJ+wL6lqsVGJri9+kheU+a/xXbwadjeWfjtnkhUbH7MXJQsPHdGKTscltpokpJo94raDcuOxxvlXtptqOc6dcon6bgAxpnbWoB3FFf6ONS5v8ina2vEllcHImaSfPfP22kAOa/nvExwKhNp8hBCvJ/6SdWvnAu4sld5tKqAOafQ/Qy1xdVjOpvaYGbhNwXfEv6sGS56v2HSN5zvn6LZ85pOo75Y5Czr4ykoeup0WTHmQ76ebNtmsdth+KPjaP3H1KQ56Kj+tjik1Mnk4z8XzxrsCuj8ghFzZxP75+uNtiwa3Mybw40ISe3olkBzB8bxvhzfQRCU4y0jKuoy9mEqQEDMGCA/vVgZDLu3L2ArLyGN6E6hdRjPF7cloyLJcXIPLoD65eMhV12PJ4ZMxrLj1cwMdKQcbUOOZumIsAgw4ABDyIy+Q7uXshCe2LU5WfifIULAoNcYWHYJ3a6HyF9LPUbvPqJMXLObLj9+DKCevVGwJjZWPFFBYKnT0D/bhoUp2Xgal0ONk0NaDh3wIORSL5zFxey8lAjdkLwo7MRVJ6AmOULMWfqaAT1m4TYPA20Wm3zty2aIh+JObPd8OPLQejVOwBjZq/AFxXBmD6hP7pBDKfgRzE7qBwJMcuxcM5UjA7qh0mxedCwPrX1nVq4I2SYRxO9h2CwdzXOZ5xHPp/cujNEsHN3h73RiNagICsHvzrfhyEeDVeCS+gD6GswMR8d9S2H3fgITLA6gT1fljB7XseXu45A+jDb52CCb7gORCp4+TQudBCrVLAW1aGmhnhjh1fuO/nIPF8Bl8AguDZ2gPtD+kDXQ90lZORUwXXocHjVH+d8GzoM/TS5SM+u1e8S2cHd3b5BRmOIVN7wdWn0g41NN4jU+je+xE7BeHR2EMoTYrB84RxMHR2EfpNikadhMdMQNG1gNx4RE6xwYs+XKGHxdf3LXTgifZjtczDZdyKVF3ycG6wMlcoaojp2sI7HRs2oQ37meVS4BCKosTGc7g9B/XCuu5SBnCpXDB3u1eAzrr/QYf2gyU1HvUlboSlAVs6vcL5vCBrD2AWhD/RtQ4426GyeFNnA29fFILMIym4KWPZ0h6tEtwNipRIKkQZ1Gn4dM/I6GbfNRK3DpYwcVLkOxfDGIGX9hWJYPw1y07PRnkk7Gm+agizk/OqM+4Y0yV0uoXjA9ITSMV9oy5CVXQTb+4LRv+GzsVYY9eJ2bHk62LDdBiZer90x0AoTc1enMG0OEdk0ySciJbopLNHT3RX6sBRDqVRApGmywqvdOedCM5lNi0ERVF4+aDSZCiprEepqTNO+w/muCXxyXriWhewiW9wX3B+NITMKL27fgqeD9Z917tqczJ8DzRvfbWFifdEOJo7S/xXUUDOD2QyKwLK59zQmXA6xNfp6d1bdOmTvfQeHtOPwzCMDIZM5ot/IGbrXM0tn4KngSfj4o0S8/qKaDSAbDIpYhrn3NJOCidEX7YrBZgwNc6hl0+MiOeQykWGDXz87p3dwKvVhfP5ZAg5+cxRbXvgMG9ZNxqakz3G//mRELJuL5mKJYd3XG5baYux+fDhm77yLfqGhGDQwFPOm/Q2nXlyOXEPLtrHDuHdOIfXhz/FZwkF8c3QLXvhsA9ZN3oSk3fMg3/s4hs/eibv9QhE6aCBC503D3069iOXNOpVAKmlaNlnCktskgppPbl1pLoKFhSX7lw+CiBnYoklDkW7CNmwYaD5uuIFk2KPuoG85uo3BzEn2mLpnP4oetsCuE9YI/89Y3WKKq7w6ZjJBLZiOht0GGsTmix1euetwmBUs4uYdQC6XGa5RA27usJQ0V1DEbG7J2UdjsA8no2ULY7aD/ty20RbvxuPDZ2Pn3X4IDR2EgaHzMO1vp/Bi86Bpg24YM3MS7Kfuwf6ih2Gx6wSsw/+DsXojm+Q7ETNy86P1+tRBY9RGzanTN26mo0guR8NwrmFFIjva3KQsjrn+WfKuN2mbkIj52qLJdVkhyk3whi0dLc7nJin9rk7mSZEEEkOx24CIyW34sxl8OtZ2Nm7RrKit0Qdp87hiMam/nKalSRroeLxxrmA+bp5QoGyRUJpft0k+6bAvanU3GJYWkuY+58WE6+lSTXtjoDX8+bmzaFG8m38OEbGgbB2WzbVoTvtzTjNMiMFMLqbbTc78dCb+GuCTk06xscbmPkn7gnV1TubNgZ2ZT3WYFhvt0fnY/CNh0ROebkpUsbucoRGz4Wewp/Z6JlIKlfAx/njQBLQo++5DvLg/H/eNfx+jlIbdDLEqAAPdxdjFHG7R0xNuyioU2Q5FxGw/QyLR4npmCgqVPu0+pbR07wNP2VVkZ5VBe7/hSZ86FxcKDHetfPqpbuHM59uR2SsC89eMwz/XAHdy3sGkkBXYfvAGpnm6QVlVBNuhEZjdeDIyUwqh9LEHrsRi485SjNqQja+edNFfv/xzJD3DLQ6rX9HSGu3NM9i1PRO9IuZjzbh/Yg3uIOedSQhZsR0Hi0dBu3EnSkdtQPZXT8JF3yk+T3qGmwbYfwY0RbjwcyUQpNJvV2QgI98Snr6+cO1mXG4xTP2eWwu4+vlAeTUbWaVahPbSO6I6JxeX2DjVwxK/BaFGfbdx0qq5hmusPUdHfatHjuEzp6LX+H34ZKsW33WfjAMjrXRHevL4Rty++XXwxQ6v3FKgj6cMV7OzUKa93/AkQ43cCwWsgGFYurPYs8SVzEzc0g5BD4Oed9Iz8DN6Y4xny6mnM2hxZfdG7CwdhQ3ZX+FJfdCwUEwCTyjqkA+fiam9xmPfJ1uh/a47Jh8YCZ2VTfAdt46kXZgNjNqoGZZw7+MJGRdrZVrcb3g0pM69gPrhbOnO5LG8gszMW9AO6aH3GRs76Rk/A73HoF2TWrjCz0epk6NUGwp9GFcjJ/cSm+D0cJMx1ahxtzGIce1aqX68/eZ5shE+HX28PToXt+yExi/3YjZn48jySiYyb2kxpDFIob+cZ6sCSU/H483C1Q8+Sk5+ZtvQXnr5q3OQ25BQjOeTDvtC7AAPNxuU5eXimvZhsKmHUYfzW55B1C8TsO1JXavWmHA9nuHFEDWp7Sz4c5d+T8fRXsFuU+YQc2l3zjE8cDDAH4MdlsBA5/JdPXxydne8CjebMuTlXoP2YXe9X+rOY8szUfhlwjos1rVvj47IyJ8DOzefMjoZG3zd/49hi7BZU+B49m08HX0ERWoW4zdSsH7eWIyYHIXkKtakLhdfx23GnrNl+lPMQoqQ+f9EyM14PPWP9fjvhdv6CedOEb7b+Bw2nHLG1BmjmBhhmDXFEWfffhrRR4rYFKnBjZT1mDd2BCZHJYMTo03sxmPeNDscfe1ZbD1XDk11Ab58KRK7rta7kUe/uyJc3PcqFi1ei0OF3ArIOvxa9Atu1tjDzc2WiTULUxzP4u2no3FEfzJS1s/D2BGTEcUZh3tyIqrBjfx83GaX1Nz8ER8tXoMvb7OgNbwN0hZi0UXse3URFq89BP1lf0XRLzdRY+8GN1spJJYi1NzIR76+U/z40WKs0XfauNKTbuNgzL+xL78a2spsbH9+Db6SjMfsid1hxye3GViHzcV0p2S8+eyHSL2tgbrwECIjd6K4fr4Sq+DubofSY7twIJ9dS12Iw2vX4+tyw/TVUd8akAbPxHTPk1i37nu4TovAUMO37PD6hg++2OGV2w7j2Z2z3dHX8OzWcyjXVKPgy5cQueuqIYk4IHzWBCgTo7Eo7gzKWAK7c3Evlq/ejaqQGXikfuLrIrgnzaKaG8jPv82ur8HNHz/C4jVf4jaT3Ego6pEGY+Z0T5xctw7fu05DRKORO+U77p0O4zZqjt34eZhmdxSvPbsV58o1qC74Ei9F7kLDcHYIx6wJSiRGL0LcmTI2Wu/g4t7lWL27CiEzHmkoTlpjjbC50+GU/Cae/TAVtzVqFB6KROTOYqYRhxgqd3fYlR7DrgP5nMVQeHgt1n9dbijCTMiTXQWfjt07G7fNcQifhQnKREQvisMZfZBi7/LV2F0VghmP1E+wrelwvFmHYe50JyS/+Sw+TGXzAcsXhyIjsbM+ofDlkw77QomRMybDOeU9rPwkCxWsAqnI+gSRr36MHyuMfUFXF/heJIVMSqi8fVt348efu+qQ+3UcNu85y24cdT2YCfcOgglziLkYmXOaFUadzhv8dCrf1cMnp3IkZkx2Rsp7K/FJVgUrWiuQ9UkkXv34R1TY2hk6aZ+OyMibAztt207GhuGzwH8eNKWUFB1OXlZiEkvlJLMUkbz3aFqVWEK6z0hXfEwTZRIaFJmua24+dVT8zRqa1FdFliILklpZk1IiJpnzYJq36Sz9amilKU2i6HAvshKLSSqXsbZy6j16FSWWNH6AvC00pcdpzZjeJBdLSCqRkEPIXJoyQGlYMKFrYFS/2rzPaL6/iiws5GRtoyCJxJGCF+2hfN2HwTVUmhRN4V5WJBZLSS6zJJG8N41elUg6sTQ3KXHlELK3ZDJbdSO51J4CZkbTijAVqSbF69u0SS3lfTaf/FUWZCG3JhuFhCSOwbRoTz6zloZuJq6kIfaWTF4r6iaXkn3ATIpeEUYq1SSKZ53qFiQo+9DEuSOpp0xOcmZPiXMo/fvwVb3PeOXmFsEpqPeThxsXmhjh1sk3KNxDTmKJlNnYgQaHDycXeeMCCnXmJprqpSCxpZyUciV5hL9MCx+wavBBR32rp46yo4eQTDKIVp/jlpDUw6MjtyhD0ZPmHzSsNGLUpq2iQEUgrUrT98MXO7xys9g6vmYM9ZYz+0uZDx1CaO6UAaSsX+DF7Jy4eiy5KUTMz0oWe3JyCV1CCZcN1+f8qOhNTx7m9wK34ELRcz41qlNLma8MIsXAF3VbmpuJtHKIPVkyW1h1k5PUPoBmRq+gMJWKJsUbxrIR6rKjaQg3zlef0y3UqYfPBm3JlbYqkBSBq/SbfDZquniG8+nxNTSmtz7WJCzWQuZOoQHKxljTXEuk1WPdSMFyiVzJ5JG7UOiSBDKY1Ai36OQb4eShk4P17TCYwoe7kLxeDnUmbZrqRQqxJeuXxbFHOL288AGyavAlT55sj1ZxqKbvl/qRYuhr9HP9gpPbWylcUW8Dfh07F7ctVtOz7WuJq2msm4JELAcq2TiSu4TSkoTLzeKgJZ2Kt1sn6Y1wD738LCYcBofTcBd5g/x8+aTDvtCUUXLMBPJQsHlIyXK9WEEeE16n72+xQ0a+BYLverxjgO7SsSW+JLOQkfXApZSk5sldVEEfT5SRZFAkpfPGNaONRXB8c0grmdXf01I/BQ197eeGxVW3t4aTwmmu7m/eOafZOOZMZiwGOfsqqOf8g4YFd4zaNFoVqKDAVWmGHS1psQiuI/HXchEct4snv2nKkilmggcpLKSkZPO0mMXIhNe/b/j2j67PySbkQB6ZW9FiERxfbBhDxP1jqIX/VGjK85GeWYhKmQv6+3vr3uLtWtS4kZeJC0VVENu6ou8AT9i1+kCJBuX56cgsrITMpT/8ve0bP3xulGqUnD+HvCpH9L/PC6o2ntMb1U9biaKsDFy8LYajbwDu6SE3HDCgKUd+eiYKK2Vw6e8P7+Yno6LgHM4VVEPlE4ABvZp8zoMHbWURsjIu4rbYEb4B96DpZbUVBTh3rgDVKh8EDOiFtnvVorIgFWlFEnjd649WlzYqt5nUXEdO6s+odBqAAcWvIGDMaTyRcQLLvA3PiNidbm5qLm5Z90Fgvx5o/bMGHfUtD53WkS92+OWuLjmPc3lVcOx/H7zaCL66sjykZZcAzn3h7+PQNXq3hbYCBefOoaBaBZ+AAa3jocN03nd8NmpGdQnOn8tDlWN/3OelauNttzqU5aVBb1J/+DiYLk3N9Ryk/lwJpwEDUPxKAMacfgJ3vltWfxQ3clORe8safQL7oUfrIP5/yJP18OnY+bhtRl0Z8tKyUQJn9PX3gUkm7VS81eB6Tip+rnTCgAHFeCVgDE4/kYHvlnkbDvPlk477oq7sItKyiqFx6otAP0eTY7lTvme2yk89h1+0LvAf5Albzl9dmZ/bwLQ5xFx45pxm/EY5v54uy3d8crKxeDENWcUaOPUNhJ+jGVp0VEbeHNg523Y0Nv60BbCAgKnUfP8vDGxZAAsI/E9Rg+//NbBFASzwu1DzPf41sEUBLCAg8IeD59GFgMBfAJEYFhZibiG7gMD/LCKxBSzEQhD//oggtrCAWEgoAgJ/aIQnwAICAgICAgICAn8phCfAAgICAgICAgICfymEAlhAQEBAQEBAQOAvhVAACwgICAgICAgI/KUQCmABAQEBAQEBAYG/FEIB/EdDXYiM8zfRoR/M6ULKk2Ox7JU9hq0/HurCDJy/adxKml8O4vV/LcVbh4sNezpIeTJil72CPRfqfy6uK9Hg8v5oLNtwzLBtnD+6X/4I3Dm1GctWf47zhp/bbIsuiw2UIzl2GV7Zc8Gw3XVoCg4g5vklWLKkrddSvHu8I79m2YQ7p7B52cvYkWXEUL8Dpoxts+jSnKpGYcZ5dKV4Tan8/gOjsauL7Zd3GLaaoCnAgZh/sTxyFNd/78mDwadHl/Ob5uj/L+7g1OZleHlHlmFboGOYnpOFAviPhOYyPpgchDk7Cn/nAliLyrQExMabVpT9f6O5/AEmB83BjkJjVqrBmdjliDpcA/9gZ8O+jqGtTENCbDyOXfktsrkGxUmfIHb3WcO2Mf7YfvmjcDdzH2I/TMTldt3VdbHB/ehMWkIs4o9dMezoOjRXv8On72/FNzk3cPPmzVavX+92crKvKcQPX3+DcyV/nKLBtLFtBl2aU9nN6geTETRnB7pKvOZoUZW+F+8bid2awh/w9TfnDFuNVJ/cgBdijgABg+D0u8/q/Hp0Nb9tjv7/ogaFP3yNb86VGLYFOoQZOVkogP9IUCWu36jsgkT954Yqr+NGJY+VNEUosZ2GjTtewxh7IcwFmvC/FBui7nho+VZs27atxSseLz3saGjUQVSP4qPM03h9VFu/S/b7YNLYNocuzamEyus30JXimYvq0Y+Qefp1w1Y9Gly5bocZmz9D1Ahbwz6B/z1UePSjTJx+fZRhW+C3RqgMzOH2V1g6IhTPHbhl2MFRif+uGIURzx/QbWlLjuONiGC42khhKXdE33HP4T/nq3XHUP4Fnhk+C+s+ew3T73WGUiKDvV8YVhwohEZbjO0L5uDDHDXy4mdh2NytyNew/q6fwFtzH4SfkxUkFpaQO/hi1NPbcV6t79IYVUdfwuj7H8cnTR9X1JxGTPhwPLXTnLtMLa6feAtzH/SDk5UEFpZyOPiOwtPbz4NfjHJ88cxwzHotHpGT+6O7XAqr3kPx1H/OI3P7Uxjubg2p1A6+E15F0i29nMZ01hZvx4I5HyJHnYf4WcMwd2s+yvYsxPCIlXh52j2wt7JH4AvH2JxwFRlJifjhYo2uT+7nHwsPrcWjwe5QySRQOPbH3176CoU6G+/EgmET8fqZ+rasdfrbmDpsPj79pfVs1xmfcG9zZW5bjId87SGX2sJ79Ep8e73pV3FrUXL8DUQEu8JGyvp27Itxz/0H9SFkMsZijTuuvY6dC4Zh4utn0KB1XTrenjoM8z/9Rb+tLcHxNyIQ7GoDKfO5Y99xeI75TSeKCWOh5vIBrJoSiF7dJLBUOOGesOewI/uO7lj73MZXS0cg9LkDaNbzf1dg1IjnobucMbnqoVtIef0RBPRQQCqzh9+YpdjLDSiO3zA2uKc4lw+swpTAXugmsYTC6R6EPbcDvGp3hvLTeH/uMPRxtGJjyRZuQdMRlXiNv+jjYuT+MYhM4nQzd5zq2z8W8xFWT/CFnUwGledwPBF3lh2px7gtWo7bexf+u9XY5uL0xFtz8aCfE6wkFiynOsB31NPYbhhs5V88g+Gz1uGz16bjXmclJJyvw1bggM557eRUYzm6XbQo3r4Acz7MgTovHrOGzcVW1pnxXGB+7tNBZfg+Khx+dlJIbTzwwBNxSK3QH+L0vX9MpH6DoddlKEb+Yy2i/jECAabON/oWRik//T7mDusDRysmh60bgqZHIfGaQU4ev+gwogeHUT+U7cHC4RFY+fI03GNvBfvAF3DMjDHEl6ON6saD0byms/ljiPloNSb42kEmU8Fz+BOIO9s4KuoKD2Hto8FwV8kgUTii/99ewldcvOri5X6MiUzSN+TLJSb413isl+P0+3MxrI8jrKRS2LoFYXpUIkwzA5vHPl2EUX3sIGc6+oxdgW3vPonh8z9lx1i9sHMBhk18HY1psw7pb0/FMN1xjs7Ncx0bw23A/RCGgIlortHHk+zIbso2KjXsolu76DEnFYVvuUpUm0FvhKrIbtCTtPFQCqWe3EuvTvIkpc8COnSLtS2NozC5nLp5PkQrtx2nMykHKCqsF0l6zqP9FRWUvi+KpnhIyHXSaorbl0a32FV2RTiTvM8MevfwGcrISKEDb04hD4mKpmy7qb++Mcp20qPdFXT/6zlUZ9hVfewZ8u42kt65VL+nLTR05d2RpPBYqN8s3UURznLqM+NdOnwmgzKY3G9O8SCJagrxi1FKcWEykijcaVxkAp1MTaKN091JYuNAboP/SZsTf6CUhBfofpWchr6Wo2tvVOeKdNoXxW270qTVcbQv7SZd2ziapGIlBTy5jZKTd9OupOtM0UP0hIuCxm1ifzPUqWspuJstBT6xib49c5aOxj1OA61UNC72EmmuvEsjFR608Ei1ri2H+rvnyVcxjN7Iq2txvHM+qTz6LPnKutMD//qUjp86TtuXjyBnSxFJhr2hO16b8QaFquxo0JMb6VBKKp3c+ypN8lSSz4JDLB5a+MUYRmONHddcoXdHKshj4RFq0Fr9HT3vq6Bhb+SxjVrKeCOUVHaD6MmNhygl9STtfXUSeSp9aAEXzHxjoSqZlg9Uku298+m9gycpJXErPTfMkaQej9O+6xrDCW2hoWsfTyI7OxZbjR3TrsecSBW+ha5qeORilMaFkUxkQT1GvEDbT6TS2a/X0SRXCfWYs093vCtjo6kdOaqSl9NApS3dO/89OngyhRK3PkfDHKXk8fg+Mqp2G6hPLaO+Uk9adLTx2q2ppR/+PZCs+s6luKOplPnTYXprihtJez9BhyoNTdpDFyNONHf/XW7D7HHKtZfKuzNdP6BvT56gHStHkrPEjf6xTz8OjNuC+bnluD18vMXYZhlwVwQ5y/vQjHcP05mMDEo58KYuR6pY3HFX4Xwtl3cjz4dW0rbjZ9jxKArrJaGe8/azo23kVL4cbYSK9H0UxeU910m0Om4fpd3iywXm2tRgExa7dkEL6cPEU5S0YyWN7CEhjye+ojKuR05fp7mcOJ2cb/RdtEvtD/TvgVbUd24cHU3NpJ8Ov0VT3KTU+4lDxIWVcb/w68Enu+baRhotFZMy4EnalpxMu3clGR0/ZuVoHt2MwpfXOJvLpCTvfi/N/+BbOnliB60c6UwSt3+QblioU2ltcDeyDXyCNn17hs4ejaPHmSyqcbF0qY6LFzk5zeVi14RcwudfHhvX/vBvluf60ty4o5Sa+RMdfmsKuUl70xO8iYPNY8eWkJ/MnkIWx9OxU8fo4+eGkYuVnKS6eaxxnmpMm2r67nlfUpg0z/HAF/ctcrIxhALYTMp2ziAn1UTaek0/Gm9+9gg5dH+EPmOTdXXiU+QuD6GYnCbFZel2mmZvQxPj2WRrGByh6y+zENGjPr6YvOWDKSqbnVObTpGDFOT/0k9sWmNoSuj0jg0Uf+J6Q3tSJ9GSPnIaHJXdUNS2z6+0b25Pkg2KpHRdh1X0zQJ3sg3bRFcaOmyL5oWWpuQ07dgQTyeaZCB10hLqUy+3UQwTJQt8rl7gqP52AblJ3GnBt9zEy9AU0/sPyann/K9M0rk2PZIGKfzppZ84pfTJViYfTbFFTZRqVuSo6fhib5L5v0hn1frDbAjTkaiZNP/907xFTrPjnfJJBSXMciRF6FsNtiBNEW1+2MaQOKop8Sl3kofEUPMQmkb2NhMpntnfrALYWKzxFcDVifSUu5xCYhpvnjhfbp9mTzYT44mzqrGxULH7MXJQDKWY841na4q30kSVkka9V9Bou7ZgN24zWCE9ces1fbubn9EjDt3pEf0g45VLVwBLH6A3G4ysppNL/UgetFa/2YWx0TzZVtDuxxxIMTSGGtXWUPHWiaRSjqL3Coxq3QpdAWwpJolcSUpli5fdNNqmK2LuUkKEPVkPj6Kfbuv7r8v/hjbH7qdMviJHN4E2L4BNHqeG9rIh0ZRVrys7viVcRTZ/+4hKNHy2qG1z3LYc2yWnd9CG+BNNih81JS3pQ/LBUcSFsd7XobT+cn0DvT+54zpa5FTeHG2UWkqPHEQK/5dILx5fLjDXpvW5jMVuboNRqWjzw2SjmkKfsgKqaQHc6fnGGHcTKMLemoZH/UT6sKqj/G82U+z+TBblfH7h14NPdl0BLJPT6NiiBtmNYVaONqqbcXjzms7mMhoSndWQnzTFWyhcZUN/+6iE7nL2l/nTi43JhiqPRNHM+e/T6eqmBbAJuYTHv3w2vpsQQfbWwynqp9v68+vy6ZvNsbSfN3FU0t7ZjiRnsjV0rSmgD8ZZm1gA881zhh3twBv3ZhTAwkcgzMRufAQmWJ3Ani9LoNVex5e7jkD6MNvnoEFxWgau1uVg09QADBgwQP96MBLJd+7iQlae/q1mkQpePs4Nnz0Rq1SwFtWhpqaNX6QWOyH40dkIKk9AzPKFmDN1NIL6TUJsnoZdWwv+37C2xpgZ4XDK2IP/pNYBVcex86tfMeLRyehphufFTsF4dHYQyhNisHzhHEwdHYR+k2KRp9EyOUz5JW0RbLx94WJh2FJ2g8KyJ9xdJfodYiWUChE0dZoO6yyyc4d7e5/n1JYhK7sItvcFo7/UsA9WGPXidmx5OtiwbSKd8UldPjLPV8AlMAiuBltw/d0f0geW3N+aYqRlXEVdziZMDTDED3s9GJmMO3cvICuv8W14kzAn1lqgKU5DxtU65GyaioD6WB7wICKT7+DuhSxworQ/FupwKSMHVa5DMdyrXlFO1VAM66dBbno2ag372sRuPCImWOHEni9Rwmx6/ctdOCJ9mO1zMEkuDpHKG771AccsYGPTDSJ1tWG7CV0ZG3WXkJFTBdehw9GothhOocPQT5OL9GyjWreNuCemvvNfHDlypPnr8KsYp+QayDFyzmy4/fgygnr1RsCY2VjxRQWCp09A/266HszAjHGqwwKeoSPg0ySWQ4J9UJOTiQvVptnC6Ljl2gc/itlB5UiIWY6Fc6ZidFA/TIrNg4bFRX3qEam84OPcEOVQqawhqmtrrJiYo03FpFxgrk2ZVd1DMMyjwahwGjIY3tXnkXGhqXS/wXzTFPlIzJnthh9fDkKv3gEYM3sFvqgIxvQJ/dHNRL+0r8ddE2W3g7u7fYPsJsPnF6O6GcPEvGbhidARPmx06BE7hSDYpwY5mTm4npWNItv7ENyYbGA16kVs3/I0gpt+FN/UXNKuf+t4bSweOQez3X7Ey0G90DtgDGav+AIVwdMxgS9xaAqQlfMrnO8bgkb3uiD0gb76eYyPTs1zXTuGzY6tvzzdxmDmJHt8t2c/iq7ux64T1giPGAtu6YFazUxvMwgRy5Zj+fL61yqsi4tHzN+99cEhsoBF49jRITL8vxXaYux+PAhBf38FCWllkHmFYt6a1ZjuZrrblCMjMNn1AhI+T0FZ4i58rR6DGRN7mOV4bfFuPB4UhL+/koC0Mhm8QudhzerpMF0MESQSQ8JvQMSZojUd1FnEjGrZriFrwc0vlhaS9m3dsnTlEmVbc0SnfFIHDVfjWzZNEyLI5TKDXGroQygCyxrih71WrUNcfAz+7m1SemnEhFhrriI3eRn2qNUskdhgUMSyJrG8HKvWxSE+5u/QiWJkLNRo2A2XpaR5QmTycKprtRrjNwpsGhozcxLsv9uD/UVXsX/XCViHR2CsfpDxy8UQWVialoy7MjaYZHq1m19ZLwuzrca41m0jhaPvYISEhDR/BfvB0RByduPewanUr7FpaTg8K09hywuPIDhwOrZeaiyqTMOMcaqDxa5C0SyXWFiyxsR0NdEWxsetFsW7H0dQ0N/xSkIaymReCJ23BqunuzW7JtdHcxHb96RJOdpUTMoF5tqUIZFC0rQLNmi4zZYx1+XzTTPsMO6dU0j9ehOWhnui8tQWvPBIMAKnb8UljWl+MaaHybK3Hxztw+sXY7oZmrSDSXlNJIdC0VRxdlw3LLSo1ScbSHjVMjGXGPEvr43txuGdU6n4etNShHtW4tSWF/BIcCCmb73E/xlxEjGdLZrEkghKpaJ5bLWIV+5hmX5X5+a5rhzDzeJVwBTkGD5zKnql7MMnW3fju+6TMXOkFdtvgZ6eblBW3YHt0AjMnj1b/5o5DoHefvD3MeVOliVGw18c2iu7sXFnKUZtOIOz//0cH65bhUXhPVD7q5aLJkMrHmT347GpXig4uB3rth8GHn4ME+wNx0xCiyu7N2Jn6ShsOHMW//38Q6xbtQjhPWphjhimYpLOIt7s0RyxAzzcbFCWl9vkA/51OL/lKcxc/RVzHUsiVAP13cYRW3PtGkrb0K1TPrF0Rx9PGa5mZ6GsoakauRcKmDQMi57wdFOi6o4thkYY4oe9Zo4LhLefP3y69BsLuMRJqFHfbcxTNddwzaC0RU9PuCmrcMd2KCLqY3n2TIwL9Iafvw/0orQ3FizhzsaC5ZVMZDZd3HMnHRk/A709PNGyJGiJfPhMTO2Vgn2fbMXu77pj8syR0I0yk+Qygy6MDc6/nm6WuJKZieZqZ+Bn9IaHJ5/WHUB7E2c+34A91+7D/DVx2HcqD0Xp6/Fg5SFsP3jN0Oi3QoPCnBxUGra4RZCZmZdg4eWHPvIO2qLp2NZewe6NO1E6agPOnP0vPv9wHVYtCkeP2l+5EoD9ZwpNc2rnc3Rz8bogP7eBpugCfm40KioyMpBv6QnfZoVBV8w37aO9eQafb9iDa/fNx5q4fTiVV4T09Q+i8tB2HCwuNMkv7esh+21l5/GLUd2MrgAzMa9pCpGT00TxStb+kgW8/PzQw8MNNmV5yG1ynbrzW/DUzNX46mqTPjudS/jiQ4VbZz7Hhj3XcN/8NYjbdwp5RelY/2AlDm0/aHwhnIUr/HyUunmsMQ9WIye3sXC2YHmTatRoTJs1uHatVB8bnZrnujbuOxNnf1mkwTMx3fMk1q37Hq7TIjDU8NaFbdgsTHE8i7efjsaRIjUbCDeQsn4exo6YjKjkKn0jY4ikkEkJlbdv6wsi7k5TVIMb+fm4zSJHc/NHfLR4Db68zd0FtfF2bptIMfixR9D30las+1KK8TPGwNpwxFS4u1BRzQ3k599mAazBzR8/wuI1X+I2dydnqhimYoLOIqkMUqrE7ds6K5mAEiNnTIZzyntY+UkWKlgSrMj6BJGvfowfK2whVrnD3a4Ux3YdQD5zm7rwMNau/xrljTVPI53yiR3Gz5sGu6Ov4dmt51CuqUbBly8hctdVw6Rhi7BZU+B49m08HX0E+hBKwfp5YzFichRMCSGTEavg7m6H0mO7cECvNA6vXY+v65W2DcOsKY44+/bTiD5SxDytwY2U9Zg3dgQmRyWjXpT2xoJD+CxMUCYielEczpQxP925iL3LV2N3VQhmPOLH0hgP0mDMnO6Jk+vW4XvXaYhoHGQmyWU6XRgbcED4rAlQJkZjUdwZ6NXei+Wrd6MqZAYe8WNa1+Xi67jN2HPW1B+xqEX5lRxkZWW1eGXj/C/lzI8iXNz3KhYtXotDhUxAljl+LfoFN2vs4eb2W38lFuHWV9FYvvsC7miqkLtzKdbsFyFs9mT0YDcWvLZog+Zj2xISSxFqbuQjXz/Y8ONHi7FGP9iaf+tHe7TIqZ3L0SJIZVJQ5W3oxeuK/Nwaun0QMf/eh/xqLSqzt+P5NV9BMn42JnZvPl13er4xglh0EfteXYTFaw9BH1a/ouiXm6ixd4ObrdQkvxjT47eUnc8vxnUzXhKZlNfoFr6KXo7dF+5AU5WLnUvXYL8oDLMn90C3kTMw2TkF7638BFkVrBivyMInka/i4x8rYGvX9NodGz9NMW7juxBd3IdXFy3G2kOFLI9yZijCLzdrYO/mBuNmsEbY3OlwSn4Tz36YitsaNQoPRSJyZ7GhABZD5e4Ou9Jj2HUgn6sSUHh4LdZ/XW542NK5ea5LY8fwWWABs6ij7OghJJMMotXndKvLDGioNCmawr2sSCyWklxmSSJ5bxq9KpFKuE+Zcx9aV/Sk+QcNCyAYtWmrKFARSKvSuH7u0rElviSzkJH1wKWUdPcmJa4cQvaWYpJadSO51J4CZkbTijAVqSbF6/s0hdpMWjtYSpZei+ho46WN0GIR3M1EWjnEniyZTlbd5CS1D6CZ0SsoTKWiSfElDR/Abxvug/0K6jn/INNOj/r7peSnGEqv/Vz/IfbbtDVcof/wv8YEne8eoyW+MrKQWdPApcd1Cy4UvZ+kw43rlKjlSn/SlFFyzATyUFiQVKkgiVhBHhNep+91S07VlLlpKnkpxGQpV5Jc6UHhLy+kB6zaWgTXSZ9oSun4mjHUWy4miVRCEocQmjtlACl1iwP0x5Oiw8nLSkxiqZxkliKS9x5NqxI5O5u5CM5orDGtMzfRVC8FiS3lpGR6e4S/TAsfsDJ8CwQnShJFh3uRlZjpKpeRpUhOvUevosRmSrY/Fq4lrqaxbgoSWbD+2ViQu4TSkoTL+gWeJlCXHU1DZBIatPpcs3P45OIWCil6zqdG1Wsp85VBpBj4on6zC2Oj1YILzTVKXD2W3BQismDtZcy2LqFLKOGyQYOKj2kip1Nkun7bCPpFcLo5o42XiKymfqZrV5v3Gc33V5EFs7O1DZNf4kjBi/ZQfpM1Im3CxUizRXBmjFNdeznZDRlPoT2lulgWy1xoxIqDVFwfHkZtoV8o1WrcthjbNxNX0hB7SzYWrKibXEr2ATMpekUYqVSTKJ75uy1fp60KJEXgKsN2i5yq5snRPNw9toR8ZRYksx5IS49f5ckF5tpUbxNln4k0d2RPksnlLBYl5Bz6bzp8tTG2G74FgrXv3HxjjFrK+2w++assmO+syUbBcpVjMC3ak89GvIbHL/oFjsb04JNdtwhO0ZuebBYc7WNejjamGx88eU03puxoyPhQ6snGhFQiJpnLCFpxsJidqT+/LDmGJngoyEKqJAU7rvCYQK/rko1+TNV/CwRvLuH1L0981ObRZ/P9SWVhQXJrGyaLhByDF9Ee3sTBcYtOvhFOHrp5jI1/h8EUPtyF5PXzmDqTNk31IoWY2UfJ7OQRTi8vfICsTJrn+ODRy4xFcCLuH5ZQBboSTTny0zNRWCmDS39/eNs3fuCdF20F8lPP4RetC/wHebI7MS0qCs7hXEE1VD4BGNBLt/LFPLTX8fHUe/Cm30Gkvh4CM6RphMlVcO4cCqpV8AkYgI6IYTr8Omsr8pF67hdoXfwx2NP0J111ZReRlsXuVJ36ItDPsZktam7kIjX3Fqz7BKJfD2M/DtB5n1SXnMe5vCo49r8PXqrWt9ua8nykZxaiUuaC/v7eMCeEzKLmBnJTc3HLug8C+/VAa601KM9PR2ZhJWQu/eHvbW9e/NSVIS8tGyVwRl9/Hzh0mR6dlKsNuiY29NSV5SEtuwRw7gt/H4dOy8aLthJFWRm4eFsMR98A3NNDbjjwW3ETHz7sitUue5D3zgDkpl+FzCsA/ZxbX9dcW7Qc29qKApw7V4BqlQ8CBvSC2aOtVU5l+zqco9nYz0/FuV+0cPEfBC71dDo/twXzZ0FqGookXrjXn0fnzsw3PGgri5CVcRG3xY7wDbgHTcPKJL/w6fGbyW7CHGJEN17ay2s3P8TDrqvhsicP7wzIRfpVGbwC+qHVsGDnX0zLQrHGCX0D/eBoRO1O5xKjNtaisigLGRdvQ+zoi4B7esAcM9Rcz0Hqz5VwGjAAxa8EYMzpJ3Dnu2X1R3EjNxW5t6zRJ7Af2kqbnZrnuiB2hAL4Tw731vrd1CiMG3MQE5K+w8p+/G+dCAgICBinsQC+tGW8WZOmgMCfloYC+BK2jP8rjYoafP+vgS0K4D8+xj/wIvC/Td0ZrBpkA/vgN1H9zxgsFIpfAQGBLkEEkdgCYlHzhbsCAn9p2HgQW4jZ//56o4LLBxbi/y29hSfAf2o0KC/IxuVqZ/Rr8ZaugICAgICAgMBfFaEAFhAQEBAQEBAQ+EshfARCQEBAQEBAQEDgL4VQAAsICAgICAgICPylEApgAQEBAQEBAQGBvxRCAdyVlCcjdtkr2HNBA9w5hc3LXsaOLO4ng7oGdWEGzt/kvtisA+jkWY3Pz3edPMYpR3LsMryy54Jhu5Pw2VNzGfujl2HDsZuGHX9CmsbX74IGl/dHY9mGY4ZtHn53eQUEBAQEBNpGKIC7EG1lGhJi43HsCivSagrxw9ff4FxJ10z+mssfYHLQHOwo7GABfDcT+2I/ROLl/6cCWFuJtIRYxB+7YtjRSfjsqSlG0iex2H32tmHHn49m8fW7oEFx0ieI3X3WsG2c319eAQEBAQGBthEK4N8K1aP4KPM0Xh/F/6tRpkCV13GjsoPF75+BLrangICAgICAwF8XoQA2mzoUHlqLR4PdoZJJoHDsj7+99BUKWz6YLP8Cz9w/BpFJNfptbQmOvxGBYFcbSC3lcOw7Ds/95zyqdQfL8cUzwzFr3Wd4bfq9cFZKILP3Q9iKA7p+tcXbsWDOh8hR5yF+1jDM3ZrPdYiS428gItgVNlJLyB37Ytxz/8F5fYftQLiV8joeCegBhVQGe78xWLo3H3rRtbh+4i3MfdAPTlYSWDAZHXxH4ent56HWHW8Dozq1hE/eO8j8dBFG+dpDLu2G3kOfQOy6BXhg+rv6wy3teScT2xY/BF97OaS23hi98ltcb/qFfjWXcWDVFAT26gaJpQJO94ThuR3Z7CptU/7FMxj+WAw+Wj0BvnYyyFSeGP5EHM6WGxpor+PEW3PxoJ8TrCQWsJQ7wHfU09h+3mCdsj1YODwCK1+ehnvsrWAf+AKOsZsWo+e0gbbkON6ICIarjZS1d0Tfcc/hP8adasAQQ6/FI3Jyf3SXS2HVeyieYv7I3P4UhrtbQyq1g++EV5F0q/5GqgaXD6zClMBe6CaxhMLpHoQ9twPZDUZiPtm2GA/pfGIL79Er8W0zI5spr5k+aYiJPnaQy1TwGbsC2959EsPnf8qOsXjduQDDJr6OM4aQ4MZm+ttTMUx3nMP8MVJXeAhrHw2Gu0oGicIR/f/2Er6qH9xG5Tff/nwxV7ZnIYZHrMTL0+6BvZU9Al84xh+HAgICAgKmwX0PsIDpqFPXUnA3Wwp8YhN9e+YsHY17nAZaqWhc7CXSXHmXRio8aOGRaqLSOAqTO9Hc/XfZWbWU8UYoqewG0ZMbD1FK6kna++ok8lT60IJDt9jxUooLk5O8myc9tHIbHT+TQgeiwqiXpCfN219BVJFO+6KmkIfElSatjqN9abeoNuMNClXZ0aAnN9KhlFQ6ufdVmuSpJJ8Fh4jrsRWcPDIRWfQYQS9sP0GpZ7+mdZNcSdJjDu1jl6DSXRThLKc+M96lw2cyKCPlAL05xYMkqim07aa+i+bw6KS5Qu+OVJDHwiP61jzyViQ+Q76y7vTAvz6hYylJtHNVGLlKxWR5zwu685vbs5KOPutLsu4P0L8+PU6njm+n5SOcyVIkoWFv5LHjVZS8fCApbe+l+e8dpJMpibT1uWHkKPWgx/ddJ42uw+aUxoWRTCqn7vfOpw++PUkndqykkc4ScvvHPuLUL90VQc7yPjTj3cN0JiODUg68SVM8JKSask13XHNtI41m8ioDnqRtycm0e1cS5Xxu/JxW1GbQG6Eqshv0JG08lEKpJ/fSq5M8SemzgPQmbRJfreBiSEYShTuNi0ygk6lJtHG6O0lsHMht8D9pc+IPlJLwAt2vktPQ13J0Z1QlL6eBSlu6d/57dPBkCiVufY6GOUrJ4/F9dJ0ZqfLoswaffErHTx2n7ctHkLOliCTD3tCdb5685vuk8tgS8pPZU8jieDp26hh9zNq7WMlJqru+hq68O5IUHgup0Rxq+u55X1IY5DN7jKhTaW1wN7INfII2fXuGzh6No8cHWpFqXCxdquOT33z7G485DV3bOJqkYiUFPLmNkpN3066k67xxKCAgICBgGkIBbBZqOr7Ym2T+L9JZtWEXK8aORM2k+e+fbr8Ark6kp9zlFBKTQ3WGs7iCZfs0e7KZGE9sWtNNntLQ9XS5vhJQH6fF3nIaHJWt26xNj6RBCn966adatlVNiU+5kzwkhnIaO6TS7dPI3mYixV837GiKrgCW0gNv5jXIoD65lPzkQbQ2q440Jadpx4Z4OsFVPgbUSUuoj3wwRWU3uUg9fDo1K4D55L1F/5luT9ZjYqmg4fI3aedjTiRpqwCuSKBZjgoKfatRF03RZnrYRqovgCt202MOChoac75RNk0xbZ2oIuWo95pcoxFdMSIbQtHMFno0VLwlnFQ2f6OPSmqp5PQO2hB/QlcY6lFT0pI+JB8cRZx5dAWwTE6jY4sMxZyG95yWVCc+Re7yEIppbiSaZm9DE5lTTSmAueIwz3B69bcLyE3iTgu+5W4aGMwG7z8kp57zv2IbFbT7MQdSDI2h8w2XYzpvnUgq5Sh6r6CcEmY5kiL0rYb+mJFp88M2hgLUTHnN9kkl7Z3tSHImX0P3mgL6YJy1iQWw+WNEfXwxecv86cXGwU2VR6Jo5vz36XQpn/zm2p8/5rgCWCYfTbFF9cYxP6YEBAQEBNpG+AiEOWjLkJVdBNv7gtG/4XeFrTDqxe3Y8nSwYbs1muI0ZFytQ86mqQgYMAADdK8HEZl8B3cvZCFP9xauCCovHzjXe0SsgspahLqahvd3G9EUIy3jKupyNmFqQH1/A/BgZDLu3L2ALH2HrRGp4O3rAgvDptjGBt1EalTfJYidgvHo7CCUJ8Rg+cI5mDo6CP0mxSJPo4VW2/rHAk3TyQCfvDnZSD9/B+6Dg9GrISJVGBrSHxLDVlPq8jNxvsIFgUGujbo43Y+QPpa6v+suZSCnyhVDh3s1HGcNEDqsHzS56ciuNexrgYVnKEb4NPQIp5Bg+NTkIPOCFk7Bj2J2UDkSYpZj4ZypGB3UD5Ni86DRMvvUm0dkB3d3e8Pnitj5ppzTgAbFaRm4WpeDTVMDGmw04MFIJN+5iwtZeWjHq00QwcbbFy4GFUTKblBY9oS7q8GKYiWUChE0dRrOSMjIqYLr0OHwajQSnEKHoZ8mF+kZecg8XwGXwCC4NhoZ94f0gd7K5slrtk80BSwufoXzfUPg0XB9F4Q+0NdwfR7MHiNalGVlo8j2PgQ3Dm5YjXoR27c8jfuKTJHfDPsbaD/m9AsHRXbucLdvSApmxpSAgICAQHsIBbBZ1IKbuywtJGyqMwO1mhUDNhgUsQzLly9veK1aF4f4mL/DWzeji2Bh0TC16mn3Imqo2fxtMygCy5r0t3zVOsTFx+Dv+g5bI7KAZVuH2MSpLd6Nx4OC8PdXEpBWJoNX6DysWT0dbu1FiEk61cMnr15v4iZx3V88MCdoWOg200Ukh1xmMFiNBnWsTJI0k4HZlzuBXUPTTqEgkiugaKqvhSUrdoidokXx7scRFPR3vJKQhjKZF0LnrcHq6W7NBxCzr4VlvdNMPKcJar2RELGsiY2Wr8K6uHjE/N3bhMJPBImk5S2DiBOrDWpYIcZiubmRWFtLdh3mB00tNCzWxc2NDLlc1hCWZsnbEZ+QiPnYouF6XHulUtFkm9HiPO5mTb/L/DFSqx/ckDS7gAGT5DfH/nrajzn9pojlhIaQ6kBMCQgICAi0jZA3zUHsAA83G5Tl5eJaQ6VWh/NbnsLM1V8Ztltj0dMTbsoq3LEdiojZszFb95qJcYHe8PP3QcMDHmOImszKFj3h6aZE1R1bDI2o7282Zo4LhLefP3xM6rApWlzZvRE7S0dhw5mz+O/nH2LdqkUI71GLX5me9ZNxU8zSiU9eJz8MvEeBgrNnmtj1V5w5c57dcrTG0r0PPGVXkZ1V1lgwq3NxoUD/1MzSnclmeQWZmbcaj+MO0jN+Bnp7wLNljWJAU5iDnErDBqMyMxOXLLzg530NuzfuROmoDThz9r/4/MN1WLUoHD1qf+VKxSbXaIL2ipnnWKCnpxuUVXdgOzSiwUazZ45DoLcf/H3qnyx3EZbuzCeWuMJ0bFgTx7iTnoGf0RsePt7o4ynD1ewslDUaGbkXCljEc5gnr9k+sXCFn49Sd/3ShhOqkZN7ybBokzVhxSHVqHG3oQiuwbVrpfr+zR4jYjh4uMGmLA+5jUGIuvNb8NTM1Tgsd+9QTPHRbswZ3s1ohtkxJSAgICDQHl06p/75UWLkjMlwTnkPKz/JQgWrDCuyPkHkqx/jxwpbQ5s2sA3DrCmOOPv204g+UsTKCA1upKzHvLEjMDkqGVWGZsYQSWWQUiVu3+bKD1uEzZoCx7Nv4+noIyhSs4n0RgrWzxuLEZOjkGxKhy3gngSKam4gP/82m0g1uPnjR1i85kvc5p6ktbVq3iyd+ORVIXzBLPRKXoNZL3yMoydPYNcrs/H8zhJQ08K/HrvxmDfNDkdfexZbz5VDU12AL1+KxK6rhhLAIRyzJiiRGL0IcWfKWMF2Bxf3Lsfq3VUImfEI/Np5Ike3vkL08t24cEeDqtydWLpmP0RhszG5hxQSSxFqbuQj/za7huYmfvxoMdZ8eZt7DNrOt15wTwvNO8c2bBamOJ7F209H44jeSEhZPw9jR0xGVEecahQHhM+aAGViNBbFnUEZC6s7F/di+erdqAqZgUf8umP8vGmwO/oant16DuWaahR8+RIid11tKLTMktdsn1gjbO50OCW/iWc/TMVtjRqFhyIRubPYUACLoXJ3h13pMew6kM9FKQoPr8X6r8sNT4DNHyPKkTMw2TkF7638BFkVrKCsyMInka/i4x8rYOs1sUMxxUf7MddWajYlpuqQ+3UcNu852+TGRUBAQECgFYbPAguYiqaMkmMmkIfCgqRKBUnECvKY8Dp933LVe7NvLWDHSpMoOtyLrMRiksplZCmSU+/RqyixhFvNwi2gUVDP+QfJsFyGqDaNVgUqKHBVmn777jFa4isjC5k1DVyaxHVISdHh5GUlJrFUTjJLEcl7j6ZViSXUaj0RByePoifNP9hwBarNfIUGKQbSi2dqSXMzkVYOsSdLsZSsuslJah9AM6NXUJhKRZPi2+7TqE4tvgWCX94qyvh4AT3opSKZpBu5BM+ixVN9STbwRd3R1vY8TmvG9Ca5WEJSiYQcQubSlAFKw7dAsOPXEmn1WDdSiCxIrmSyyV0odEkCXebWELYBtyBJbjeExof2ZP1JmV9l5DJiBR0s5qTT0M3ElTTE3pLJbkXd5FKyD5hJ0SvCSKWaRPFMX90iOEVvevJw/Yos/nNao6HSpGgK97IiMfODXGZJInlvGr0qkfQm5VsE1zyG1N8vJT/FUHrt5/rVUbdpa7iCnObu129qrlHi6rHkphCRhVzJfCInl9AllFBvJOaz42vGUG+5mCRSCUkcQmjulAGkNCyCM1dec31CdItOvhFOHrrrM584DKbw4S4kr7++OpM2TfUihdiS9ScnpUc4vbzwAbKqP27uGGF7y5JjaIKHgiykSlJIxKTwmECvc4ObO2pUfvPtzxdz3CI4Re8nqSGk2D7+mKqgjyfKSDIoktLbtauAgICAgIj7x1ALC5hBXdlFpGUVQ+PUF4F+jmhcNmMMDcrz05FZWAmZS3/4e9ubeJ4ebUU+Us/9Aq2LPwZ76p84a8rzkZ5ZiEqZC/r7e8PenA5boq1AwblzKKhWwSdgAHopDfuNYp5ObcurRUlmCq7a+uNe1266dtzb7UcX9cWEzGdx9/gSw76WVKPk/DnkVTmi/31eULV6aFaHsrw0ZJcAzn394ePQvmQ3P3wYrqtdsCfvHQzITcdVmRcC+jlDbjjOoa0owLlzBahW+SBgQC+YYp6OnMOMhPz0TBRWyuDS3x/enXIqP3VleUjTGwn+Pg6t/Fddch7n8qrg2P8+eLU2spnymu6Temqu5yD150o4DRiA4lcCMOb0E7jz3bL6o7iRm4rcW9boE9gPPdr4nRSzx0hdGS6mZaFY44S+gX5wbNbefPnbw5SYa4sOxZSAgICAQDOEAljgD0AdUl8OwtDPBmLrt5sR4S3DzTPvYs7Ef6P4n98h9ZVBhna/HQ3FyKUtGM9XgQj8TtTg+38NbFEA/+8ixJyAgIDA74fwGWCBPwCWCFj0Gp53P4bHfVVQdrOC8/2voGDEOmx54bcvfjlEIjEsxKJmaw0F/niIxBY6P/0ZEGJOQEBA4PdDeAIs8AeiDrfys/FzSS1sPO5B3x7Cm7sCAgICAgICXY9QAAsICAgICAgICPyFAP4PPcOPXx9bgDwAAAAASUVORK5CYII=;" parent="1" vertex="1">
          <mxGeometry x="340" y="20" width="704" height="359" as="geometry" />
        </mxCell>
        <mxCell id="29m1Z3NYBUcn7dENaPxr-2" value="VEHICULO&amp;nbsp;" style="whiteSpace=wrap;html=1;align=center;" parent="1" vertex="1">
          <mxGeometry x="820" y="500" width="100" height="40" as="geometry" />
        </mxCell>
        <mxCell id="29m1Z3NYBUcn7dENaPxr-3" value="CLIENTE" style="whiteSpace=wrap;html=1;align=center;" parent="1" vertex="1">
          <mxGeometry x="450" y="500" width="100" height="40" as="geometry" />
        </mxCell>
        <mxCell id="29m1Z3NYBUcn7dENaPxr-4" value="VENDEDOR" style="whiteSpace=wrap;html=1;align=center;" parent="1" vertex="1">
          <mxGeometry x="70" y="500" width="100" height="40" as="geometry" />
        </mxCell>
        <mxCell id="29m1Z3NYBUcn7dENaPxr-5" value="ID_cliente" style="ellipse;whiteSpace=wrap;html=1;align=center;fontStyle=4;" parent="1" vertex="1">
          <mxGeometry x="390" y="400" width="100" height="40" as="geometry" />
        </mxCell>
        <mxCell id="29m1Z3NYBUcn7dENaPxr-6" value="Nombre" style="ellipse;whiteSpace=wrap;html=1;align=center;" parent="1" vertex="1">
          <mxGeometry x="290" y="440" width="100" height="40" as="geometry" />
        </mxCell>
        <mxCell id="29m1Z3NYBUcn7dENaPxr-7" value="Direccion" style="ellipse;whiteSpace=wrap;html=1;align=center;" parent="1" vertex="1">
          <mxGeometry x="310" y="560" width="100" height="40" as="geometry" />
        </mxCell>
        <mxCell id="29m1Z3NYBUcn7dENaPxr-8" value="Telefono" style="ellipse;whiteSpace=wrap;html=1;align=center;" parent="1" vertex="1">
          <mxGeometry x="510" y="410" width="100" height="40" as="geometry" />
        </mxCell>
        <mxCell id="29m1Z3NYBUcn7dENaPxr-9" value="" style="endArrow=none;html=1;rounded=0;exitX=0.5;exitY=1;exitDx=0;exitDy=0;entryX=0.75;entryY=0;entryDx=0;entryDy=0;" parent="1" source="29m1Z3NYBUcn7dENaPxr-8" target="29m1Z3NYBUcn7dENaPxr-3" edge="1">
          <mxGeometry relative="1" as="geometry">
            <mxPoint x="690" y="420" as="sourcePoint" />
            <mxPoint x="850" y="420" as="targetPoint" />
          </mxGeometry>
        </mxCell>
        <mxCell id="29m1Z3NYBUcn7dENaPxr-11" value="" style="endArrow=none;html=1;rounded=0;exitX=1;exitY=1;exitDx=0;exitDy=0;entryX=0.25;entryY=0;entryDx=0;entryDy=0;" parent="1" source="29m1Z3NYBUcn7dENaPxr-5" target="29m1Z3NYBUcn7dENaPxr-3" edge="1">
          <mxGeometry relative="1" as="geometry">
            <mxPoint x="690" y="420" as="sourcePoint" />
            <mxPoint x="850" y="420" as="targetPoint" />
          </mxGeometry>
        </mxCell>
        <mxCell id="29m1Z3NYBUcn7dENaPxr-12" value="" style="endArrow=none;html=1;rounded=0;exitX=1;exitY=0.5;exitDx=0;exitDy=0;entryX=0;entryY=0;entryDx=0;entryDy=0;" parent="1" source="29m1Z3NYBUcn7dENaPxr-6" target="29m1Z3NYBUcn7dENaPxr-3" edge="1">
          <mxGeometry relative="1" as="geometry">
            <mxPoint x="690" y="420" as="sourcePoint" />
            <mxPoint x="850" y="420" as="targetPoint" />
          </mxGeometry>
        </mxCell>
        <mxCell id="29m1Z3NYBUcn7dENaPxr-13" value="" style="endArrow=none;html=1;rounded=0;exitX=1;exitY=0;exitDx=0;exitDy=0;entryX=0;entryY=1;entryDx=0;entryDy=0;" parent="1" source="29m1Z3NYBUcn7dENaPxr-7" target="29m1Z3NYBUcn7dENaPxr-3" edge="1">
          <mxGeometry relative="1" as="geometry">
            <mxPoint x="690" y="420" as="sourcePoint" />
            <mxPoint x="850" y="420" as="targetPoint" />
          </mxGeometry>
        </mxCell>
        <mxCell id="29m1Z3NYBUcn7dENaPxr-14" value="compra" style="shape=rhombus;perimeter=rhombusPerimeter;whiteSpace=wrap;html=1;align=center;" parent="1" vertex="1">
          <mxGeometry x="640" y="495" width="100" height="50" as="geometry" />
        </mxCell>
        <mxCell id="29m1Z3NYBUcn7dENaPxr-16" value="cede" style="shape=rhombus;perimeter=rhombusPerimeter;whiteSpace=wrap;html=1;align=center;" parent="1" vertex="1">
          <mxGeometry x="440" y="610" width="120" height="60" as="geometry" />
        </mxCell>
        <mxCell id="29m1Z3NYBUcn7dENaPxr-18" value="VEHÃCULO USADO" style="whiteSpace=wrap;html=1;align=center;" parent="1" vertex="1">
          <mxGeometry x="450" y="740" width="100" height="40" as="geometry" />
        </mxCell>
        <mxCell id="29m1Z3NYBUcn7dENaPxr-19" value="vende" style="shape=rhombus;perimeter=rhombusPerimeter;whiteSpace=wrap;html=1;align=center;" parent="1" vertex="1">
          <mxGeometry x="230" y="490" width="120" height="60" as="geometry" />
        </mxCell>
        <mxCell id="29m1Z3NYBUcn7dENaPxr-20" value="pertenece" style="shape=rhombus;perimeter=rhombusPerimeter;whiteSpace=wrap;html=1;align=center;" parent="1" vertex="1">
          <mxGeometry x="810" y="600" width="120" height="60" as="geometry" />
        </mxCell>
        <mxCell id="29m1Z3NYBUcn7dENaPxr-21" value="MODELO" style="whiteSpace=wrap;html=1;align=center;" parent="1" vertex="1">
          <mxGeometry x="820" y="720" width="100" height="40" as="geometry" />
        </mxCell>
        <mxCell id="29m1Z3NYBUcn7dENaPxr-22" value="Nombre" style="ellipse;whiteSpace=wrap;html=1;align=center;" parent="1" vertex="1">
          <mxGeometry x="727" y="790" width="100" height="40" as="geometry" />
        </mxCell>
        <mxCell id="29m1Z3NYBUcn7dENaPxr-24" value="Descripcion" style="ellipse;whiteSpace=wrap;html=1;align=center;" parent="1" vertex="1">
          <mxGeometry x="860" y="790" width="100" height="40" as="geometry" />
        </mxCell>
        <mxCell id="29m1Z3NYBUcn7dENaPxr-25" value="ID_modelo" style="ellipse;whiteSpace=wrap;html=1;align=center;" parent="1" vertex="1">
          <mxGeometry x="1000" y="760" width="100" height="40" as="geometry" />
        </mxCell>
        <mxCell id="29m1Z3NYBUcn7dENaPxr-26" value="" style="endArrow=none;html=1;rounded=0;exitX=0;exitY=1;exitDx=0;exitDy=0;entryX=0.5;entryY=0;entryDx=0;entryDy=0;" parent="1" source="29m1Z3NYBUcn7dENaPxr-21" target="29m1Z3NYBUcn7dENaPxr-22" edge="1">
          <mxGeometry relative="1" as="geometry">
            <mxPoint x="410" y="760" as="sourcePoint" />
            <mxPoint x="570" y="760" as="targetPoint" />
          </mxGeometry>
        </mxCell>
        <mxCell id="29m1Z3NYBUcn7dENaPxr-27" value="" style="endArrow=none;html=1;rounded=0;exitX=0.75;exitY=1;exitDx=0;exitDy=0;entryX=0.5;entryY=0;entryDx=0;entryDy=0;" parent="1" source="29m1Z3NYBUcn7dENaPxr-21" target="29m1Z3NYBUcn7dENaPxr-24" edge="1">
          <mxGeometry relative="1" as="geometry">
            <mxPoint x="410" y="760" as="sourcePoint" />
            <mxPoint x="570" y="760" as="targetPoint" />
          </mxGeometry>
        </mxCell>
        <mxCell id="29m1Z3NYBUcn7dENaPxr-28" value="" style="endArrow=none;html=1;rounded=0;entryX=1;entryY=1;entryDx=0;entryDy=0;exitX=0;exitY=0.5;exitDx=0;exitDy=0;" parent="1" source="29m1Z3NYBUcn7dENaPxr-25" target="29m1Z3NYBUcn7dENaPxr-21" edge="1">
          <mxGeometry relative="1" as="geometry">
            <mxPoint x="410" y="760" as="sourcePoint" />
            <mxPoint x="570" y="760" as="targetPoint" />
          </mxGeometry>
        </mxCell>
        <mxCell id="29m1Z3NYBUcn7dENaPxr-29" value="Marca" style="ellipse;whiteSpace=wrap;html=1;align=center;" parent="1" vertex="1">
          <mxGeometry x="290" y="750" width="100" height="40" as="geometry" />
        </mxCell>
        <mxCell id="29m1Z3NYBUcn7dENaPxr-30" value="Modelo" style="ellipse;whiteSpace=wrap;html=1;align=center;" parent="1" vertex="1">
          <mxGeometry x="380" y="860" width="100" height="40" as="geometry" />
        </mxCell>
        <mxCell id="29m1Z3NYBUcn7dENaPxr-31" value="Matricula" style="ellipse;whiteSpace=wrap;html=1;align=center;" parent="1" vertex="1">
          <mxGeometry x="520" y="820" width="100" height="40" as="geometry" />
        </mxCell>
        <mxCell id="29m1Z3NYBUcn7dENaPxr-33" value="precio_tasacion" style="ellipse;whiteSpace=wrap;html=1;align=center;" parent="1" vertex="1">
          <mxGeometry x="300" y="810" width="100" height="40" as="geometry" />
        </mxCell>
        <mxCell id="29m1Z3NYBUcn7dENaPxr-34" value="" style="endArrow=none;html=1;rounded=0;exitX=1;exitY=0.5;exitDx=0;exitDy=0;entryX=0;entryY=0.5;entryDx=0;entryDy=0;" parent="1" source="29m1Z3NYBUcn7dENaPxr-29" target="29m1Z3NYBUcn7dENaPxr-18" edge="1">
          <mxGeometry relative="1" as="geometry">
            <mxPoint x="410" y="620" as="sourcePoint" />
            <mxPoint x="570" y="620" as="targetPoint" />
          </mxGeometry>
        </mxCell>
        <mxCell id="29m1Z3NYBUcn7dENaPxr-35" value="" style="endArrow=none;html=1;rounded=0;exitX=1;exitY=0;exitDx=0;exitDy=0;entryX=0;entryY=1;entryDx=0;entryDy=0;" parent="1" source="29m1Z3NYBUcn7dENaPxr-33" target="29m1Z3NYBUcn7dENaPxr-18" edge="1">
          <mxGeometry relative="1" as="geometry">
            <mxPoint x="410" y="620" as="sourcePoint" />
            <mxPoint x="570" y="620" as="targetPoint" />
          </mxGeometry>
        </mxCell>
        <mxCell id="29m1Z3NYBUcn7dENaPxr-36" value="" style="endArrow=none;html=1;rounded=0;exitX=0.5;exitY=0;exitDx=0;exitDy=0;entryX=0.25;entryY=1;entryDx=0;entryDy=0;" parent="1" source="29m1Z3NYBUcn7dENaPxr-30" target="29m1Z3NYBUcn7dENaPxr-18" edge="1">
          <mxGeometry relative="1" as="geometry">
            <mxPoint x="410" y="620" as="sourcePoint" />
            <mxPoint x="570" y="620" as="targetPoint" />
          </mxGeometry>
        </mxCell>
        <mxCell id="29m1Z3NYBUcn7dENaPxr-37" value="" style="endArrow=none;html=1;rounded=0;exitX=0.75;exitY=1;exitDx=0;exitDy=0;entryX=0;entryY=0;entryDx=0;entryDy=0;" parent="1" source="29m1Z3NYBUcn7dENaPxr-18" target="29m1Z3NYBUcn7dENaPxr-31" edge="1">
          <mxGeometry relative="1" as="geometry">
            <mxPoint x="410" y="620" as="sourcePoint" />
            <mxPoint x="570" y="620" as="targetPoint" />
          </mxGeometry>
        </mxCell>
        <mxCell id="29m1Z3NYBUcn7dENaPxr-38" value="" style="endArrow=none;html=1;rounded=0;entryX=0.5;entryY=1;entryDx=0;entryDy=0;exitX=0.5;exitY=0;exitDx=0;exitDy=0;" parent="1" source="29m1Z3NYBUcn7dENaPxr-16" target="29m1Z3NYBUcn7dENaPxr-3" edge="1">
          <mxGeometry relative="1" as="geometry">
            <mxPoint x="410" y="480" as="sourcePoint" />
            <mxPoint x="570" y="480" as="targetPoint" />
          </mxGeometry>
        </mxCell>
        <mxCell id="29m1Z3NYBUcn7dENaPxr-39" value="(1,1)" style="resizable=0;html=1;whiteSpace=wrap;align=right;verticalAlign=bottom;" parent="29m1Z3NYBUcn7dENaPxr-38" connectable="0" vertex="1">
          <mxGeometry x="1" relative="1" as="geometry">
            <mxPoint y="20" as="offset" />
          </mxGeometry>
        </mxCell>
        <mxCell id="29m1Z3NYBUcn7dENaPxr-41" value="" style="endArrow=none;html=1;rounded=0;entryX=0.5;entryY=0;entryDx=0;entryDy=0;exitX=0.5;exitY=1;exitDx=0;exitDy=0;" parent="1" source="29m1Z3NYBUcn7dENaPxr-16" target="29m1Z3NYBUcn7dENaPxr-18" edge="1">
          <mxGeometry relative="1" as="geometry">
            <mxPoint x="480" y="690" as="sourcePoint" />
            <mxPoint x="640" y="690" as="targetPoint" />
          </mxGeometry>
        </mxCell>
        <mxCell id="29m1Z3NYBUcn7dENaPxr-42" value="(1,1)" style="resizable=0;html=1;whiteSpace=wrap;align=right;verticalAlign=bottom;" parent="29m1Z3NYBUcn7dENaPxr-41" connectable="0" vertex="1">
          <mxGeometry x="1" relative="1" as="geometry" />
        </mxCell>
        <mxCell id="29m1Z3NYBUcn7dENaPxr-43" value="fecha_cesion" style="ellipse;whiteSpace=wrap;html=1;align=center;" parent="1" vertex="1">
          <mxGeometry x="270" y="630" width="100" height="40" as="geometry" />
        </mxCell>
        <mxCell id="29m1Z3NYBUcn7dENaPxr-44" value="" style="endArrow=none;html=1;rounded=0;exitX=1;exitY=0.5;exitDx=0;exitDy=0;entryX=0;entryY=0.5;entryDx=0;entryDy=0;" parent="1" source="29m1Z3NYBUcn7dENaPxr-43" target="29m1Z3NYBUcn7dENaPxr-16" edge="1">
          <mxGeometry relative="1" as="geometry">
            <mxPoint x="450" y="670" as="sourcePoint" />
            <mxPoint x="610" y="670" as="targetPoint" />
          </mxGeometry>
        </mxCell>
        <mxCell id="29m1Z3NYBUcn7dENaPxr-46" value="" style="endArrow=none;html=1;rounded=0;entryX=1;entryY=0.5;entryDx=0;entryDy=0;exitX=0;exitY=0.5;exitDx=0;exitDy=0;" parent="1" source="29m1Z3NYBUcn7dENaPxr-14" target="29m1Z3NYBUcn7dENaPxr-3" edge="1">
          <mxGeometry relative="1" as="geometry">
            <mxPoint x="450" y="430" as="sourcePoint" />
            <mxPoint x="610" y="430" as="targetPoint" />
          </mxGeometry>
        </mxCell>
        <mxCell id="29m1Z3NYBUcn7dENaPxr-47" value="(1,1)" style="resizable=0;html=1;whiteSpace=wrap;align=right;verticalAlign=bottom;" parent="29m1Z3NYBUcn7dENaPxr-46" connectable="0" vertex="1">
          <mxGeometry x="1" relative="1" as="geometry">
            <mxPoint x="31" as="offset" />
          </mxGeometry>
        </mxCell>
        <mxCell id="29m1Z3NYBUcn7dENaPxr-48" value="" style="endArrow=none;html=1;rounded=0;entryX=0;entryY=0.5;entryDx=0;entryDy=0;exitX=1;exitY=0.5;exitDx=0;exitDy=0;" parent="1" source="29m1Z3NYBUcn7dENaPxr-14" target="29m1Z3NYBUcn7dENaPxr-2" edge="1">
          <mxGeometry relative="1" as="geometry">
            <mxPoint x="450" y="430" as="sourcePoint" />
            <mxPoint x="610" y="430" as="targetPoint" />
          </mxGeometry>
        </mxCell>
        <mxCell id="29m1Z3NYBUcn7dENaPxr-49" value="(1,M)" style="resizable=0;html=1;whiteSpace=wrap;align=right;verticalAlign=bottom;" parent="29m1Z3NYBUcn7dENaPxr-48" connectable="0" vertex="1">
          <mxGeometry x="1" relative="1" as="geometry" />
        </mxCell>
        <mxCell id="29m1Z3NYBUcn7dENaPxr-50" value="" style="endArrow=none;html=1;rounded=0;entryX=0.5;entryY=1;entryDx=0;entryDy=0;exitX=0.5;exitY=0;exitDx=0;exitDy=0;" parent="1" source="29m1Z3NYBUcn7dENaPxr-20" target="29m1Z3NYBUcn7dENaPxr-2" edge="1">
          <mxGeometry relative="1" as="geometry">
            <mxPoint x="570" y="550" as="sourcePoint" />
            <mxPoint x="730" y="550" as="targetPoint" />
          </mxGeometry>
        </mxCell>
        <mxCell id="29m1Z3NYBUcn7dENaPxr-51" value="(1,1)" style="resizable=0;html=1;whiteSpace=wrap;align=right;verticalAlign=bottom;" parent="29m1Z3NYBUcn7dENaPxr-50" connectable="0" vertex="1">
          <mxGeometry x="1" relative="1" as="geometry">
            <mxPoint y="20" as="offset" />
          </mxGeometry>
        </mxCell>
        <mxCell id="29m1Z3NYBUcn7dENaPxr-53" value="" style="endArrow=none;html=1;rounded=0;entryX=0.5;entryY=0;entryDx=0;entryDy=0;" parent="1" source="29m1Z3NYBUcn7dENaPxr-20" target="29m1Z3NYBUcn7dENaPxr-21" edge="1">
          <mxGeometry relative="1" as="geometry">
            <mxPoint x="680" y="720" as="sourcePoint" />
            <mxPoint x="840" y="720" as="targetPoint" />
          </mxGeometry>
        </mxCell>
        <mxCell id="29m1Z3NYBUcn7dENaPxr-54" value="(1,1)" style="resizable=0;html=1;whiteSpace=wrap;align=right;verticalAlign=bottom;" parent="29m1Z3NYBUcn7dENaPxr-53" connectable="0" vertex="1">
          <mxGeometry x="1" relative="1" as="geometry" />
        </mxCell>
        <mxCell id="29m1Z3NYBUcn7dENaPxr-55" value="Nombre" style="ellipse;whiteSpace=wrap;html=1;align=center;" parent="1" vertex="1">
          <mxGeometry x="-40" y="440" width="100" height="40" as="geometry" />
        </mxCell>
        <mxCell id="29m1Z3NYBUcn7dENaPxr-56" value="ID_vendedor" style="ellipse;whiteSpace=wrap;html=1;align=center;fontStyle=4;" parent="1" vertex="1">
          <mxGeometry x="60" y="410" width="100" height="40" as="geometry" />
        </mxCell>
        <mxCell id="29m1Z3NYBUcn7dENaPxr-57" value="Telefono" style="ellipse;whiteSpace=wrap;html=1;align=center;" parent="1" vertex="1">
          <mxGeometry x="-60" y="540" width="100" height="40" as="geometry" />
        </mxCell>
        <mxCell id="29m1Z3NYBUcn7dENaPxr-58" value="Direccion" style="ellipse;whiteSpace=wrap;html=1;align=center;" parent="1" vertex="1">
          <mxGeometry x="50" y="590" width="100" height="40" as="geometry" />
        </mxCell>
        <mxCell id="29m1Z3NYBUcn7dENaPxr-60" value="" style="endArrow=none;html=1;rounded=0;exitX=0.5;exitY=1;exitDx=0;exitDy=0;entryX=0.5;entryY=0;entryDx=0;entryDy=0;" parent="1" source="29m1Z3NYBUcn7dENaPxr-4" target="29m1Z3NYBUcn7dENaPxr-58" edge="1">
          <mxGeometry relative="1" as="geometry">
            <mxPoint x="370" y="530" as="sourcePoint" />
            <mxPoint x="530" y="530" as="targetPoint" />
          </mxGeometry>
        </mxCell>
        <mxCell id="29m1Z3NYBUcn7dENaPxr-61" value="" style="endArrow=none;html=1;rounded=0;exitX=1;exitY=0.5;exitDx=0;exitDy=0;entryX=0;entryY=1;entryDx=0;entryDy=0;" parent="1" source="29m1Z3NYBUcn7dENaPxr-57" target="29m1Z3NYBUcn7dENaPxr-4" edge="1">
          <mxGeometry relative="1" as="geometry">
            <mxPoint x="370" y="530" as="sourcePoint" />
            <mxPoint x="530" y="530" as="targetPoint" />
          </mxGeometry>
        </mxCell>
        <mxCell id="29m1Z3NYBUcn7dENaPxr-62" value="" style="endArrow=none;html=1;rounded=0;exitX=0.5;exitY=1;exitDx=0;exitDy=0;entryX=0;entryY=0.5;entryDx=0;entryDy=0;" parent="1" source="29m1Z3NYBUcn7dENaPxr-55" target="29m1Z3NYBUcn7dENaPxr-4" edge="1">
          <mxGeometry relative="1" as="geometry">
            <mxPoint x="370" y="530" as="sourcePoint" />
            <mxPoint x="530" y="530" as="targetPoint" />
          </mxGeometry>
        </mxCell>
        <mxCell id="29m1Z3NYBUcn7dENaPxr-63" value="" style="endArrow=none;html=1;rounded=0;exitX=0.5;exitY=1;exitDx=0;exitDy=0;entryX=0.5;entryY=0;entryDx=0;entryDy=0;" parent="1" source="29m1Z3NYBUcn7dENaPxr-56" target="29m1Z3NYBUcn7dENaPxr-4" edge="1">
          <mxGeometry relative="1" as="geometry">
            <mxPoint x="370" y="530" as="sourcePoint" />
            <mxPoint x="530" y="530" as="targetPoint" />
          </mxGeometry>
        </mxCell>
        <mxCell id="29m1Z3NYBUcn7dENaPxr-64" value="" style="endArrow=none;html=1;rounded=0;entryX=1;entryY=0.5;entryDx=0;entryDy=0;" parent="1" source="29m1Z3NYBUcn7dENaPxr-19" target="29m1Z3NYBUcn7dENaPxr-4" edge="1">
          <mxGeometry relative="1" as="geometry">
            <mxPoint x="370" y="530" as="sourcePoint" />
            <mxPoint x="530" y="530" as="targetPoint" />
          </mxGeometry>
        </mxCell>
        <mxCell id="29m1Z3NYBUcn7dENaPxr-65" value="(1,1)" style="resizable=0;html=1;whiteSpace=wrap;align=right;verticalAlign=bottom;" parent="29m1Z3NYBUcn7dENaPxr-64" connectable="0" vertex="1">
          <mxGeometry x="1" relative="1" as="geometry">
            <mxPoint x="30" as="offset" />
          </mxGeometry>
        </mxCell>
        <mxCell id="29m1Z3NYBUcn7dENaPxr-68" value="" style="endArrow=none;html=1;rounded=0;exitX=1;exitY=0.5;exitDx=0;exitDy=0;entryX=0;entryY=0.5;entryDx=0;entryDy=0;" parent="1" source="29m1Z3NYBUcn7dENaPxr-19" target="29m1Z3NYBUcn7dENaPxr-3" edge="1">
          <mxGeometry relative="1" as="geometry">
            <mxPoint x="370" y="530" as="sourcePoint" />
            <mxPoint x="400" y="550" as="targetPoint" />
          </mxGeometry>
        </mxCell>
        <mxCell id="29m1Z3NYBUcn7dENaPxr-69" value="(1,M)" style="resizable=0;html=1;whiteSpace=wrap;align=right;verticalAlign=bottom;" parent="29m1Z3NYBUcn7dENaPxr-68" connectable="0" vertex="1">
          <mxGeometry x="1" relative="1" as="geometry" />
        </mxCell>
        <mxCell id="29m1Z3NYBUcn7dENaPxr-70" value="Marca" style="ellipse;whiteSpace=wrap;html=1;align=center;" parent="1" vertex="1">
          <mxGeometry x="827" y="420" width="100" height="40" as="geometry" />
        </mxCell>
        <mxCell id="29m1Z3NYBUcn7dENaPxr-71" value="Cilindrada" style="ellipse;whiteSpace=wrap;html=1;align=center;" parent="1" vertex="1">
          <mxGeometry x="944" y="440" width="100" height="40" as="geometry" />
        </mxCell>
        <mxCell id="29m1Z3NYBUcn7dENaPxr-72" value="Precio" style="ellipse;whiteSpace=wrap;html=1;align=center;" parent="1" vertex="1">
          <mxGeometry x="980" y="500" width="100" height="40" as="geometry" />
        </mxCell>
        <mxCell id="29m1Z3NYBUcn7dENaPxr-73" value="" style="endArrow=none;html=1;rounded=0;exitX=0.5;exitY=1;exitDx=0;exitDy=0;entryX=0.5;entryY=0;entryDx=0;entryDy=0;" parent="1" source="29m1Z3NYBUcn7dENaPxr-70" target="29m1Z3NYBUcn7dENaPxr-2" edge="1">
          <mxGeometry relative="1" as="geometry">
            <mxPoint x="550" y="520" as="sourcePoint" />
            <mxPoint x="710" y="520" as="targetPoint" />
          </mxGeometry>
        </mxCell>
        <mxCell id="29m1Z3NYBUcn7dENaPxr-74" value="" style="endArrow=none;html=1;rounded=0;entryX=0.258;entryY=0.887;entryDx=0;entryDy=0;entryPerimeter=0;exitX=1;exitY=0;exitDx=0;exitDy=0;" parent="1" source="29m1Z3NYBUcn7dENaPxr-2" target="29m1Z3NYBUcn7dENaPxr-71" edge="1">
          <mxGeometry relative="1" as="geometry">
            <mxPoint x="550" y="520" as="sourcePoint" />
            <mxPoint x="710" y="520" as="targetPoint" />
          </mxGeometry>
        </mxCell>
        <mxCell id="29m1Z3NYBUcn7dENaPxr-75" value="" style="endArrow=none;html=1;rounded=0;entryX=0;entryY=0.5;entryDx=0;entryDy=0;exitX=1;exitY=0.5;exitDx=0;exitDy=0;" parent="1" source="29m1Z3NYBUcn7dENaPxr-2" target="29m1Z3NYBUcn7dENaPxr-72" edge="1">
          <mxGeometry relative="1" as="geometry">
            <mxPoint x="550" y="520" as="sourcePoint" />
            <mxPoint x="710" y="520" as="targetPoint" />
          </mxGeometry>
        </mxCell>
        <mxCell id="XAbsppGKFRiDkGGyDRVB-1" value="precio_ad" style="ellipse;whiteSpace=wrap;html=1;align=center;" vertex="1" parent="1">
          <mxGeometry x="970" y="610" width="100" height="40" as="geometry" />
        </mxCell>
        <mxCell id="XAbsppGKFRiDkGGyDRVB-3" value="" style="endArrow=none;html=1;rounded=0;exitX=1;exitY=0.5;exitDx=0;exitDy=0;entryX=0;entryY=0.5;entryDx=0;entryDy=0;" edge="1" parent="1" source="29m1Z3NYBUcn7dENaPxr-20" target="XAbsppGKFRiDkGGyDRVB-1">
          <mxGeometry relative="1" as="geometry">
            <mxPoint x="530" y="710" as="sourcePoint" />
            <mxPoint x="690" y="710" as="targetPoint" />
          </mxGeometry>
        </mxCell>
      </root>
    </mxGraphModel>
  </diagram>
</mxfile>
